<?xml version="1.0" encoding="utf-8"?>
<!-- Generator: Adobe Illustrator 16.0.4, SVG Export Plug-In . SVG Version: 6.00 Build 0)  -->
<!DOCTYPE svg PUBLIC "-//W3C//DTD SVG 1.1//EN" "http://www.w3.org/Graphics/SVG/1.1/DTD/svg11.dtd">
<svg version="1.1" id="Layer_1" xmlns="http://www.w3.org/2000/svg" xmlns:xlink="http://www.w3.org/1999/xlink" x="0px" y="0px"
	 width="103.333px" height="127.728px" viewBox="0 0 103.333 127.728" enable-background="new 0 0 103.333 127.728"
	 xml:space="preserve">
<g>
	<path fill="#58595B" stroke="#414042" stroke-width="7" stroke-miterlimit="10" d="M99.724,128.042
		c0.001,6.627-5.371,12.002-11.999,12.002l-71.999,0.02c-6.626,0.002-12.001-5.369-12.003-11.996l-0.03-112
		C3.692,9.44,9.062,4.066,15.69,4.064l72-0.019c6.626-0.002,12.001,5.369,12.002,11.997L99.724,128.042z"/>
	<path stroke="#000000" stroke-width="3" stroke-miterlimit="10" d="M91.62,25.377c0.001,6.627,2.67,11.999-11.998,12.002l-56,0.016
		c-13.332,0.004-12-5.369-12.002-11.997v-0.666c-0.003-6.627,5.369-12.001,11.997-12.003l56-0.015
		c6.627-0.002,12.001,5.369,12.003,11.997L91.62,25.377z"/>
	<rect x="51.365" y="30.722" fill="#27AAE1" width="0.667" height="7.666"/>
</g>
<g>
	<path fill="#414042" d="M26.103,115.351c-0.875,0.951-2.83,4.992-1.611,6.117l0.212,0.018c1.219,1.121,4.938-1.121,5.814-2.072
		l52.311-56.832c0.875-0.951,0.598-2.63-0.623-3.754l0,0c-1.218-1.121-2.916-1.26-3.79-0.308L26.103,115.351z"/>
	<path d="M26.368,115.063c-0.876,0.949-2.831,4.996-1.611,6.117l0.211,0.018c1.218,1.121,4.937-1.121,5.812-2.072"/>
	<path fill="#83C441" d="M78.433,58.623c0.852-0.924,2.502-0.79,3.688,0.302c1.185,1.09,1.455,2.724,0.604,3.65"/>
</g>
</svg>
