<?xml version="1.0" encoding="utf-8"?>
<!-- Generator: Adobe Illustrator 16.0.4, SVG Export Plug-In . SVG Version: 6.00 Build 0)  -->
<!DOCTYPE svg PUBLIC "-//W3C//DTD SVG 1.1//EN" "http://www.w3.org/Graphics/SVG/1.1/DTD/svg11.dtd">
<svg version="1.1" xmlns="http://www.w3.org/2000/svg" xmlns:xlink="http://www.w3.org/1999/xlink" x="0px" y="0px" width="100px"
	 height="100.5px" viewBox="0 0 100 100.5" enable-background="new 0 0 100 100.5" xml:space="preserve">
<g id="Layer_6">
</g>
<g id="Layer_3">
	<circle fill="#FFFFFF" stroke="#D1D3D4" stroke-miterlimit="10" cx="50.125" cy="50.125" r="49.5"/>
</g>
<g id="Layer_2">
	<g>
		<g>
			<path fill="#00A79D" d="M39.893,23.268c0.042-0.042,0.083-0.083,0.125-0.125c0.963-0.963,0.963-2.572,0-3.535
				c-0.963-0.963-2.572-0.963-3.535,0c-0.042,0.042-0.083,0.083-0.125,0.125c-0.963,0.963-0.963,2.572,0,3.535
				C37.32,24.231,38.93,24.231,39.893,23.268L39.893,23.268z"/>
		</g>
	</g>
	<g>
		<g>
			<path fill="#00A79D" d="M40.018,23.143c0.865-0.764,1.51-1.736,2.375-2.5c1.022-0.902,0.918-2.617,0-3.535
				c-1.008-1.008-2.515-0.901-3.535,0c-0.865,0.764-1.51,1.736-2.375,2.5c-1.022,0.902-0.918,2.617,0,3.535
				C37.49,24.15,38.997,24.044,40.018,23.143L40.018,23.143z"/>
		</g>
	</g>
	<g>
		<g>
			<path fill="#00A79D" d="M32.589,16.085c-0.005,0.031-0.01,0.062-0.016,0.094c1.393-0.368,2.786-0.735,4.178-1.103
				c-0.036-0.031-0.073-0.062-0.109-0.094c0.214,0.811,0.429,1.622,0.643,2.432c-0.34,1.229-0.719,0.568,1.028,0.602
				c1.024,0.019,2.042,0.241,3.022,0.52c2.42,0.688,4.194-2.417,2.432-4.178c-0.042-0.042-0.083-0.083-0.125-0.125
				c-2.095-2.095-5.132,0.546-3.926,3.029c0.503,1.036,0.086,2.626,0.034,3.738c-0.104,2.189,0.025,4.396-0.024,6.588
				c-0.077,3.415-0.542,6.703,0.239,10.076c0.727,3.141,5.547,1.809,4.821-1.329c-0.837-3.62-0.036-7.54-0.036-11.222
				c0-3.352,0.786-7.283-0.716-10.375c-1.309,1.01-2.618,2.02-3.926,3.029c0.042,0.042,0.083,0.083,0.125,0.125
				c0.811-1.393,1.622-2.786,2.432-4.178c-3.174-0.902-9.04-1.816-10.2,2.371c-0.224,0.808-0.019,1.866,0.643,2.432
				c0.036,0.031,0.073,0.062,0.109,0.094c1.277,1.095,3.843,0.91,4.178-1.103c0.005-0.031,0.01-0.062,0.016-0.094
				C37.936,14.262,33.119,12.91,32.589,16.085L32.589,16.085z"/>
		</g>
	</g>
	<g>
		<g>
			<path fill="#00A79D" d="M34.214,21.415c0.817,2.596,0.608,5.286,0.911,7.96c0.153,1.354,1.021,2.5,2.5,2.5
				c1.247,0,2.653-1.143,2.5-2.5c-0.353-3.116-0.135-6.261-1.089-9.29C38.071,17.021,33.243,18.331,34.214,21.415L34.214,21.415z"/>
		</g>
	</g>
	<g>
		<g>
			<path fill="#00A79D" d="M34.589,19.415c0.111,0.486,0.234,0.969,0.341,1.457c0.005,0.024,0.124,0.83,0.068,0.335
				c0.039,0.348,0.026,0.696,0.001,1.044c-0.099,1.361,1.212,2.5,2.5,2.5c1.438,0,2.401-1.142,2.5-2.5
				c0.103-1.417-0.276-2.796-0.589-4.165c-0.304-1.328-1.805-2.096-3.075-1.746C34.98,16.712,34.285,18.087,34.589,19.415
				L34.589,19.415z"/>
		</g>
	</g>
	<g>
		<g>
			<path fill="#00A79D" d="M37,16.375c-0.021-0.583-0.124-1.149-0.466-1.637c-0.783-1.112-2.17-1.629-3.42-0.897
				c-1.101,0.645-1.683,2.304-0.897,3.42c-0.072-0.295-0.144-0.591-0.216-0.887c0.05,1.361,1.099,2.5,2.5,2.5
				C35.825,18.875,37.05,17.738,37,16.375L37,16.375z"/>
		</g>
	</g>
	<g>
		<g>
			<path fill="#00A79D" d="M31.964,19.165c0.674,3.589,0.647,7.448,0.514,11.093c-0.099,2.693-0.621,5.566,0.361,8.157
				c1.132,2.984,5.967,1.691,4.821-1.329c-0.893-2.356-0.241-5.246-0.15-7.709c0.141-3.824-0.018-7.779-0.725-11.541
				C36.191,14.669,31.373,16.014,31.964,19.165L31.964,19.165z"/>
		</g>
	</g>
	<g>
		<g>
			<path fill="#00A79D" d="M35.339,29.415c0.427,2.974-0.164,6,0.25,9c0.187,1.353,1.894,2.071,3.075,1.746
				c1.442-0.396,1.932-1.727,1.746-3.075c-0.411-2.982,0.181-5.997-0.25-9c-0.194-1.352-1.888-2.073-3.075-1.746
				C35.649,26.734,35.146,28.067,35.339,29.415L35.339,29.415z"/>
		</g>
	</g>
	<g>
		<g>
			<path fill="#00A79D" d="M36.25,32.375c0.759,6.939-0.379,14.363,1.089,21.165c0.68,3.151,5.5,1.814,4.821-1.329
				c-0.663-3.071-0.197-6.302-0.364-9.424c-0.186-3.478-0.167-6.944-0.547-10.411C40.903,29.206,35.899,29.172,36.25,32.375
				L36.25,32.375z"/>
		</g>
	</g>
	<g>
		<g>
			<path fill="#00A79D" d="M38.839,45.04c0.873,2.97,0.33,5.925-0.125,8.921c-0.479,3.153,4.338,4.508,4.821,1.329
				c0.592-3.894,1.261-7.714,0.125-11.579C42.753,40.624,37.928,41.938,38.839,45.04L38.839,45.04z"/>
		</g>
	</g>
	<g>
		<g>
			<path fill="#00A79D" d="M39.839,47.415c0.405,2.59-0.408,5.266-0.714,7.835c-0.291,2.442,0.311,5.049,0.375,7.5
				c0.084,3.218,5.085,3.226,5,0c-0.079-2.992-0.643-5.956-0.173-8.937c0.417-2.647,0.751-5.058,0.334-7.728
				C44.164,42.907,39.347,44.261,39.839,47.415L39.839,47.415z"/>
		</g>
	</g>
	<g>
		<g>
			<path fill="#00A79D" d="M39.339,52.915c0.734,2.347,0.013,4.808-0.089,7.21c-0.115,2.68,0.105,5.428,0.714,8.04
				c0.732,3.14,5.553,1.808,4.821-1.329c-0.584-2.506-0.604-5.107-0.495-7.669c0.113-2.648,0.685-4.974-0.13-7.581
				C43.201,48.519,38.374,49.829,39.339,52.915L39.339,52.915z"/>
		</g>
	</g>
	<g>
		<g>
			<path fill="#00A79D" d="M33.625,48.375c0.338,3.69,0.119,7.385,0.839,11.04c0.623,3.162,5.442,1.82,4.821-1.329
				c-0.629-3.193-0.364-6.481-0.661-9.71C38.333,45.192,33.331,45.163,33.625,48.375L33.625,48.375z"/>
		</g>
	</g>
	<g>
		<g>
			<path fill="#00A79D" d="M33.089,44.96c-0.597,2.528-0.398,5.234,0.375,7.704c0.96,3.066,5.788,1.756,4.821-1.329
				c-0.505-1.614-0.769-3.379-0.375-5.046C38.651,43.154,33.831,41.823,33.089,44.96L33.089,44.96z"/>
		</g>
	</g>
	<g>
		<g>
			<path fill="#00A79D" d="M32.125,45.625c-0.019,4.467-0.363,9.871,2.466,13.637c1.236,1.646,3.948,1.674,4.569-0.597
				c0.25-0.759,0.499-1.519,0.748-2.278c-1.523-0.199-3.046-0.398-4.569-0.597c0.36,2.073,0.139,4.14-0.089,6.21
				c1.422-0.589,2.845-1.179,4.268-1.768c-1.758-1.577-1.956-5.017-2.143-7.232c-0.267-3.165-5.014-3.268-5,0
				c0.016,3.754,0.063,7.499-0.125,11.25c1.667,0,3.333,0,5,0c-0.004-1.257-0.033-2.497-0.125-3.75
				c-1.637,0.222-3.274,0.443-4.911,0.665c0.304,1.682,0.87,3.439,0.5,5.171c1.607,0,3.214,0,4.821,0
				c-0.083-0.583-0.167-1.167-0.25-1.75c-0.404-2.83-4.969-2.097-4.911,0.665c0.052,2.46,0.198,4.915,0.25,7.375
				c0.021,1.026,0.738,2.228,1.835,2.411c0.25,0.042,0.5,0.083,0.75,0.125c1.369,0.228,2.652-0.34,3.075-1.746
				c0.735-2.443,0.284-5.317,1.623-7.528c-1.553-0.42-3.106-0.841-4.659-1.262c0.324,3.569-0.198,6.734,2.232,9.643
				c1.501,1.798,4.162,0.214,4.268-1.768c0.095-0.496,0.189-0.992,0.284-1.488c-1.439,0-2.878,0-4.317,0
				c0.166,0.509,0.332,1.019,0.498,1.528c0.711,2.807,4.811,2.103,4.911-0.665c0.095-0.612,0.19-1.224,0.286-1.835
				c-1.607,0-3.214,0-4.821,0c0.095,0.653,0.19,1.307,0.286,1.96c0.23,3.226,4.753,3.215,5,0c0.137-0.695,0.274-1.39,0.411-2.085
				c-0.804,0.612-1.607,1.224-2.411,1.835c0.042,0,0.083,0,0.125,0c-0.833-0.833-1.667-1.667-2.5-2.5
				c0.433,1.121,0.021,1.406-1.232,0.857c-1.494-1.355-4.433-0.546-4.268,1.768c0.042,0.583,0.083,1.167,0.125,1.75
				c0.833-0.833,1.667-1.667,2.5-2.5c-0.042,0-0.083,0-0.125,0c-1.363,0-2.5,1.137-2.5,2.5c0,0.042,0,0.083,0,0.125
				c0,3.224,5,3.224,5,0c0-0.083,0-0.167,0-0.25c-1.055,0.804-2.11,1.607-3.165,2.411c1.002,0.365,1.668,0.313,2.704,0.125
				c3.169-0.576,1.823-5.395-1.329-4.821c-0.015-0.042-0.031-0.083-0.046-0.125C35.615,70.526,34,71.974,34,73.5
				c0,0.083,0,0.167,0,0.25c0,3.224,5,3.224,5,0c0-0.042,0-0.083,0-0.125c-0.833,0.833-1.667,1.667-2.5,2.5c0.042,0,0.083,0,0.125,0
				c1.289,0,2.597-1.139,2.5-2.5c-0.042-0.583-0.083-1.167-0.125-1.75c-1.422,0.589-2.845,1.179-4.268,1.768
				c4.691,4.255,10.415,2.203,9.768-4.393c-0.133-1.355-1.037-2.5-2.5-2.5c-0.042,0-0.083,0-0.125,0
				c-1.127,0-2.096,0.766-2.411,1.835c-0.376,1.278-0.487,2.083-0.589,3.415c1.667,0,3.333,0,5,0
				c-0.084-1.182-0.216-2.13-0.464-3.29c-0.53-2.475-4.192-2.306-4.821,0c-0.323,1.184-0.42,1.935-0.464,3.165
				c1.637-0.222,3.274-0.443,4.911-0.665c-0.26-1.027-0.559-1.762-1.002-2.722c-0.739-1.601-3.604-1.673-4.317,0
				c-0.662,1.551-0.876,2.315-0.966,4.012c1.422-0.589,2.845-1.179,4.268-1.768c-1.208-1.447-0.604-4.311-0.768-6.107
				c-0.218-2.396-3.295-3.514-4.659-1.262c-1.68,2.773-1.225,5.725-2.127,8.722c1.025-0.582,2.05-1.164,3.075-1.746
				c-0.25-0.042-0.5-0.083-0.75-0.125c0.612,0.804,1.224,1.607,1.835,2.411c-0.052-2.46-0.198-4.915-0.25-7.375
				c-1.637,0.222-3.274,0.443-4.911,0.665c0.083,0.583,0.167,1.167,0.25,1.75c0.354,2.477,4.327,2.311,4.821,0
				c0.585-2.738-0.008-5.111-0.5-7.829c-0.501-2.773-5.117-2.136-4.911,0.665c0.092,1.253,0.121,2.493,0.125,3.75
				c0.012,3.241,4.839,3.202,5,0c0.188-3.751,0.141-7.496,0.125-11.25c-1.667,0-3.333,0-5,0c0.305,3.614,0.746,8.201,3.607,10.768
				c1.728,1.55,4.029,0.393,4.268-1.768c0.284-2.569,0.354-4.992-0.089-7.54c-0.353-2.033-3.735-2.552-4.569-0.597
				c-0.529,1.238-0.896,2.171-1.252,3.472c1.523-0.199,3.046-0.398,4.569-0.597c-2.284-3.04-1.799-7.499-1.784-11.113
				C37.139,42.4,32.139,42.401,32.125,45.625L32.125,45.625z"/>
		</g>
	</g>
	<g>
		<g>
			<path fill="#00A79D" d="M37.964,70.415c0.633,1.984,1.095,5.085,3.786,5.085c0.796,0,1.823-0.458,2.159-1.238
				c0.277-0.644,0.458-1.177,0.466-1.887c0.016-1.363-1.149-2.5-2.5-2.5c-1.375,0-2.484,1.138-2.5,2.5
				c-0.019,0.444,0.053,0.231,0.216-0.637c0.72-0.413,1.439-0.826,2.159-1.238c-0.042,0-0.083,0-0.125,0
				c0.589,0.244,1.179,0.488,1.768,0.732c0.363,0.456,0.003-0.074-0.046-0.167c0.281,0.534-0.065-0.226-0.106-0.36
				c-0.164-0.536-0.284-1.084-0.455-1.619c-0.414-1.297-1.721-2.119-3.075-1.746C38.437,67.689,37.55,69.116,37.964,70.415
				L37.964,70.415z"/>
		</g>
	</g>
	<rect x="32.25" y="37.875" fill="#A97C50" stroke="#A97C50" stroke-miterlimit="10" width="12.5" height="8.125"/>
	<rect x="32.125" y="45.375" fill="#956D46" width="12.5" height="5.125"/>
	<rect x="32.25" y="35.695" fill="#956D46" width="12.5" height="2.109"/>
	<g>
		<g>
			<path fill="#A14C4C" d="M50.286,32.665c0.164-0.589,0.228-1.205,0.213-1.817c-0.011-0.185-0.023-0.369-0.036-0.554
				c-0.047-0.691-0.188,0.295,0.008-0.194c-0.214,0.368-0.428,0.736-0.643,1.104c-0.415,0.152-0.829,0.305-1.243,0.458
				c2.357,0.427,4.317-2.294,2.432-4.178c-0.083-0.083-0.167-0.167-0.25-0.25c-0.368,1.393-0.735,2.786-1.103,4.178
				c0.654-0.234,1.215-0.186,1.895-0.075c0.535,0.087,1.07,0.179,1.608,0.239c0.152,0.017,0.305,0.034,0.457,0.051
				c0.827-0.006,0.884-0.096,0.17-0.27c-0.299-0.299-0.598-0.598-0.897-0.896c0.064,0.101,0.128,0.202,0.193,0.303
				c1.726,2.71,6.055,0.205,4.317-2.523c-0.433-0.679-1.097-1.478-1.958-1.623c-0.71-0.12-1.419,0.078-2.086-0.022
				c-1.702-0.255-3.356-0.604-5.029-0.004c-1.731,0.621-2.511,2.771-1.103,4.178c0.083,0.083,0.167,0.167,0.25,0.25
				c0.811-1.393,1.622-2.786,2.432-4.178c-1.526-0.277-3.144-0.15-4.013,1.334c-0.608,1.038-0.221,2.386-0.437,3.162
				C44.598,34.447,49.422,35.767,50.286,32.665L50.286,32.665z"/>
		</g>
	</g>
	<g>
		<g>
			<path fill="#A14C4C" d="M55.5,26.5c-0.095,0-0.19-0.004-0.284-0.013c0.731,0.05,0.234,0.022,0.039-0.029
				c-0.253-0.087-0.221-0.066,0.097,0.064c-0.33-0.143-0.565-0.33-0.938-0.433c-1.16-0.319-2.25,0.219-3.057,1.018
				c-0.968,0.958-0.96,2.576,0,3.535c0.967,0.967,2.567,0.958,3.535,0c0.039-0.038,0.077-0.076,0.116-0.114
				c-0.348,0.309-0.767,0.466-1.258,0.472c-0.42-0.114-0.841-0.228-1.262-0.341c0.937,0.529,1.935,0.816,3.012,0.841
				c1.363,0.031,2.5-1.161,2.5-2.5C58,27.614,56.862,26.531,55.5,26.5L55.5,26.5z"/>
		</g>
	</g>
	<g>
		<g>
			<path fill="#A14C4C" d="M48.464,32.04c0.722,3.806-0.623,7.764-0.714,11.585c-0.078,3.226,4.923,3.219,5,0
				c0.105-4.366,1.365-8.544,0.536-12.915C52.685,27.545,47.866,28.889,48.464,32.04L48.464,32.04z"/>
		</g>
	</g>
	<g>
		<g>
			<path fill="#A14C4C" d="M50.466,34.137c1.408,2.455,0.308,5.679-0.026,8.305c-0.343,2.695-0.26,5.084,0.901,7.57
				c1.364,2.919,5.673,0.378,4.317-2.523c-1.188-2.543,0.001-5.853,0.296-8.485c0.294-2.621,0.165-5.061-1.171-7.39
				C53.18,28.818,48.859,31.335,50.466,34.137L50.466,34.137z"/>
		</g>
	</g>
	<g>
		<g>
			<path fill="#A14C4C" d="M52.464,31.915c1.79,4.869-0.275,10.173,0.286,15.21c0.353,3.168,5.356,3.202,5,0
				c-0.615-5.533,1.519-11.146-0.464-16.54C56.183,27.585,51.349,28.881,52.464,31.915L52.464,31.915z"/>
		</g>
	</g>
	<g>
		<g>
			<path fill="#A14C4C" d="M53.25,30.625c-0.113,3.889-1.12,7.812-1.428,11.721c-0.274,3.482-0.306,6.867,0.267,10.318
				c0.527,3.175,5.345,1.824,4.821-1.329c-1.168-7.035,1.138-13.766,1.339-20.71C58.344,27.399,53.343,27.408,53.25,30.625
				L53.25,30.625z"/>
		</g>
	</g>
	<g>
		<g>
			<path fill="#A14C4C" d="M45.339,34.415c1.795,12.435,1.338,25.187,1.036,37.71c-0.078,3.226,4.922,3.219,5,0
				c0.314-13.006,0.649-26.129-1.214-39.04C49.702,29.904,44.884,31.262,45.339,34.415L45.339,34.415z"/>
		</g>
	</g>
	<g>
		<g>
			<path fill="#A14C4C" d="M45.375,40.625c0.063,5.636,0.592,11.263,0.462,16.9c-0.064,2.775-0.295,5.471-0.09,8.249
				c0.146,1.979,0.794,4.505,0.092,6.437c-1.104,3.038,3.729,4.334,4.821,1.329c1.379-3.792-0.136-8.76-0.001-12.714
				c0.229-6.759-0.208-13.442-0.284-20.2C50.339,37.403,45.339,37.399,45.375,40.625L45.375,40.625z"/>
		</g>
	</g>
	<g>
		<g>
			<path fill="#A14C4C" d="M45.339,68.29c0.147,0.771-0.017-0.47,0.026,0.325c0.018,0.337,0.01,0.677,0.01,1.015
				c0.001,0.727,0.078,1.446,0.214,2.16c0.255,1.34,1.842,2.085,3.075,1.746c1.392-0.383,2.001-1.738,1.746-3.075
				c-0.147-0.771,0.017,0.47-0.026-0.325c-0.018-0.337-0.01-0.677-0.01-1.015c-0.001-0.727-0.078-1.446-0.214-2.16
				c-0.255-1.34-1.842-2.085-3.075-1.746C45.694,65.597,45.084,66.952,45.339,68.29L45.339,68.29z"/>
		</g>
	</g>
	<g>
		<g>
			<path fill="#A14C4C" d="M50.089,50.165c0.755,3.527-0.207,7.873-0.32,11.47c-0.105,3.353,0.024,6.641,0.82,9.905
				c0.764,3.132,5.585,1.803,4.821-1.329c-1.724-7.07,0.99-14.412-0.5-21.375C54.236,45.683,49.417,47.021,50.089,50.165
				L50.089,50.165z"/>
		</g>
	</g>
	<g>
		<g>
			<path fill="#A14C4C" d="M50.464,71.665c0.084,0.238,0.07,0.642,0.041-0.032c0-0.263,0.07-0.506,0.21-0.729
				c-0.134,0.218-0.086,0.161,0.143-0.171c0.811-0.214,1.622-0.429,2.432-0.643c0.46,0.132,0.82,0.417,1.078,0.854
				c-0.076-0.104-0.139-0.222-0.208-0.33c-0.736-1.144-2.207-1.608-3.42-0.897c-1.137,0.666-1.635,2.273-0.897,3.42
				c0.202,0.314,0.396,0.642,0.657,0.912c0.438,0.454,0.884,0.642,1.462,0.862c0.783,0.298,1.882-0.039,2.432-0.643
				c0.984-1.08,1.392-2.518,0.893-3.932c-0.453-1.284-1.691-2.127-3.075-1.746C50.966,68.932,50.011,70.378,50.464,71.665
				L50.464,71.665z"/>
		</g>
	</g>
	<g>
		<g>
			<path fill="#A14C4C" d="M52.464,49.04C53.078,53.011,52.132,57.024,52,61c-0.137,4.129-0.358,8.263,0.125,12.375
				c0.371,3.163,5.375,3.199,5,0c-1.003-8.548,1.464-17.228,0.161-25.665C56.794,44.532,51.977,45.887,52.464,49.04L52.464,49.04z"
				/>
		</g>
	</g>
	<g>
		<g>
			<path fill="#A14C4C" d="M52.466,49.137c1.583,2.94,0.388,7.172,0.284,10.363c-0.155,4.734-0.096,9.475,0.589,14.165
				c0.465,3.181,5.282,1.824,4.821-1.329c-0.713-4.883-0.648-10.075-0.295-14.993c0.264-3.692,0.736-7.352-1.082-10.729
				C55.255,43.773,50.938,46.298,52.466,49.137L52.466,49.137z"/>
		</g>
	</g>
	<g>
		<g>
			<path fill="#5694BA" d="M63.018,26.143c0.447-0.555,0.836-1.011,1.018-1.728c-0.804,0.612-1.607,1.224-2.411,1.835
				c0.71,0.025,1.415,0.1,2.125,0.125c1.832,0.066,3.202-2.197,2.159-3.762c-0.083-0.125-0.167-0.25-0.25-0.375
				c-0.299,1.14-0.598,2.28-0.897,3.42c0.212-0.128,0.165-0.117-0.143,0.035c0.09-0.032,0.719-0.098,0.227-0.056
				c0.234-0.02,1.098,0.031,0.972,0.012c0.237,0.037,1.133,0.341,0.941,0.248c0.445,0.218,0.058,0.008-0.062-0.163
				c-0.455-0.654,0.003-1.357,0.548-1.755c0.374-0.272-0.499,0.104-0.542,0.109c-0.685,0.071-1.381,0.058-2.068,0.046
				c-1.046-0.019-2.088-0.12-3.134-0.134c0.833,0.833,1.667,1.667,2.5,2.5c0-0.208,0-0.417,0-0.625c0-3.224-5-3.224-5,0
				c0,0.208,0,0.417,0,0.625c0,1.376,1.138,2.482,2.5,2.5c3.266,0.044,9.754,1.175,10.017-3.725
				c0.224-4.174-6.315-5.869-9.278-3.934c-1.087,0.71-1.681,2.245-0.897,3.42c0.083,0.125,0.167,0.25,0.25,0.375
				c0.72-1.254,1.439-2.508,2.159-3.762c-0.71-0.025-1.415-0.1-2.125-0.125c-1.089-0.039-2.145,0.79-2.411,1.835
				c-0.023,0.091-0.046,0.182-0.069,0.273c0.214-0.368,0.428-0.735,0.643-1.103c-0.111,0.109-0.213,0.227-0.305,0.352
				c-0.854,1.061-1.041,2.495,0,3.535C60.368,27.028,62.162,27.206,63.018,26.143L63.018,26.143z"/>
		</g>
	</g>
	<g>
		<g>
			<path fill="#5694BA" d="M63.018,30.643c0.447-0.555,0.836-1.011,1.018-1.728c-0.804,0.612-1.607,1.224-2.411,1.835
				c0.71,0.025,1.415,0.1,2.125,0.125c1.832,0.066,3.202-2.197,2.159-3.762c-0.083-0.125-0.167-0.25-0.25-0.375
				c-0.299,1.14-0.598,2.28-0.897,3.42c0.212-0.128,0.165-0.117-0.143,0.035c0.09-0.032,0.719-0.098,0.227-0.056
				c0.234-0.02,1.098,0.031,0.972,0.012c0.237,0.037,1.133,0.341,0.941,0.248c0.445,0.218,0.058,0.008-0.062-0.163
				c-0.455-0.654,0.003-1.357,0.548-1.755c0.374-0.272-0.499,0.104-0.542,0.109c-0.685,0.071-1.381,0.058-2.068,0.046
				c-1.046-0.019-2.088-0.12-3.134-0.134c0.833,0.833,1.667,1.667,2.5,2.5c0-0.208,0-0.417,0-0.625c0-3.224-5-3.224-5,0
				c0,0.208,0,0.417,0,0.625c0,1.376,1.138,2.482,2.5,2.5c3.266,0.044,9.754,1.175,10.017-3.725
				c0.224-4.174-6.315-5.869-9.278-3.934c-1.087,0.71-1.681,2.245-0.897,3.42c0.083,0.125,0.167,0.25,0.25,0.375
				c0.72-1.254,1.439-2.508,2.159-3.762c-0.71-0.025-1.415-0.1-2.125-0.125c-1.089-0.039-2.145,0.79-2.411,1.835
				c-0.023,0.091-0.046,0.182-0.069,0.273c0.214-0.368,0.428-0.735,0.643-1.103c-0.111,0.109-0.213,0.227-0.305,0.352
				c-0.854,1.061-1.041,2.495,0,3.535C60.368,31.528,62.162,31.706,63.018,30.643L63.018,30.643z"/>
		</g>
	</g>
	<g>
		<g>
			<path fill="#5694BA" d="M63.018,34.643c0.447-0.555,0.836-1.011,1.018-1.728c-0.804,0.612-1.607,1.224-2.411,1.835
				c0.71,0.025,1.415,0.1,2.125,0.125c1.832,0.066,3.202-2.197,2.159-3.762c-0.083-0.125-0.167-0.25-0.25-0.375
				c-0.299,1.14-0.598,2.28-0.897,3.42c0.212-0.128,0.165-0.117-0.143,0.035c0.09-0.032,0.719-0.098,0.227-0.056
				c0.234-0.02,1.098,0.031,0.972,0.012c0.237,0.037,1.133,0.341,0.941,0.248c0.445,0.218,0.058,0.008-0.062-0.163
				c-0.455-0.654,0.003-1.357,0.548-1.755c0.374-0.272-0.499,0.104-0.542,0.109c-0.685,0.071-1.381,0.058-2.068,0.046
				c-1.046-0.019-2.088-0.12-3.134-0.134c0.833,0.833,1.667,1.667,2.5,2.5c0-0.208,0-0.417,0-0.625c0-3.224-5-3.224-5,0
				c0,0.208,0,0.417,0,0.625c0,1.376,1.138,2.482,2.5,2.5c3.266,0.044,9.754,1.175,10.017-3.725
				c0.224-4.174-6.315-5.869-9.278-3.934c-1.087,0.71-1.681,2.245-0.897,3.42c0.083,0.125,0.167,0.25,0.25,0.375
				c0.72-1.254,1.439-2.508,2.159-3.762c-0.71-0.025-1.415-0.1-2.125-0.125c-1.089-0.039-2.145,0.79-2.411,1.835
				c-0.023,0.091-0.046,0.182-0.069,0.273c0.214-0.368,0.428-0.735,0.643-1.103c-0.111,0.109-0.213,0.227-0.305,0.352
				c-0.854,1.061-1.041,2.495,0,3.535C60.368,35.528,62.162,35.706,63.018,34.643L63.018,34.643z"/>
		</g>
	</g>
	<g>
		<g>
			<path fill="#5694BA" d="M63.018,39.393c0.447-0.555,0.836-1.011,1.018-1.728c-0.804,0.612-1.607,1.224-2.411,1.835
				c0.71,0.025,1.415,0.1,2.125,0.125c1.832,0.066,3.202-2.197,2.159-3.762c-0.083-0.125-0.167-0.25-0.25-0.375
				c-0.299,1.14-0.598,2.28-0.897,3.42c0.212-0.128,0.165-0.117-0.143,0.035c0.09-0.032,0.719-0.098,0.227-0.056
				c0.234-0.02,1.098,0.031,0.972,0.012c0.237,0.037,1.133,0.341,0.941,0.248c0.445,0.218,0.058,0.008-0.062-0.163
				c-0.455-0.654,0.003-1.357,0.548-1.755c0.374-0.272-0.499,0.104-0.542,0.109c-0.685,0.071-1.381,0.058-2.068,0.046
				c-1.046-0.019-2.088-0.12-3.134-0.134c0.833,0.833,1.667,1.667,2.5,2.5c0-0.208,0-0.417,0-0.625c0-3.224-5-3.224-5,0
				c0,0.208,0,0.417,0,0.625c0,1.376,1.138,2.482,2.5,2.5c3.266,0.044,9.754,1.175,10.017-3.725
				c0.224-4.174-6.315-5.869-9.278-3.934c-1.087,0.71-1.681,2.245-0.897,3.42c0.083,0.125,0.167,0.25,0.25,0.375
				c0.72-1.254,1.439-2.508,2.159-3.762c-0.71-0.025-1.415-0.1-2.125-0.125c-1.089-0.039-2.145,0.79-2.411,1.835
				c-0.023,0.091-0.046,0.182-0.069,0.273c0.214-0.368,0.428-0.735,0.643-1.103c-0.111,0.109-0.213,0.227-0.305,0.352
				c-0.854,1.061-1.041,2.495,0,3.535C60.368,40.278,62.162,40.456,63.018,39.393L63.018,39.393z"/>
		</g>
	</g>
	<g>
		<g>
			<path fill="#5694BA" d="M63.018,44.018c0.447-0.555,0.836-1.011,1.018-1.728c-0.804,0.612-1.607,1.224-2.411,1.835
				c0.71,0.025,1.415,0.1,2.125,0.125c1.832,0.066,3.202-2.197,2.159-3.762c-0.083-0.125-0.167-0.25-0.25-0.375
				c-0.299,1.14-0.598,2.28-0.897,3.42c0.212-0.128,0.165-0.117-0.143,0.035c0.09-0.032,0.719-0.098,0.227-0.056
				c0.234-0.02,1.098,0.031,0.972,0.012c0.237,0.037,1.133,0.341,0.941,0.248c0.445,0.218,0.058,0.008-0.062-0.163
				c-0.455-0.654,0.003-1.357,0.548-1.755c0.374-0.272-0.499,0.104-0.542,0.109c-0.685,0.071-1.381,0.058-2.068,0.046
				c-1.046-0.019-2.088-0.12-3.134-0.134c0.833,0.833,1.667,1.667,2.5,2.5c0-0.208,0-0.417,0-0.625c0-3.224-5-3.224-5,0
				c0,0.208,0,0.417,0,0.625c0,1.376,1.138,2.482,2.5,2.5c3.266,0.044,9.754,1.175,10.017-3.725
				c0.224-4.174-6.315-5.869-9.278-3.934c-1.087,0.71-1.681,2.245-0.897,3.42c0.083,0.125,0.167,0.25,0.25,0.375
				c0.72-1.254,1.439-2.508,2.159-3.762c-0.71-0.025-1.415-0.1-2.125-0.125c-1.089-0.039-2.145,0.79-2.411,1.835
				c-0.023,0.091-0.046,0.182-0.069,0.273c0.214-0.368,0.428-0.735,0.643-1.103c-0.111,0.109-0.213,0.227-0.305,0.352
				c-0.854,1.061-1.041,2.495,0,3.535C60.368,44.903,62.162,45.081,63.018,44.018L63.018,44.018z"/>
		</g>
	</g>
	<g>
		<g>
			<path fill="#5694BA" d="M63.018,47.893c0.447-0.555,0.836-1.011,1.018-1.728c-0.804,0.612-1.607,1.224-2.411,1.835
				c0.71,0.025,1.415,0.1,2.125,0.125c1.832,0.066,3.202-2.197,2.159-3.762c-0.083-0.125-0.167-0.25-0.25-0.375
				c-0.299,1.14-0.598,2.28-0.897,3.42c0.212-0.128,0.165-0.117-0.143,0.035c0.09-0.032,0.719-0.098,0.227-0.056
				c0.234-0.02,1.098,0.031,0.972,0.012c0.237,0.037,1.133,0.341,0.941,0.248c0.445,0.218,0.058,0.008-0.062-0.163
				c-0.455-0.654,0.003-1.357,0.548-1.755c0.374-0.272-0.499,0.104-0.542,0.109c-0.685,0.071-1.381,0.058-2.068,0.046
				c-1.046-0.019-2.088-0.12-3.134-0.134c0.833,0.833,1.667,1.667,2.5,2.5c0-0.208,0-0.417,0-0.625c0-3.224-5-3.224-5,0
				c0,0.208,0,0.417,0,0.625c0,1.376,1.138,2.482,2.5,2.5c3.266,0.044,9.754,1.175,10.017-3.725
				c0.224-4.174-6.315-5.869-9.278-3.934c-1.087,0.71-1.681,2.245-0.897,3.42c0.083,0.125,0.167,0.25,0.25,0.375
				c0.72-1.254,1.439-2.508,2.159-3.762c-0.71-0.025-1.415-0.1-2.125-0.125c-1.089-0.039-2.145,0.79-2.411,1.835
				c-0.023,0.091-0.046,0.182-0.069,0.273c0.214-0.368,0.428-0.735,0.643-1.103c-0.111,0.109-0.213,0.227-0.305,0.352
				c-0.854,1.061-1.041,2.495,0,3.535C60.368,48.778,62.162,48.956,63.018,47.893L63.018,47.893z"/>
		</g>
	</g>
	<g>
		<g>
			<path fill="#5694BA" d="M63.018,49.768c0.447-0.555,0.836-1.011,1.018-1.728c-0.804,0.612-1.607,1.224-2.411,1.835
				c0.71,0.025,1.415,0.1,2.125,0.125c1.832,0.066,3.202-2.197,2.159-3.762c-0.083-0.125-0.167-0.25-0.25-0.375
				c-0.299,1.14-0.598,2.28-0.897,3.42c0.212-0.128,0.165-0.117-0.143,0.035c0.09-0.032,0.719-0.098,0.227-0.056
				c0.234-0.02,1.098,0.031,0.972,0.012c0.237,0.037,1.133,0.341,0.941,0.248c0.445,0.218,0.058,0.008-0.062-0.163
				c-0.455-0.654,0.003-1.357,0.548-1.755c0.374-0.272-0.499,0.104-0.542,0.109c-0.685,0.071-1.381,0.058-2.068,0.046
				c-1.046-0.019-2.088-0.12-3.134-0.134c0.833,0.833,1.667,1.667,2.5,2.5c0-0.208,0-0.417,0-0.625c0-3.224-5-3.224-5,0
				c0,0.208,0,0.417,0,0.625c0,1.376,1.138,2.482,2.5,2.5c3.266,0.044,9.754,1.175,10.017-3.725
				c0.224-4.174-6.315-5.869-9.278-3.934c-1.087,0.71-1.681,2.245-0.897,3.42c0.083,0.125,0.167,0.25,0.25,0.375
				c0.72-1.254,1.439-2.508,2.159-3.762c-0.71-0.025-1.415-0.1-2.125-0.125c-1.089-0.039-2.145,0.79-2.411,1.835
				c-0.023,0.091-0.046,0.182-0.069,0.273c0.214-0.368,0.428-0.735,0.643-1.103c-0.111,0.109-0.213,0.227-0.305,0.352
				c-0.854,1.061-1.041,2.495,0,3.535C60.368,50.653,62.162,50.831,63.018,49.768L63.018,49.768z"/>
		</g>
	</g>
	<g>
		<g>
			<path fill="#5694BA" d="M63.018,54.268c0.447-0.555,0.836-1.011,1.018-1.728c-0.804,0.612-1.607,1.224-2.411,1.835
				c0.71,0.025,1.415,0.1,2.125,0.125c1.832,0.066,3.202-2.197,2.159-3.762c-0.083-0.125-0.167-0.25-0.25-0.375
				c-0.299,1.14-0.598,2.28-0.897,3.42c0.212-0.128,0.165-0.117-0.143,0.035c0.09-0.032,0.719-0.098,0.227-0.056
				c0.234-0.02,1.098,0.031,0.972,0.012c0.237,0.037,1.133,0.341,0.941,0.248c0.445,0.218,0.058,0.008-0.062-0.163
				c-0.455-0.654,0.003-1.357,0.548-1.755c0.374-0.272-0.499,0.104-0.542,0.109c-0.685,0.071-1.381,0.058-2.068,0.046
				c-1.046-0.019-2.088-0.12-3.134-0.134c0.833,0.833,1.667,1.667,2.5,2.5c0-0.208,0-0.417,0-0.625c0-3.224-5-3.224-5,0
				c0,0.208,0,0.417,0,0.625c0,1.376,1.138,2.482,2.5,2.5c3.266,0.044,9.754,1.175,10.017-3.725
				c0.224-4.174-6.315-5.869-9.278-3.934c-1.087,0.71-1.681,2.245-0.897,3.42c0.083,0.125,0.167,0.25,0.25,0.375
				c0.72-1.254,1.439-2.508,2.159-3.762c-0.71-0.025-1.415-0.1-2.125-0.125c-1.089-0.039-2.145,0.79-2.411,1.835
				c-0.023,0.091-0.046,0.182-0.069,0.273c0.214-0.368,0.428-0.735,0.643-1.103c-0.111,0.109-0.213,0.227-0.305,0.352
				c-0.854,1.061-1.041,2.495,0,3.535C60.368,55.153,62.162,55.331,63.018,54.268L63.018,54.268z"/>
		</g>
	</g>
	<g>
		<g>
			<path fill="#5694BA" d="M63.018,58.268c0.447-0.555,0.836-1.011,1.018-1.728c-0.804,0.612-1.607,1.224-2.411,1.835
				c0.71,0.025,1.415,0.1,2.125,0.125c1.832,0.066,3.202-2.197,2.159-3.762c-0.083-0.125-0.167-0.25-0.25-0.375
				c-0.299,1.14-0.598,2.28-0.897,3.42c0.212-0.128,0.165-0.117-0.143,0.035c0.09-0.032,0.719-0.098,0.227-0.056
				c0.234-0.02,1.098,0.031,0.972,0.012c0.237,0.037,1.133,0.341,0.941,0.248c0.445,0.218,0.058,0.008-0.062-0.163
				c-0.455-0.654,0.003-1.357,0.548-1.755c0.374-0.272-0.499,0.104-0.542,0.109c-0.685,0.071-1.381,0.058-2.068,0.046
				c-1.046-0.019-2.088-0.12-3.134-0.134c0.833,0.833,1.667,1.667,2.5,2.5c0-0.208,0-0.417,0-0.625c0-3.224-5-3.224-5,0
				c0,0.208,0,0.417,0,0.625c0,1.376,1.138,2.482,2.5,2.5c3.266,0.044,9.754,1.175,10.017-3.725
				c0.224-4.174-6.315-5.869-9.278-3.934c-1.087,0.71-1.681,2.245-0.897,3.42c0.083,0.125,0.167,0.25,0.25,0.375
				c0.72-1.254,1.439-2.508,2.159-3.762c-0.71-0.025-1.415-0.1-2.125-0.125c-1.089-0.039-2.145,0.79-2.411,1.835
				c-0.023,0.091-0.046,0.182-0.069,0.273c0.214-0.368,0.428-0.735,0.643-1.103c-0.111,0.109-0.213,0.227-0.305,0.352
				c-0.854,1.061-1.041,2.495,0,3.535C60.368,59.153,62.162,59.331,63.018,58.268L63.018,58.268z"/>
		</g>
	</g>
	<g>
		<g>
			<path fill="#5694BA" d="M63.018,63.018c0.447-0.555,0.836-1.011,1.018-1.728c-0.804,0.612-1.607,1.224-2.411,1.835
				c0.71,0.025,1.415,0.1,2.125,0.125c1.832,0.066,3.202-2.197,2.159-3.762c-0.083-0.125-0.167-0.25-0.25-0.375
				c-0.299,1.14-0.598,2.28-0.897,3.42c0.212-0.128,0.165-0.117-0.143,0.035c0.09-0.032,0.719-0.098,0.227-0.056
				c0.234-0.02,1.098,0.031,0.972,0.012c0.237,0.037,1.133,0.341,0.941,0.248c0.445,0.218,0.058,0.008-0.062-0.163
				c-0.455-0.654,0.003-1.357,0.548-1.755c0.374-0.272-0.499,0.104-0.542,0.109c-0.685,0.071-1.381,0.058-2.068,0.046
				c-1.046-0.019-2.088-0.12-3.134-0.134c0.833,0.833,1.667,1.667,2.5,2.5c0-0.208,0-0.417,0-0.625c0-3.224-5-3.224-5,0
				c0,0.208,0,0.417,0,0.625c0,1.376,1.138,2.482,2.5,2.5c3.266,0.044,9.754,1.175,10.017-3.725
				c0.224-4.174-6.315-5.869-9.278-3.934c-1.087,0.71-1.681,2.245-0.897,3.42c0.083,0.125,0.167,0.25,0.25,0.375
				c0.72-1.254,1.439-2.508,2.159-3.762c-0.71-0.025-1.415-0.1-2.125-0.125c-1.089-0.039-2.145,0.79-2.411,1.835
				c-0.023,0.091-0.046,0.182-0.069,0.273c0.214-0.368,0.428-0.735,0.643-1.103c-0.111,0.109-0.213,0.227-0.305,0.352
				c-0.854,1.061-1.041,2.495,0,3.535C60.368,63.903,62.162,64.081,63.018,63.018L63.018,63.018z"/>
		</g>
	</g>
	<g>
		<g>
			<path fill="#5694BA" d="M63.018,67.643c0.447-0.555,0.836-1.011,1.018-1.728c-0.804,0.612-1.607,1.224-2.411,1.835
				c0.71,0.025,1.415,0.1,2.125,0.125c1.832,0.066,3.202-2.197,2.159-3.762c-0.083-0.125-0.167-0.25-0.25-0.375
				c-0.299,1.14-0.598,2.28-0.897,3.42c0.212-0.128,0.165-0.117-0.143,0.035c0.09-0.032,0.719-0.098,0.227-0.056
				c0.234-0.02,1.098,0.031,0.972,0.012c0.237,0.037,1.133,0.341,0.941,0.248c0.445,0.218,0.058,0.008-0.062-0.163
				c-0.455-0.654,0.003-1.357,0.548-1.755c0.374-0.272-0.499,0.104-0.542,0.109c-0.685,0.071-1.381,0.058-2.068,0.046
				c-1.046-0.019-2.088-0.12-3.134-0.134c0.833,0.833,1.667,1.667,2.5,2.5c0-0.208,0-0.417,0-0.625c0-3.224-5-3.224-5,0
				c0,0.208,0,0.417,0,0.625c0,1.376,1.138,2.482,2.5,2.5c3.266,0.044,9.754,1.175,10.017-3.725
				c0.224-4.174-6.315-5.869-9.278-3.934c-1.087,0.71-1.681,2.245-0.897,3.42c0.083,0.125,0.167,0.25,0.25,0.375
				c0.72-1.254,1.439-2.508,2.159-3.762c-0.71-0.025-1.415-0.1-2.125-0.125c-1.089-0.039-2.145,0.79-2.411,1.835
				c-0.023,0.091-0.046,0.182-0.069,0.273c0.214-0.368,0.428-0.735,0.643-1.103c-0.111,0.109-0.213,0.227-0.305,0.352
				c-0.854,1.061-1.041,2.495,0,3.535C60.368,68.528,62.162,68.706,63.018,67.643L63.018,67.643z"/>
		</g>
	</g>
	<g>
		<g>
			<path fill="#5694BA" d="M63.018,71.518c0.447-0.555,0.836-1.011,1.018-1.728c-0.804,0.612-1.607,1.224-2.411,1.835
				c0.71,0.025,1.415,0.1,2.125,0.125c1.832,0.066,3.202-2.197,2.159-3.762c-0.083-0.125-0.167-0.25-0.25-0.375
				c-0.299,1.14-0.598,2.28-0.897,3.42c0.212-0.128,0.165-0.117-0.143,0.035c0.09-0.032,0.719-0.098,0.227-0.056
				c0.234-0.02,1.098,0.031,0.972,0.012c0.237,0.037,1.133,0.341,0.941,0.248c0.445,0.218,0.058,0.008-0.062-0.163
				c-0.455-0.654,0.003-1.357,0.548-1.755c0.374-0.272-0.499,0.104-0.542,0.109c-0.685,0.071-1.381,0.058-2.068,0.046
				c-1.046-0.019-2.088-0.12-3.134-0.134c0.833,0.833,1.667,1.667,2.5,2.5c0-0.208,0-0.417,0-0.625c0-3.224-5-3.224-5,0
				c0,0.208,0,0.417,0,0.625c0,1.376,1.138,2.482,2.5,2.5c3.266,0.044,9.754,1.175,10.017-3.725
				c0.224-4.174-6.315-5.869-9.278-3.934c-1.087,0.71-1.681,2.245-0.897,3.42c0.083,0.125,0.167,0.25,0.25,0.375
				c0.72-1.254,1.439-2.508,2.159-3.762c-0.71-0.025-1.415-0.1-2.125-0.125c-1.089-0.039-2.145,0.79-2.411,1.835
				c-0.023,0.091-0.046,0.182-0.069,0.273c0.214-0.368,0.428-0.735,0.643-1.103c-0.111,0.109-0.213,0.227-0.305,0.352
				c-0.854,1.061-1.041,2.495,0,3.535C60.368,72.403,62.162,72.581,63.018,71.518L63.018,71.518z"/>
		</g>
	</g>
	<g>
		<g>
			<path fill="#5694BA" d="M63.018,72.393c0.447-0.555,0.836-1.011,1.018-1.728c-0.804,0.612-1.607,1.224-2.411,1.835
				c0.71,0.025,1.415,0.1,2.125,0.125c1.832,0.066,3.202-2.197,2.159-3.762c-0.083-0.125-0.167-0.25-0.25-0.375
				c-0.299,1.14-0.598,2.28-0.897,3.42c0.212-0.128,0.165-0.117-0.143,0.035c0.09-0.032,0.719-0.098,0.227-0.056
				c0.234-0.02,1.098,0.031,0.972,0.012c0.237,0.037,1.133,0.341,0.941,0.248c0.445,0.218,0.058,0.008-0.062-0.163
				c-0.455-0.654,0.003-1.357,0.548-1.755c0.374-0.272-0.499,0.104-0.542,0.109c-0.685,0.071-1.381,0.058-2.068,0.046
				c-1.046-0.019-2.088-0.12-3.134-0.134c0.833,0.833,1.667,1.667,2.5,2.5c0-0.208,0-0.417,0-0.625c0-3.224-5-3.224-5,0
				c0,0.208,0,0.417,0,0.625c0,1.376,1.138,2.482,2.5,2.5c3.266,0.044,9.754,1.175,10.017-3.725
				c0.224-4.174-6.315-5.869-9.278-3.934c-1.087,0.71-1.681,2.245-0.897,3.42c0.083,0.125,0.167,0.25,0.25,0.375
				c0.72-1.254,1.439-2.508,2.159-3.762c-0.71-0.025-1.415-0.1-2.125-0.125c-1.089-0.039-2.145,0.79-2.411,1.835
				c-0.023,0.091-0.046,0.182-0.069,0.273c0.214-0.368,0.428-0.735,0.643-1.103c-0.111,0.109-0.213,0.227-0.305,0.352
				c-0.854,1.061-1.041,2.495,0,3.535C60.368,73.278,62.162,73.456,63.018,72.393L63.018,72.393z"/>
		</g>
	</g>
	<g>
		<g>
			<path fill="#4D85A6" d="M61.579,24.256c0.098-0.223,0.213-0.437,0.339-0.645c0.084-0.14,0.04-0.089,0.216-0.228
				c0.295-0.233,0.366-0.662,0.366-1.009c0-0.864-1.096-1.669-1.881-1.079c-1.228,0.923-2.001,2.253-1.869,3.829
				c0.057,0.679,0.525,1.25,1.25,1.25c0.638,0,1.307-0.57,1.25-1.25c-0.054-0.644,0.078-1.255,0.631-1.671
				c-0.627-0.359-1.254-0.719-1.881-1.079c0,0.042,0,0.083,0,0.125c0.122-0.294,0.244-0.589,0.366-0.884
				c-0.428,0.337-0.729,0.883-0.945,1.378c-0.273,0.625-0.19,1.336,0.448,1.71C60.405,25.018,61.307,24.881,61.579,24.256
				L61.579,24.256z"/>
		</g>
	</g>
	<g>
		<g>
			<path fill="#4D85A6" d="M60.169,22.583c0.621,4.092-0.113,8.601,0.094,12.76c0.239,4.782,0.456,9.453,0.203,14.243
				c-0.214,4.045-0.685,8.071-0.585,12.126c0.086,3.51,1.649,7.944,0.664,11.331c-0.451,1.552,1.961,2.209,2.411,0.665
				c0.833-2.865-0.09-5.935-0.353-8.832c-0.464-5.126,0.041-10.171,0.363-15.291c0.301-4.777,0.091-9.474-0.203-14.243
				c-0.273-4.447,0.481-9.043-0.183-13.425C62.339,20.328,59.931,21.006,60.169,22.583L60.169,22.583z"/>
		</g>
	</g>
	<g>
		<g>
			<path fill="#4D85A6" d="M58.625,26.75c0.247,2.452,0.366,4.911,0.375,7.375c0.006,1.612,2.506,1.612,2.5,0
				c-0.009-2.464-0.128-4.923-0.375-7.375C60.965,25.162,58.463,25.146,58.625,26.75L58.625,26.75z"/>
		</g>
	</g>
	<g>
		<g>
			<path fill="#4D85A6" d="M59.25,25.375c-0.069,5.677-0.874,11.309,0.044,16.958c0.258,1.588,2.667,0.912,2.411-0.665
				c-0.878-5.399-0.022-10.865,0.044-16.292C61.77,23.762,59.27,23.764,59.25,25.375L59.25,25.375z"/>
		</g>
	</g>
	<g>
		<g>
			<path fill="#4D85A6" d="M58.875,37.875c0.459,3.742,0.261,7.494,0.125,11.25c-0.059,1.613,2.442,1.607,2.5,0
				c0.136-3.756,0.334-7.508-0.125-11.25C61.181,36.296,58.679,36.277,58.875,37.875L58.875,37.875z"/>
		</g>
	</g>
	<g>
		<g>
			<path fill="#4D85A6" d="M59.25,44.5c-0.598,4.925-0.92,9.804-0.375,14.75c0.175,1.584,2.677,1.602,2.5,0
				c-0.545-4.946-0.223-9.825,0.375-14.75C61.944,42.902,59.441,42.92,59.25,44.5L59.25,44.5z"/>
		</g>
	</g>
	<g>
		<g>
			<path fill="#4D85A6" d="M58.419,58.542c-0.94,3.729,0.003,7.442,0.081,11.208c0.033,1.61,2.533,1.613,2.5,0
				c-0.072-3.507-1.044-7.074-0.169-10.542C61.225,57.644,58.813,56.98,58.419,58.542L58.419,58.542z"/>
		</g>
	</g>
	<g>
		<g>
			<path fill="#4D85A6" d="M59,68.625c-0.128,1.038-0.241,2.078-0.25,3.125c-0.014,1.613,2.486,1.611,2.5,0
				c0.009-1.047,0.122-2.087,0.25-3.125c0.084-0.678-0.632-1.25-1.25-1.25C59.505,67.375,59.083,67.949,59,68.625L59,68.625z"/>
		</g>
	</g>
	<g>
		<g>
			<path fill="#4D85A6" d="M58.75,71.125c0,0.714,0.026,1.471-0.081,2.167c-0.103,0.673,0.16,1.342,0.873,1.538
				c0.599,0.165,1.435-0.199,1.538-0.873c0.145-0.943,0.169-1.88,0.169-2.833C61.25,69.513,58.75,69.513,58.75,71.125L58.75,71.125z
				"/>
		</g>
	</g>
	<g>
		<g>
			<path fill="#954645" d="M47,27.125c1,7.831,1.046,15.662,1.032,23.55c-0.015,7.905-0.616,15.429,1.388,23.157
				c0.405,1.559,2.816,0.897,2.411-0.665c-2.085-8.042-1.311-16.012-1.295-24.224c0.013-7.315-0.108-14.559-1.035-21.819
				C49.299,25.548,46.796,25.529,47,27.125L47,27.125z"/>
		</g>
	</g>
	<g>
		<g>
			<path fill="#954645" d="M47.829,29.506c0.125-0.25,0.25-0.5,0.375-0.75c-0.776-0.21-1.553-0.42-2.329-0.631
				c0.19,2.214,0.052,4.413,0.25,6.625c0.818-0.111,1.637-0.222,2.456-0.333c-0.311-1.417-0.546-2.849-0.706-4.292
				c-0.144-1.583-2.46-1.635-2.5,0c-0.093,3.813-0.842,7.833,0.669,11.458c0.557,1.334,2.271,1.096,2.456-0.333
				c0.245-1.889,0.171-3.725,0.125-5.625c-0.039-1.613-2.447-1.61-2.5,0c-0.158,4.851-0.355,9.635,0.294,14.458
				c0.189,1.399,2.542,1.062,2.456-0.333c-0.205-3.3-0.172-6.48-1.419-9.583c-0.597-1.484-2.706-0.942-2.411,0.665
				c0.643,3.499,0.845,7.001,1.081,10.542c0.09,1.362,2.094,1.759,2.456,0.333c0.591-2.333,0.848-4.554,0.919-6.958
				c-0.833,0-1.667,0-2.5,0c0.09,4.034,0.588,8.028-0.081,12.042c0.762-0.099,1.523-0.199,2.285-0.298
				c-0.96-1.893-0.951-3.965-1.204-5.994c-0.833,0-1.667,0-2.5,0c0.426,3.281,0.552,6.583,0.875,9.875
				c0.818-0.111,1.637-0.222,2.456-0.333c-0.469-2.82-1.159-5.548-1.331-8.417c-0.818,0.111-1.637,0.222-2.456,0.333
				c0.516,3.809,0.558,7.583,0.456,11.417c0.833,0,1.667,0,2.5,0c-0.122-1.42-0.128-2.83-0.25-4.25c-0.135-1.582-2.548-1.631-2.5,0
				c0.111,3.762,0.639,7.488,0.75,11.25c0.833,0,1.667,0,2.5,0c-0.162-2.822-0.355-5.561,0-8.375
				c-0.818,0.111-1.637,0.222-2.456,0.333c0.8,2.979,1.178,6.376,0.125,9.335c0.697-0.184,1.393-0.368,2.089-0.551
				c-0.208-0.208-0.417-0.417-0.625-0.625c-1.013-1.013-2.665,0.28-1.963,1.515c0.399,0.703,0.7,1.116,1.195,1.753
				c0.294-0.711,0.589-1.422,0.884-2.134c-0.123-0.026-0.246-0.053-0.369-0.079c-0.321,0.761-0.642,1.523-0.963,2.285
				c0.996,0.275,1.42,0.332,2.458,0.419c0.637,0.054,1.307-0.611,1.25-1.25c-0.083-0.939-0.364-2.393-0.375-3.25
				c-0.021-1.611-2.521-1.613-2.5,0c0.017,1.33,0.247,1.807,0.375,3.25c0.417-0.417,0.833-0.833,1.25-1.25
				c-0.598-0.11-1.195-0.22-1.792-0.331c-1.339-0.371-2.264,1.657-0.963,2.285c0.599,0.289,0.963,0.383,1.631,0.421
				c1.212,0.069,1.487-1.358,0.884-2.134c-0.268-0.416-0.536-0.832-0.805-1.247c-0.654,0.505-1.309,1.01-1.963,1.515
				c0.208,0.208,0.417,0.417,0.625,0.625c0.702,0.703,1.781,0.316,2.089-0.551c1.198-3.367,0.786-7.269-0.125-10.665
				C48.062,60.201,46.167,60.683,46,62c-0.355,2.814-0.162,5.553,0,8.375c0.092,1.598,2.548,1.62,2.5,0
				c-0.111-3.762-0.639-7.488-0.75-11.25c-0.833,0-1.667,0-2.5,0c0.122,1.42,0.128,2.83,0.25,4.25c0.136,1.586,2.456,1.632,2.5,0
				c0.109-4.064,0.001-8.053-0.544-12.083c-0.19-1.4-2.539-1.061-2.456,0.333c0.185,3.084,0.914,6.041,1.419,9.083
				c0.231,1.386,2.593,1.066,2.456-0.333C48.552,57.083,48.426,53.781,48,50.5c-0.205-1.573-2.7-1.6-2.5,0
				c0.322,2.578,0.358,4.915,1.546,7.256c0.465,0.918,2.107,0.768,2.285-0.298c0.707-4.247,0.265-8.429,0.169-12.708
				c-0.036-1.613-2.452-1.61-2.5,0c-0.063,2.146-0.303,4.21-0.831,6.292c0.819,0.111,1.637,0.222,2.456,0.333
				c-0.25-3.762-0.488-7.495-1.169-11.208c-0.804,0.222-1.607,0.443-2.411,0.665c1.164,2.892,1.141,5.859,1.331,8.917
				c0.818-0.111,1.637-0.222,2.456-0.333c-0.619-4.591-0.356-9.182-0.206-13.792c-0.833,0-1.667,0-2.5,0
				c0.046,1.9,0.12,3.736-0.125,5.625c0.818-0.111,1.637-0.222,2.456-0.333c-1.418-3.4-0.667-7.215-0.581-10.792
				c-0.833,0-1.667,0-2.5,0c0.153,1.69,0.462,3.29,0.794,4.958c0.274,1.375,2.582,1.073,2.456-0.333
				c-0.198-2.212-0.06-4.411-0.25-6.625c-0.097-1.134-1.726-1.839-2.329-0.631c-0.125,0.25-0.25,0.5-0.375,0.75
				C44.952,29.682,47.108,30.948,47.829,29.506L47.829,29.506z"/>
		</g>
	</g>
	<g opacity="0.2">
		<g>
			<path d="M34.131,16.704c0.514-0.378,1.056-0.712,1.625-1c1.318-0.735,0.363-2.505-0.963-2.285c-0.25,0.042-0.5,0.083-0.75,0.125
				c-1.217,0.203-1.177,2.175,0,2.411c0.417,0.083,0.833,0.167,1.25,0.25c-0.249-0.612-0.498-1.225-0.747-1.836
				c-1.065,2.224-0.573,4.928-1.625,7.125c0.776,0.21,1.553,0.42,2.329,0.631c-0.105-1.441-0.211-2.883-0.316-4.324
				c-0.011-0.149,1.835-2.291,2.272-3.343c-0.804,0-1.607,0-2.411,0c0.668,4.058-0.762,8.8-1.003,12.931
				c-0.32,5.504-0.306,10.994-0.179,16.504c0.117,5.063,0.295,10.124,0.246,15.189c-0.023,2.35-0.077,4.686,0.002,7.035
				c0.055,1.625,1.491,5.424-0.36,5.634c0.417,0.417,0.833,0.833,1.25,1.25c0.078-0.917,0.161-1.834,0.25-2.75
				c-0.818,0.111-1.637,0.222-2.456,0.333c0.069,0.722,0.137,1.445,0.206,2.167c0.818-0.111,1.637-0.222,2.456-0.333
				c-1.452-3.607-0.58-8.174-0.393-11.964c0.26-5.282,0.392-10.514,0.09-15.798c-0.282-4.942-0.037-9.705,0.057-14.648
				c0.096-5.075-2.374-10.543,1.924-14.623c-0.711-0.294-1.422-0.589-2.134-0.884c0.095,3.265-0.27,6.49-0.375,9.75
				c-0.054,1.655,2.301,1.547,2.5,0c0.29-2.257,0.367-4.476,0.375-6.75c-0.833,0-1.667,0-2.5,0
				c-0.03,9.611-0.426,19.216-0.295,28.828c0.124,9.034,1.133,18.031,1.42,27.047c0.417-0.417,0.833-0.833,1.25-1.25
				c-0.364-0.003-2.351,0.24-2.046-0.244c0.863-1.368-1.301-2.622-2.158-1.262c-2.062,3.271,1.6,3.984,4.204,4.006
				c0.665,0.005,1.271-0.573,1.25-1.25c-0.287-9.016-1.217-18.016-1.42-27.047c-0.216-9.607,0.266-19.22,0.295-28.828
				c0.005-1.612-2.495-1.612-2.5,0c-0.008,2.274-0.085,4.493-0.375,6.75c0.833,0,1.667,0,2.5,0c0.105-3.26,0.47-6.485,0.375-9.75
				c-0.032-1.098-1.333-1.644-2.134-0.884c-2.707,2.569-3.352,5.553-3.29,9.191c0.041,2.404,0.525,4.794,0.633,7.199
				c0.17,3.788-0.505,7.566-0.334,11.368c0.259,5.773,0.579,11.408,0.281,17.197c-0.234,4.555-1.369,10.144,0.388,14.51
				c0.528,1.312,2.329,1.12,2.456-0.333c0.13-1.491,0.123-1.379-0.294-2.833c-0.41-1.424-2.328-1.027-2.456,0.333
				c-0.089,0.916-0.172,1.833-0.25,2.75c-0.055,0.625,0.613,1.322,1.25,1.25c2.658-0.301,3.488-0.7,3.509-3.662
				c0.019-2.624-0.706-5.328-0.712-8.01c-0.008-3.671,0.078-7.335,0.01-11.007c-0.128-6.896-0.434-13.78-0.188-20.677
				c0.198-5.586,1.998-11.572,1.087-17.102c-0.227-1.375-2-0.991-2.411,0c-0.6,0.709-1.2,1.419-1.8,2.128
				c-0.359,0.209-0.65,0.649-0.619,1.079c0.125,1.708,0.25,3.417,0.375,5.125c0.083,1.131,1.748,1.845,2.329,0.631
				c1.065-2.224,0.573-4.928,1.625-7.125c0.325-0.677,0.101-1.667-0.747-1.836c-0.417-0.083-0.833-0.167-1.25-0.25
				c0,0.804,0,1.607,0,2.411c0.25-0.042,0.5-0.083,0.75-0.125c-0.321-0.762-0.643-1.523-0.963-2.285
				c-0.569,0.288-1.111,0.621-1.625,1C31.54,15.44,32.789,17.607,34.131,16.704L34.131,16.704z"/>
		</g>
	</g>
</g>
<g id="Layer_1">
	<path fill="none" stroke="#03787F" stroke-miterlimit="10" d="M44.75,71.75c0,3.452-2.798,6.25-6.25,6.25l0,0
		c-3.452,0-6.25-2.798-6.25-6.25v-55.5c0-3.452,2.798-3.25,6.25-3.25l0,0c3.452,0,6.25-0.202,6.25,3.25V71.75z"/>
	<path fill="none" stroke="#4165B0" stroke-miterlimit="10" d="M71.25,72.531C71.25,75.551,68.452,78,65,78l0,0
		c-3.452,0-6.25-2.449-6.25-5.469V23.969c0-3.02,2.798-3.219,6.25-3.219l0,0c3.452,0,6.25,0.199,6.25,3.219V72.531z"/>
	<path fill="none" stroke="#8A451F" stroke-miterlimit="10" d="M58,73.037C58,75.778,55.202,78,51.75,78l0,0
		c-3.452,0-6.25-2.222-6.25-4.963V28.963c0-2.741,2.798-2.963,6.25-2.963l0,0c3.452,0,6.25,0.222,6.25,2.963V73.037z"/>
</g>
<g id="Layer_4">
	<g>
		<g>
			<path fill="#A97C50" d="M33.571,78.994c2.175-1.237,6.088-0.299,8.43,0.064c2.365,0.367,3.381-3.247,0.997-3.616
				c-3.459-0.536-8.098-1.519-11.32,0.314C29.577,76.951,31.466,80.191,33.571,78.994L33.571,78.994z"/>
		</g>
	</g>
	<g>
		<g>
			<path fill="#A97C50" d="M35.076,78.201c0.69-0.69,2.427-0.578,3.325-0.606c1.316-0.042,2.674,0.012,3.976,0.213
				c2.365,0.366,3.381-3.248,0.997-3.616c-3.194-0.494-8.416-1.177-10.949,1.357C30.713,77.261,33.365,79.912,35.076,78.201
				L35.076,78.201z"/>
		</g>
	</g>
	<g>
		<g>
			<path fill="#A97C50" d="M42.126,78.433c2.694,0.819,5.518,0.16,8.25,0.625c2.365,0.403,3.377-3.21,0.997-3.616
				c-2.701-0.46-5.63,0.171-8.25-0.625C40.804,74.112,39.819,77.731,42.126,78.433L42.126,78.433z"/>
		</g>
	</g>
	<g>
		<g>
			<path fill="#A97C50" d="M44.249,77.808c3.251-0.924,6.911,0.078,10.128,0.75c2.359,0.493,3.364-3.122,0.997-3.616
				c-3.891-0.812-8.194-1.866-12.122-0.75C40.929,74.852,41.917,78.47,44.249,77.808L44.249,77.808z"/>
		</g>
	</g>
	<g>
		<g>
			<path fill="#A97C50" d="M55.75,78.375c1.229-0.11,2.525-0.266,3.751-0.067c1.008,0.163,2.014-0.246,2.307-1.31
				c0.249-0.904-0.299-2.143-1.31-2.307c-1.598-0.258-3.143-0.211-4.749-0.067c-1.018,0.091-1.875,0.784-1.875,1.875
				C53.875,77.453,54.73,78.467,55.75,78.375L55.75,78.375z"/>
		</g>
	</g>
	<g>
		<g>
			<path fill="#A97C50" d="M53.25,77.75c1.253-0.018,2.496-0.223,3.75-0.125c1.021,0.08,1.875-0.913,1.875-1.875
				c0-1.082-0.856-1.795-1.875-1.875c-1.254-0.098-2.497,0.107-3.75,0.125C50.834,74.035,50.831,77.785,53.25,77.75L53.25,77.75z"/>
		</g>
	</g>
	<g>
		<g>
			<path fill="#A97C50" d="M55.679,75.756c-1.195,0.843-2.234,0.559-3.555,0.186c0,1.206,0,2.411,0,3.616
				c1.414-0.244,2.936-0.718,4.378-0.5c-0.149-1.143-0.298-2.285-0.448-3.427c-1.431,0.739-2.985,0.809-4.554,0.994
				c-2.338,0.276-2.479,3.729,0,3.75c2.132,0.018,4.185-0.436,6.259-0.884c2.294-0.497,4.677-0.494,6.99-0.933
				c2.374-0.451,1.366-4.064-0.997-3.616c-2.048,0.389-4.127,0.405-6.175,0.767c-2.042,0.361-3.983,0.934-6.076,0.917
				c0,1.25,0,2.5,0,3.75c2.266-0.267,4.389-0.443,6.446-1.506c1.353-0.699,1.172-3.182-0.448-3.427
				c-2.191-0.331-4.212,0.127-6.372,0.5c-1.905,0.329-1.677,3.143,0,3.616c2.242,0.633,4.457,0.838,6.445-0.564
				C59.53,77.612,57.66,74.358,55.679,75.756L55.679,75.756z"/>
		</g>
	</g>
	<g>
		<g>
			<path fill="#A97C50" d="M59.499,78.183C61.647,77.769,63.827,77.886,66,78c2.418,0.126,2.405-3.624,0-3.75
				c-2.529-0.132-5-0.165-7.499,0.317C56.128,75.024,57.136,78.639,59.499,78.183L59.499,78.183z"/>
		</g>
	</g>
	<g>
		<g>
			<path fill="#A97C50" d="M58,78c3.252,0.018,6.498,0.232,9.75,0.25c2.419,0.014,2.417-3.736,0-3.75
				c-3.252-0.018-6.498-0.232-9.75-0.25C55.581,74.236,55.583,77.986,58,78L58,78z"/>
		</g>
	</g>
	<g>
		<g>
			<path fill="#A97C50" d="M64.626,79.183c2.298,0.397,4.643-0.587,6.875,0c2.341,0.615,3.334-3.002,0.997-3.616
				c-1.097-0.289-2.17-0.35-3.296-0.247c-1.177,0.108-2.393,0.452-3.579,0.247C63.259,75.158,62.247,78.772,64.626,79.183
				L64.626,79.183z"/>
		</g>
	</g>
	<g>
		<g>
			<path fill="#A97C50" d="M67.374,77.933c1.549-0.6,3.156-0.454,4.753-0.125c2.36,0.485,3.365-3.129,0.997-3.616
				c-2.212-0.455-4.591-0.709-6.747,0.125c-0.952,0.369-1.601,1.246-1.31,2.307C65.317,77.534,66.419,78.302,67.374,77.933
				L67.374,77.933z"/>
		</g>
	</g>
	<g>
		<g>
			<path fill="#A97C50" d="M71.501,77.683c1.903,0.319,3.881-0.054,5.75,0.375c2.354,0.54,3.354-3.076,0.997-3.616
				c-1.917-0.439-3.84-0.055-5.75-0.375c-1.007-0.169-2.015,0.25-2.307,1.31C69.942,76.285,70.492,77.514,71.501,77.683
				L71.501,77.683z"/>
		</g>
	</g>
	<g>
		<g>
			<path fill="#A97C50" d="M76.375,77.625c0.632-0.001,1.255-0.052,1.874-0.192c0.997-0.226,1.571-1.356,1.31-2.307
				c-0.28-1.019-1.311-1.535-2.307-1.31c-0.582,0.132,0.352-0.006-0.189,0.042c-0.228,0.021-0.459,0.015-0.688,0.016
				c-1.022,0.001-1.875,0.852-1.875,1.875C74.5,76.771,75.353,77.626,76.375,77.625L76.375,77.625z"/>
		</g>
	</g>
	<g>
		<g>
			<path fill="#A97C50" d="M76.25,77.75c0.062,0.375,0.062,0.75,0,1.125c0.791-0.603,1.583-1.206,2.374-1.808
				c-2.322-0.771-4.639-0.554-7.034-0.279c-3.372,0.386-6.716,0.031-10.09-0.163c-2.417-0.139-2.404,3.612,0,3.75
				c2.74,0.157,5.485,0.442,8.231,0.345c2.675-0.095,5.266-0.911,7.895-0.037c1.239,0.412,2.278-0.661,2.374-1.808
				c0.062-0.375,0.062-0.75,0-1.125C79.801,75.358,76.049,75.339,76.25,77.75L76.25,77.75z"/>
		</g>
	</g>
	<g>
		<g>
			<path fill="#A97C50" d="M53.125,80.875c2.503,0.089,4.997-0.214,7.5-0.125c2.419,0.085,2.411-3.665,0-3.75
				c-2.503-0.089-4.997,0.214-7.5,0.125C50.706,77.04,50.714,80.79,53.125,80.875L53.125,80.875z"/>
		</g>
	</g>
	<g>
		<g>
			<path fill="#A97C50" d="M30.501,79.683c2.961,0.726,5.832-0.139,8.838,0.103c3.65,0.293,7.429-0.172,11.037,0.397
				c2.365,0.373,3.38-3.241,0.997-3.616c-3.213-0.506-6.391-0.168-9.624-0.317c-1.572-0.072-3.124-0.296-4.7-0.332
				c-1.927-0.044-3.583,0.631-5.551,0.149C29.15,75.491,28.154,79.107,30.501,79.683L30.501,79.683z"/>
		</g>
	</g>
	<g>
		<g>
			<path fill="#A97C50" d="M29.375,80.875c3.119,0.034,6.202-0.323,9.307-0.557c3.46-0.261,6.639,0.055,10.068,0.182
				c2.419,0.09,2.411-3.661,0-3.75c-3.043-0.113-5.666-0.522-8.75-0.25c-3.521,0.311-7.088,0.663-10.625,0.625
				C26.956,77.099,26.958,80.849,29.375,80.875L29.375,80.875z"/>
		</g>
	</g>
	<g>
		<g>
			<path fill="#A97C50" d="M26.251,76.442c-0.208,0.042-0.417,0.083-0.625,0.125c-2.244,0.449-1.439,3.461,0.499,3.683
				c0.167,0.02,0.334,0.039,0.501,0.058c0-1.206,0-2.411,0-3.616c-0.294,0.004-0.586-0.018-0.876-0.067
				c0.603,0.791,1.206,1.583,1.808,2.374c0.244-1.076,0.313-2.147,0.317-3.249c-0.791,0.603-1.583,1.206-2.374,1.808
				c2.799,0.475,5.546,0.556,8.374,0.317c2.391-0.202,2.411-3.954,0-3.75c-2.474,0.209-4.922,0.233-7.376-0.183
				c-1.188-0.201-2.369,0.498-2.374,1.808c-0.003,0.769-0.012,1.499-0.183,2.251c-0.293,1.292,0.575,2.227,1.808,2.374
				c0.686,0.082,1.195,0.094,1.874-0.067c1.702-0.405,1.884-3.356,0-3.616c-0.5-0.069-0.998-0.135-1.499-0.192
				c0.166,1.228,0.333,2.456,0.499,3.683c0.208-0.042,0.417-0.083,0.625-0.125C29.619,79.584,28.613,75.97,26.251,76.442
				L26.251,76.442z"/>
		</g>
	</g>
	<g>
		<g>
			<path fill="#9A7148" d="M26.751,76.317c-0.321,0.119-0.642,0.194-0.967,0.299c-1.321,0.429,0.384,0.134,0.09,0.134
				c0.315,1.165,0.631,2.329,0.946,3.494c2.104-1.356,4.685-1.674,6.75-3.125c1.962-1.378,0.091-4.632-1.893-3.238
				c-2.056,1.444-4.641,1.766-6.75,3.125c-1.537,0.991-0.976,3.494,0.946,3.494c0.655,0,1.271-0.344,1.874-0.567
				C29.996,79.101,29.024,75.476,26.751,76.317L26.751,76.317z"/>
		</g>
	</g>
	<g>
		<g>
			<path fill="#9A7148" d="M28.875,77c-0.139-1.363-0.862-2.157-2.054-2.744c-0.149,1.143-0.298,2.285-0.448,3.427
				c0.903-0.26,1.71-0.376,2.628-0.125c2.336,0.639,3.327-2.979,0.997-3.616c-1.552-0.425-3.087-0.316-4.622,0.125
				c-1.472,0.423-1.957,2.684-0.448,3.427c0.155,0.077,0.311,0.154,0.463,0.235c0.049,0.03,0.099,0.06,0.148,0.089
				c-0.273-0.167-0.412-0.439-0.416-0.818c0.104,1.017,0.774,1.875,1.875,1.875C27.943,78.875,28.979,78.019,28.875,77L28.875,77z"
				/>
		</g>
	</g>
	<g>
		<g>
			<path fill="#9A7148" d="M27.75,79.625c0,0.198,0,0.395,0,0.593c0,0.806,1.25,0.806,1.25,0c0,0.714,3.153-0.426,3.96-0.635
				c2.276-0.59,4.552-1.179,6.828-1.768c4-1.035,7.997-2.08,12.003-3.087c0.781-0.196,0.45-1.402-0.332-1.205
				c-7.762,1.952-15.503,3.991-23.25,6c-0.269,0.069-0.459,0.328-0.459,0.603c0,0.031,0,0.062,0,0.093c0,0.806,1.25,0.806,1.25,0
				c0-0.198,0-0.395,0-0.593C29,78.819,27.75,78.819,27.75,79.625L27.75,79.625z"/>
		</g>
	</g>
	<g>
		<g>
			<path fill="#9A7148" d="M34.041,75.603c0.54-0.135,1.08-0.264,1.625-0.375c0.79-0.161,0.455-1.366-0.332-1.205
				c-0.545,0.111-1.085,0.24-1.625,0.375C32.927,74.593,33.259,75.798,34.041,75.603L34.041,75.603z"/>
		</g>
	</g>
	<g>
		<g>
			<path fill="#9A7148" d="M28.817,80.067c1.775-1.634,4.436-1.958,6.724-2.339c0.794-0.132,0.456-1.336-0.332-1.205
				c-2.541,0.423-5.311,0.851-7.276,2.661C27.339,79.73,28.225,80.612,28.817,80.067L28.817,80.067z"/>
		</g>
	</g>
	<g>
		<g>
			<path fill="#9A7148" d="M34.041,77.478c0.97-0.164,1.909-0.444,2.875-0.625c-0.111-0.402-0.221-0.803-0.332-1.205
				c-0.644,0.346-1.283,0.346-1.918,0c0,0.402,0,0.803,0,1.205c0.271-0.174,0.484-0.103,0.642,0.214
				c0.147-0.355,0.294-0.711,0.442-1.067c0.018,0.702-0.351,0.993-1.106,0.874c-0.436,0.285-1.118,0.37-1.623,0.48
				c-0.806,0.177-1.536,0.372-2.211,0.856c-0.479,0.343-0.35,1.171,0.315,1.165c2.509-0.026,4.643-1.738,7.041-2.272
				c0.707-0.157,0.522-1.21-0.166-1.228c-0.532-0.256-0.504-0.264,0.084-0.022c0.055-0.409,0.111-0.818,0.166-1.228
				c-0.563,0.104-1.091,0.027-1.584-0.228c-0.055,0.409-0.111,0.818-0.166,1.228c0.697-0.117,1.342,0.072,1.933,0.567
				c0.042-0.327,0.084-0.654,0.126-0.981c-0.353,0.055-0.707,0.11-1.06,0.165c0.105,0.388,0.21,0.776,0.315,1.165
				c0.876-0.457,1.581-0.668,2.56-0.54c-0.147-0.355-0.294-0.711-0.442-1.067c-0.478,0.23-0.956,0.461-1.433,0.692
				c0.147,0.355,0.294,0.711,0.442,1.067c0.598-0.414,1.242-0.603,1.933-0.567c-0.055-0.409-0.111-0.818-0.166-1.228
				c-0.648,0.304-1.288,0.192-1.919-0.338c-0.125,0.306-0.249,0.612-0.374,0.918c0.911-0.142,1.801-0.02,2.709,0.022
				c0.806,0.038,0.802-1.212,0-1.25c-1.043-0.049-2.008-0.139-3.041,0.022c-0.382,0.059-0.592,0.611-0.374,0.918
				c0.854,1.2,1.957,1.328,3.331,0.912c0.662-0.2,0.556-1.252-0.166-1.228c-1.1,0.037-1.984,0.187-2.817,0.933
				c-0.39,0.349-0.099,1.114,0.442,1.067c0.977-0.086,1.664-0.302,2.317-1.058c0.383-0.443,0.101-0.996-0.442-1.067
				c-1.195-0.158-2.139,0.162-3.19,0.71c-0.601,0.313-0.253,1.108,0.315,1.165c0.657,0.065,1.091-0.074,1.69-0.335
				c0.351-0.153,0.417-0.744,0.126-0.981c-0.87-0.712-1.682-0.998-2.817-0.933c-0.728,0.042-0.821,0.979-0.166,1.228
				c0.685,0.26,1.198,0.326,1.916,0.272c0.72-0.054,0.831-0.979,0.166-1.228c-2.864-1.074-3.587,2.399-0.416,2.478
				c-0.055-0.409-0.111-0.818-0.166-1.228c-2.275,0.507-4.351,2.203-6.709,2.228c0.105,0.388,0.21,0.776,0.315,1.165
				c1.423-1.021,3.325-0.679,4.626-1.973c0.485-0.482,0.726-1.462-0.039-1.796c-1.477-0.645-2.49,1.502-0.278,1.729
				c0.545,0.056,0.825-0.72,0.442-1.067c-0.672-0.609-0.954-0.758-1.858-0.536c-0.661,0.163-0.526,0.988,0,1.205
				c0.901,0.373,1.673,0.331,2.582,0c0.759-0.276,0.462-1.354-0.332-1.205c-0.966,0.181-1.905,0.461-2.875,0.625
				C32.915,76.406,33.253,77.61,34.041,77.478L34.041,77.478z"/>
		</g>
	</g>
	<g>
		<g>
			<path fill="#9A7148" d="M40.166,76.022c-1.253-0.369-2.485-0.111-3.763-0.086c-0.505,0.01-0.996-0.135-1.505-0.126
				c-0.06,0-0.12,0-0.18,0c0.191,0.227,0.374,0.212,0.548-0.044c0.233-0.027,0.47,0.026,0.693,0.087c0-0.402,0-0.803,0-1.205
				c-0.287,0.056-0.529,0.158-0.774,0.313c-0.679,0.43-0.052,1.512,0.631,1.079c0.142-0.109,0.301-0.171,0.476-0.187
				c0.625-0.122,0.57-1.05,0-1.205c-0.58-0.158-1.665-0.307-2.107,0.251c-0.325,0.41-0.833,1.405-0.274,1.858
				c0.543,0.44,1.333,0.297,1.994,0.391c1.322,0.188,2.618-0.307,3.93,0.08C40.609,77.456,40.938,76.25,40.166,76.022L40.166,76.022
				z"/>
		</g>
	</g>
	<g>
		<g>
			<path fill="#9A7148" d="M41.192,76.942c0.657-0.728,1.854-0.919,2.767-1.123c1-0.222,2.021-0.354,3.041-0.444
				c0.691-0.061,0.865-1.008,0.166-1.228c-1.891-0.594-3.756,0.286-5.666,0.228c0.055,0.409,0.111,0.818,0.166,1.228
				c0.709-0.209,1.316-0.304,2.043-0.125c0.783,0.193,1.114-1.012,0.332-1.205c-0.931-0.23-1.794-0.145-2.707,0.125
				c-0.685,0.202-0.54,1.206,0.166,1.228c1.771,0.054,3.6-0.817,5.334-0.272c0.055-0.409,0.111-0.818,0.166-1.228
				c-2.036,0.179-5.222,0.303-6.692,1.933C39.77,76.655,40.651,77.542,41.192,76.942L41.192,76.942z"/>
		</g>
	</g>
</g>
<g id="Layer_5">
	<rect x="24.25" y="74" fill="none" stroke="#8B5E3C" stroke-miterlimit="10" width="55.5" height="6.5"/>
</g>
</svg>
