<?xml version="1.0" encoding="utf-8"?>
<!-- Generator: Adobe Illustrator 16.0.4, SVG Export Plug-In . SVG Version: 6.00 Build 0)  -->
<!DOCTYPE svg PUBLIC "-//W3C//DTD SVG 1.1//EN" "http://www.w3.org/Graphics/SVG/1.1/DTD/svg11.dtd">
<svg version="1.1" xmlns="http://www.w3.org/2000/svg" xmlns:xlink="http://www.w3.org/1999/xlink" x="0px" y="0px" width="250px"
	 height="133px" viewBox="0 0 250 133" enable-background="new 0 0 250 133" xml:space="preserve">
<g id="Layer_1" display="none">
</g>
<g id="Layer_7" display="none">
</g>
<g id="Layer_3">
</g>
<g id="Layer_6">
	<g>
		<g>
			<polyline stroke="#BCBEC0" stroke-width="3" stroke-linecap="round" stroke-linejoin="round" stroke-miterlimit="10" points="
				70.154,129.52 1.609,3.223 101.12,26.769 151.096,117.459 			"/>
			<polygon fill="#FFFFFF" stroke="#FFFFFF" stroke-width="3" stroke-miterlimit="10" points="143.406,113.603 98.344,30.578 
				12.327,11.328 73.766,123.503 			"/>
			
				<polygon fill="none" stroke="#BCBEC0" stroke-width="3" stroke-linecap="round" stroke-linejoin="round" stroke-miterlimit="10" points="
				244.264,104.831 73.35,131.613 70.154,129.52 247.49,101.732 			"/>
			
				<polygon fill="none" stroke="#D1D3D4" stroke-width="3" stroke-linecap="round" stroke-linejoin="round" stroke-miterlimit="10" points="
				244.511,104.792 166.871,116.927 165.326,114.606 247.737,101.693 			"/>
		</g>
		<g id="LCqSF4_2_">
			<g>
				<path fill-rule="evenodd" clip-rule="evenodd" d="M84.984,66.191c0.314,0.894,0.511,1.605,0.811,2.277
					c0.553,1.242,1.018,1.562,1.36,0.816c0.309-0.674,0.666-1.257,0.986-1.85c2.851,3.994,2.885,3.986,2.695-0.396
					c0.476,0.354,0.954,0.731,1.414,1.049c0.329,0.226,0.644,0.383,0.956,0.566c-0.151-0.656-0.297-1.32-0.462-1.996
					c-0.069-0.281-0.175-0.572-0.262-0.855c1.198-0.586,2.429,0.735,3.357,3.721c0.52,1.673,0.916,3.493,1.076,5.018
					c0.383,3.643-0.033,6.496-1.144,8.604c-0.381,0.723-1.167,1.203-1.88,1.033c-2.916-0.691-6.135-3.477-9.21-9.146
					c-0.906-1.671-1.56-3.773-1.954-5.631C82.028,66.107,82.657,65.504,84.984,66.191z"/>
				<path fill-rule="evenodd" clip-rule="evenodd" d="M88.084,61.861c1.904-0.121,3.223-0.766,5.349,2.74
					c-0.671,0.02-1.255,0.036-1.899,0.053c0.404,1.057,0.701,1.83,1.065,2.781c-0.854-0.529-1.632-1.014-2.434-1.51
					c0.104,1.359,0.187,2.447,0.296,3.885c-0.828-1.221-1.505-2.217-2.404-3.542c-0.527,0.59-1.115,1.245-1.786,1.996
					c-0.317-1.063-0.596-1.995-0.981-3.286c-1.044-0.094-2.067-0.186-3.295-0.297c0.464-3.854,2.796-3.557,4.973-2.736
					c0.158-1.789,0.279-3.449,0.477-5.001c0.019-0.153,0.497,0.328,0.881,0.601C88.248,58.936,88.181,60.127,88.084,61.861z"/>
			</g>
		</g>
		<path fill-rule="evenodd" clip-rule="evenodd" fill="#939598" d="M115.625,92.77c0.018,0.197-0.193,0.379-0.472,0.404
			L82.404,96.16c-0.279,0.025-0.52-0.114-0.538-0.312l0,0c-0.018-0.198,0.193-0.379,0.472-0.404l32.75-2.986
			C115.367,92.432,115.607,92.57,115.625,92.77L115.625,92.77z"/>
		<path fill-rule="evenodd" clip-rule="evenodd" fill="#58595B" d="M106.333,93.608c0.018,0.198-0.13,0.374-0.333,0.392
			l-23.734,2.164c-0.202,0.019-0.38-0.127-0.398-0.324l0,0c-0.018-0.198,0.131-0.373,0.333-0.393l23.734-2.164
			C106.137,93.266,106.315,93.41,106.333,93.608L106.333,93.608z"/>
		<path opacity="0.1" d="M70.914,124.75L8.247,8.084l90.666,20.332C98.913,28.416,67.581,62.084,70.914,124.75z"/>
	</g>
</g>
<g id="Layer_5">
</g>
<g id="Layer_10">
</g>
</svg>
