<?xml version="1.0" encoding="utf-8"?>
<!-- Generator: Adobe Illustrator 16.0.4, SVG Export Plug-In . SVG Version: 6.00 Build 0)  -->
<!DOCTYPE svg PUBLIC "-//W3C//DTD SVG 1.1//EN" "http://www.w3.org/Graphics/SVG/1.1/DTD/svg11.dtd">
<svg version="1.1" xmlns="http://www.w3.org/2000/svg" xmlns:xlink="http://www.w3.org/1999/xlink" x="0px" y="0px" width="112px"
	 height="180.5px" viewBox="0 0 112 180.5" enable-background="new 0 0 112 180.5" xml:space="preserve">
<g id="Layer_1" display="none">
</g>
<g id="Layer_7" display="none">
</g>
<g id="Layer_3">
</g>
<g id="Layer_6">
</g>
<g id="Layer_5">
</g>
<g id="Layer_10">
	<g>
		<path fill-rule="evenodd" clip-rule="evenodd" fill="none" stroke="#3D3D3E" stroke-width="6" stroke-miterlimit="10" d="
			M28.687,67.31c0,0-4.146,17.339-16.629,37.935c-10,16.5-25.5,85.5,44,69.5s15-49.5,35-71.5c27.245-29.969,9.5-57,9.5-57"/>
		<g>
			<g>
				<g>
					<path fill="#4A4A4C" d="M28.484,30.723c5.172-1.279,10.519-1.376,15.759-2.279c3.188-0.551,8.071-1.35,9.536-4.721
						c0.658-1.514-0.053-4-2.159-3.762c-4.964,0.562-9.7,1.865-14.501,3.201c-3.102,0.863-1.783,5.688,1.329,4.821
						c4.349-1.21,8.671-2.513,13.172-3.022c-0.72-1.254-1.439-2.508-2.159-3.762c-0.938,2.158-6.314,2.391-8.344,2.726
						c-4.669,0.77-9.344,0.835-13.963,1.976C24.026,26.674,25.354,31.496,28.484,30.723L28.484,30.723z"/>
				</g>
			</g>
			<g>
				<g>
					<path fill="#4A4A4C" d="M27.08,31.282c1.858,6.871,3.445,13.805,5.011,20.747c0.612,2.714,5.253,2.154,4.911-0.664
						c-0.901-7.416-1.212-14.891-2.895-22.191c-1.523,0.643-3.046,1.285-4.569,1.927c2.25,3.376,3.062,7.163,4.006,11.046
						c1.027,4.221,2.295,8.324,3.099,12.607c1.607-0.443,3.214-0.887,4.821-1.329c-1.372-3.837-2.188-7.739-2.805-11.76
						c-0.574-3.733-1.965-8.991-0.828-12.704c-1.523,0.199-3.046,0.398-4.569,0.598c2.871,6.08,4.144,12.694,5.869,19.153
						c1.607-0.442,3.214-0.886,4.821-1.329c-0.95-3.548-0.46-6.713,0.064-10.293c0.103-0.703-0.13-2.848,0.179-3.241
						c0.43-0.547,0.732-1.042,0.732-1.768c0-3.632-4.368-4.934-7.253-5.003c-2.765-0.065-3.491,4.497-0.665,4.911
						c2.992,0.438,5.318,0.205,8.184-0.847c3-1.102,1.705-5.936-1.329-4.822c-1.73,0.816-3.572,1.1-5.525,0.848
						c-0.222,1.637-0.443,3.273-0.665,4.91c0.858-0.057,1.639,0.165,2.342,0.668c0.214-0.812,0.429-1.622,0.643-2.434
						c-1.623,2.064-1.339,4.59-1.708,7.107c-0.567,3.874-0.845,7.469,0.179,11.292c0.833,3.112,5.654,1.79,4.821-1.329
						c-1.844-6.906-3.305-13.848-6.373-20.348c-0.975-2.064-3.984-1.314-4.569,0.597c-1.257,4.104-0.029,8.794,0.498,12.954
						c0.612,4.833,1.492,9.572,3.135,14.168c1.089,3.046,5.417,1.842,4.821-1.329c-0.803-4.282-2.005-8.401-3.099-12.608
						c-1.116-4.293-2.016-8.498-4.51-12.239c-1.574-2.36-5.218-0.888-4.569,1.927c1.581,6.863,1.869,13.889,2.716,20.861
						c1.637-0.223,3.274-0.443,4.911-0.665c-1.565-6.942-3.152-13.876-5.011-20.747C31.061,26.844,26.237,28.165,27.08,31.282
						L27.08,31.282z"/>
				</g>
			</g>
			<g>
				<g>
					<path fill="#4A4A4C" d="M42.307,28.826c0.271,1.809-1.211,3.649-1.926,5.24c-0.673,1.496-0.685,3.098-0.691,4.699
						c-0.018,4.312,2.159,9.389,3.712,13.352c2.736,6.982,7.344,12.189,14.929,13.42c3.153,0.512,4.505-4.305,1.329-4.82
						c-7.797-1.266-10.819-7.506-13.039-14.461c-1.228-3.846-2.824-8.07-0.82-11.941c1.192-2.302,1.708-4.264,1.327-6.818
						C46.653,24.316,41.835,25.673,42.307,28.826L42.307,28.826z"/>
				</g>
			</g>
			<g>
				<g>
					<path fill="#4A4A4C" d="M37.92,71.341c6.66-1.833,13.283-3.724,19.707-6.281c2.958-1.178,1.669-6.015-1.329-4.821
						c-6.424,2.558-13.047,4.449-19.707,6.281C33.486,67.373,34.806,72.197,37.92,71.341L37.92,71.341z"/>
				</g>
			</g>
			<g>
				<g>
					<path fill="#4A4A4C" d="M39.904,48.674c-0.138,2.052-0.595,3.963-1.11,5.945c-0.436,1.676-0.594,5.189-1.871,6.445
						c1.309,0.168,2.618,0.336,3.926,0.506c-1.19-2.347-1.716-4.847-1.883-7.461c-1.637,0.222-3.274,0.443-4.911,0.664
						c1.363,4.068,2.017,8.312,3.24,12.419c0.562,1.884,2.767,2.339,4.178,1.103c4.97-4.346,3.29-12.114,3.551-17.926
						c-1.553,0.421-3.106,0.842-4.659,1.262c2.139,4.627,1.066,10.023,2.936,14.775c1.033,2.627,4.684,2.238,4.911-0.665
						c0.477-6.108-1.774-11.823-2.477-17.814c-1.422,0.589-2.845,1.179-4.268,1.768C43.515,52.31,46.12,71.29,52.72,63.303
						c-1.178,0-2.357,0-3.535,0c0.042-0.911-0.178-1.051-0.66-0.419c-0.542,0.204-0.663,0.247-0.363,0.133
						c-1.82-2.632-6.157-0.136-4.317,2.523c4.06,5.87,13.675-0.844,8.876-5.772c-0.883-0.907-2.674-1.041-3.535,0
						c-0.216,0.242-0.431,0.485-0.646,0.729c0.642-0.084,1.284-0.168,1.926-0.253c0.424,0.405,0.316,0.235-0.322-0.511
						c-0.252-0.623-0.446-1.265-0.584-1.924c-0.312-1.228-0.508-2.486-0.802-3.719c-0.696-2.928-1.906-5.571-3.752-7.931
						c-1.3-1.662-4.512-0.32-4.268,1.768c0.698,5.954,2.949,11.771,2.477,17.814c1.637-0.222,3.274-0.442,4.911-0.665
						c-2.037-5.176-1.069-10.842-3.44-15.969c-1.113-2.408-4.556-1.023-4.659,1.262c-0.19,4.229,1.494,11.26-2.086,14.391
						c1.393,0.368,2.786,0.736,4.178,1.104c-1.224-4.107-1.876-8.351-3.24-12.418c-0.858-2.561-5.099-2.279-4.911,0.664
						c0.225,3.518,0.964,6.828,2.565,9.984c0.741,1.46,2.83,1.582,3.926,0.506c1.794-1.764,1.966-3.694,2.49-6.07
						c0.73-3.31,1.727-6.451,1.956-9.855C45.122,45.453,40.12,45.475,39.904,48.674L39.904,48.674z"/>
				</g>
			</g>
			<g>
				<g>
					<path fill="#4A4A4C" d="M81.517,16.145c4.554-1.238,9.1-2.299,13.831-2.512c3.211-0.146,3.225-5.146,0-5
						c-5.173,0.233-10.177,1.336-15.16,2.691C77.08,12.169,78.401,16.992,81.517,16.145L81.517,16.145z"/>
				</g>
			</g>
			<g>
				<g>
					<path fill="#4A4A4C" d="M87.089,17.552c2.782-0.476,5.469-1.269,8.015-2.495c-0.088-0.348-0.177-0.693-0.266-1.041
						c0.252,0.709,0.523,1.41,0.814,2.104c0.587,1.457,0.727,3.045,0.694,4.596c1.422-0.59,2.845-1.179,4.268-1.768
						c-1.826-2.285-2.833-4.907-5.014-6.919c-1.732-1.599-4.003-0.353-4.268,1.768c-0.379,3.032,0.245,5.791,0.764,8.776
						c1.393-0.811,2.786-1.622,4.178-2.433c-1.232-1.593-2.348-3.202-3.708-4.685c-1.981-2.16-5.231,0.592-3.926,3.029
						c1.618,3.022,3.945,5.55,5.776,8.438c1.088,1.715,4.104,1.63,4.569-0.598c0.485-0.861,0.97-1.723,1.455-2.584
						c-1.309-0.168-2.618-0.337-3.926-0.506c2.202,3.697,2.105,8.065,2.916,12.187c0.561,2.851,4.849,2.071,4.911-0.665
						c0.085-3.791,0.656-15.051-5.801-13.507c-5.351,1.279-1.625,12.14-0.305,15.167c1.118,2.563,4.407,0.873,4.659-1.262
						c0.219-1.859,0.346-3.635,0.82-5.463c-1.523,0.199-3.046,0.398-4.569,0.598c3.614,5.975,3.956,13.574,6.455,20.029
						c1.151,2.975,5.987,1.684,4.821-1.328c-2.67-6.898-3.084-14.82-6.958-21.225c-1.101-1.82-4.016-1.535-4.569,0.598
						c-0.581,2.238-0.728,4.498-0.999,6.791c1.553-0.42,3.106-0.842,4.659-1.262c-0.904-2.072-1.687-5.767-1.642-8.395
						c-0.799,0.01-1.598,0.021-2.396,0.031c0.153,0.532,0.272,1.072,0.358,1.621c0.209,1.101,0.256,2.25,0.337,3.367
						c0.103,1.406,0.163,2.828,0.131,4.238c1.637-0.221,3.274-0.442,4.911-0.664c-0.914-4.645-0.937-9.211-3.42-13.381
						c-0.872-1.465-2.708-1.549-3.926-0.506c-1.621,1.387-2.306,2.711-2.741,4.791c1.523-0.199,3.046-0.398,4.569-0.598
						c-1.832-2.888-4.158-5.415-5.776-8.438c-1.309,1.01-2.618,2.02-3.926,3.029c1.35,1.473,2.487,3.108,3.708,4.685
						c1.705,2.202,4.552-0.281,4.178-2.433c-0.439-2.526-0.907-4.869-0.585-7.446c-1.422,0.589-2.845,1.179-4.268,1.768
						c2.119,1.956,3.224,4.679,5.014,6.919c1.441,1.804,4.225,0.215,4.268-1.768c0.066-3.108-0.591-7.807-2.855-10.138
						c-1.101-1.134-2.921-0.878-4.279-0.542c-2.888,0.715-5.445,2.182-8.452,2.695C82.587,13.273,83.937,18.091,87.089,17.552
						L87.089,17.552z"/>
				</g>
			</g>
			<g>
				<g>
					<path fill="#4A4A4C" d="M97.884,36.711c1.604,4.621,3.238,9.303,3.653,14.208c1.553-0.421,3.106-0.841,4.659-1.262
						c-1.562-2.443-3.337-2.104-5.881-1.829c0.186,0.164,0.371,0.329,0.557,0.494c0.099-0.407,0.242-0.798,0.428-1.174
						c0.277-0.607,0.597-1.198,0.893-1.797c0.547-1.109,0.864-2.15,1.023-3.372c0.175-1.351-1.27-2.507-2.5-2.5
						c-3.86,0.021-4.317,3.539-3.544,6.588c0.792,3.124,5.614,1.798,4.821-1.329c-0.45-1.774,0.246-0.268-1.277-0.259
						c-0.833-0.833-1.667-1.667-2.5-2.5c-0.34,2.616-2.958,4.487-2.259,7.411c0.333,1.399,1.156,2.471,2.487,3.039
						c0.64,0.271,1.184,0.334,1.872,0.398c0.757,0.071,2.024,0.072,1.564-0.647c1.244,1.945,4.881,1.364,4.659-1.262
						c-0.456-5.386-2.069-10.456-3.832-15.537C101.655,32.355,96.824,33.656,97.884,36.711L97.884,36.711z"/>
				</g>
			</g>
			<g>
				<g>
					<path fill="#4A4A4C" d="M97.034,50.512c0.324-0.125,0.356-0.143,0.099-0.051c-0.167,0.056-0.71,0.098-0.022,0.035
						c-0.167,0.016-0.717-0.062-0.026,0.047c-0.174-0.027-0.341-0.088-0.507-0.146c-1.284-0.459-2.734,0.507-3.075,1.746
						c-0.382,1.389,0.464,2.617,1.746,3.075c1.458,0.521,2.947,0.249,4.309-0.389c1.234-0.579,1.538-2.325,0.897-3.421
						C99.72,50.154,98.268,49.934,97.034,50.512L97.034,50.512z"/>
				</g>
			</g>
			<g>
				<g>
					<path fill="#4A4A4C" d="M98.811,42.583c3.224,0,3.224-5,0-5S95.587,42.583,98.811,42.583L98.811,42.583z"/>
				</g>
			</g>
			<g>
				<g>
					<path fill="#4A4A4C" d="M90.218,18.588c-0.02-0.282-0.041-0.564-0.061-0.848c-1.422,0.59-2.845,1.179-4.268,1.768
						c4.756,3.908,10.124,8.602,10.973,15.068c0.464,3.527-1.568,6.521-2.799,9.64c-0.75,1.901-0.783,6.306-2.421,7.432
						c-2.639,1.813-0.142,6.148,2.523,4.317c2.632-1.809,3.404-3.687,3.651-6.83c0.359-4.564,3.671-8.449,4.08-13.17
						c0.713-8.236-6.75-15.291-12.472-19.992c-1.52-1.25-4.438-0.623-4.268,1.768c0.02,0.283,0.041,0.565,0.061,0.848
						C85.446,21.785,90.448,21.808,90.218,18.588L90.218,18.588z"/>
				</g>
			</g>
			<g>
				<g>
					<path fill="#464547" d="M60.476,59.09c-8.827,3.146-18.098,4.543-27.131,6.939c-3.114,0.826-1.791,5.648,1.329,4.82
						c9.034-2.396,18.304-3.791,27.131-6.938C64.819,62.836,63.521,58.004,60.476,59.09L60.476,59.09z"/>
				</g>
			</g>
			<g>
				<g>
					<path fill="#464547" d="M55.736,56.936c-3.01,1.072-6.057,1.975-9.149,2.775c-3.42,0.887-6.922,0.951-10.356,1.723
						c-3.146,0.706-1.812,5.526,1.329,4.82c2.977-0.668,6.033-0.682,9.01-1.388c3.555-0.843,7.055-1.884,10.496-3.108
						C60.08,60.684,58.781,55.852,55.736,56.936L55.736,56.936z"/>
				</g>
			</g>
			<g>
				<g>
					<path fill="#464547" d="M38.343,63.446c5.298-1.491,10.479-3.363,15.777-4.855c3.099-0.872,1.781-5.696-1.329-4.821
						c-5.298,1.492-10.479,3.363-15.777,4.855C33.915,59.497,35.233,64.322,38.343,63.446L38.343,63.446z"/>
				</g>
			</g>
			<g>
				<g>
					<path fill="#464547" d="M26.21,38.176c4.444-1.14,8.957-1.793,13.491-2.457c3.388-0.496,6.81-0.268,10.147-0.844
						c3.173-0.547,1.824-5.365-1.329-4.821c-3.276,0.565-6.797,0.335-10.147,0.843c-4.533,0.689-9.043,1.316-13.491,2.457
						C21.76,34.154,23.085,38.977,26.21,38.176L26.21,38.176z"/>
				</g>
			</g>
			<g>
				<g>
					<path fill="#464547" d="M31.343,42.381c3.696-1.016,7.393-2.031,11.088-3.048c2.491-0.685,4.75-0.96,6.756-2.715
						c1.155-1.009,0.898-3.253-0.506-3.927c-6.61-3.167-14.411,1.849-19.615,5.735c-2.3,1.718-0.94,5.05,1.926,4.569
						c2.481-0.416,4.86-1.141,7.276-1.827c3.096-0.88,1.779-5.705-1.329-4.821c-2.416,0.687-4.795,1.411-7.276,1.827
						c0.642,1.522,1.284,3.046,1.926,4.569c3.3-2.465,10.195-7.83,14.568-5.734c-0.169-1.309-0.337-2.618-0.506-3.927
						c-1.566,1.368-5.065,1.57-7.015,2.106c-2.875,0.79-5.75,1.58-8.624,2.371C26.909,38.414,28.229,43.238,31.343,42.381
						L31.343,42.381z"/>
				</g>
			</g>
			<g>
				<g>
					<path fill="#464547" d="M96.223,29.155c2.646-0.926,3.664-3.194,1.795-5.484c-0.282-0.346-0.756-0.644-1.102-0.905
						c-0.173-0.126-0.343-0.258-0.507-0.395c-0.873-0.952-1.102-0.08-0.686,2.617c2.414-0.844,4.564-1.59,6.465-3.37
						c1.827-1.71-0.057-4.896-2.432-4.179c-5.868,1.77-11.73,3.579-17.529,5.562c-3.111,1.063-1.81,5.296,1.329,4.821
						c2.609-0.395,5.166-0.971,7.714-1.653c3.112-0.833,1.79-5.656-1.329-4.821c-2.548,0.682-5.105,1.26-7.714,1.653
						c0.443,1.606,0.886,3.214,1.329,4.821c5.799-1.982,11.662-3.791,17.529-5.561c-0.811-1.393-1.622-2.786-2.432-4.179
						c-1.943,1.819-6.907,1.707-7.084,5.086c-0.054,1.018,0.419,1.735,1.03,2.483c0.282,0.346,0.755,0.643,1.102,0.906
						c0.174,0.125,0.343,0.256,0.507,0.393c0.874,0.953,1.102,0.08,0.686-2.617C91.871,25.391,93.171,30.223,96.223,29.155
						L96.223,29.155z"/>
				</g>
			</g>
			<g>
				<g>
					<path fill="#464547" d="M98.223,35.322c2.646-0.926,3.664-3.194,1.795-5.484c-0.282-0.346-0.756-0.644-1.102-0.906
						c-0.173-0.125-0.343-0.256-0.507-0.393c-0.873-0.953-1.102-0.08-0.686,2.617c2.414-0.845,4.564-1.591,6.465-3.371
						c1.827-1.709-0.057-4.895-2.432-4.178c-5.868,1.77-11.73,3.578-17.529,5.561c-3.111,1.063-1.81,5.295,1.329,4.821
						c2.609-0.394,5.166-0.972,7.714-1.653c3.112-0.833,1.79-5.656-1.329-4.821c-2.548,0.683-5.105,1.259-7.714,1.653
						c0.443,1.607,0.886,3.215,1.329,4.821c5.799-1.982,11.662-3.792,17.529-5.562c-0.811-1.393-1.622-2.785-2.432-4.178
						c-1.943,1.819-6.907,1.707-7.084,5.086c-0.054,1.018,0.419,1.734,1.03,2.483c0.282,0.346,0.755,0.644,1.102,0.905
						c0.174,0.126,0.343,0.258,0.507,0.394c0.874,0.953,1.102,0.081,0.686-2.617C93.871,31.559,95.171,36.39,98.223,35.322
						L98.223,35.322z"/>
				</g>
			</g>
			<g>
				<g>
					<path fill="#464547" d="M96.109,34.463c0.899,2.686,3.179,3.636,5.475,1.812c0.308-0.245,0.55-0.625,0.79-0.932
						c0.17-0.226,0.347-0.445,0.531-0.66c0.966-0.865,0.092-1.086-2.623-0.666c0.814,2.43,1.542,4.574,3.299,6.502
						c1.708,1.874,4.854-0.081,4.178-2.433c-1.691-5.891-3.423-11.776-5.329-17.602c-1.03-3.149-5.25-1.787-4.821,1.329
						c0.359,2.614,0.903,5.179,1.551,7.735c0.792,3.124,5.614,1.798,4.821-1.329c-0.648-2.557-1.192-5.121-1.551-7.735
						c-1.607,0.442-3.214,0.886-4.821,1.329c1.906,5.825,3.637,11.711,5.329,17.602c1.393-0.811,2.786-1.621,4.178-2.432
						c-1.823-2-1.575-6.902-5.002-7.129c-1.017-0.066-1.735,0.424-2.487,1.021c-0.308,0.244-0.551,0.625-0.79,0.932
						c-0.17,0.225-0.347,0.445-0.531,0.66c-0.966,0.864-0.092,1.086,2.623,0.665C99.912,30.093,95.083,31.396,96.109,34.463
						L96.109,34.463z"/>
				</g>
			</g>
			<g>
				<g>
					<path fill="#464547" d="M31.612,45.246c4.604-1.062,8.999-3.195,13.771-3.359c-0.589-1.423-1.179-2.846-1.768-4.268
						c-3.251,3.895-7.551,6.785-12.225,8.724c0.642,1.522,1.284,3.046,1.926,4.569c4.021-2.104,8.521-3.021,12.664-4.863
						c2.31-1.027,1.112-4.756-1.262-4.659c-4.515,0.183-8.917,1.263-13.431,1.444c0.222,1.637,0.443,3.274,0.665,4.911
						c4.865-0.657,13.443-0.888,16.014,3.871c0.498-1.224,0.996-2.448,1.494-3.673c-3.579,1.072-7.327-0.982-10.763-1.861
						c-2.735-0.699-4.411,3.133-1.926,4.57c4.734,2.736,11.585,7.683,17.329,5.352c2.318-0.941,2.423-3.915,0-4.822
						c-2.316-0.866-4.686-0.871-7.134-0.948c-3.586-0.112-7.219-1.52-10.502-2.846c-1.969-0.796-3.337,1.437-3.075,3.075
						c0.941,5.885,6.609,7.824,10.429,11.55c0.811-1.393,1.622-2.786,2.432-4.179c-2.256-0.357-4.521-0.471-6.733-1.086
						c-0.841,1.414-0.613,1.713,0.683,0.896c0.661-0.189,1.331-0.34,2.009-0.452c1.839-0.358,3.282,0.183,5.026,0.679
						c3.108,0.883,4.425-3.941,1.329-4.821c-4.046-1.15-12.915-2.005-14.255,3.606c-1.283,5.37,7.496,5.505,10.612,6
						c2.314,0.367,4.378-2.28,2.432-4.179c-3.028-2.954-8.414-4.785-9.143-9.344c-1.025,1.024-2.05,2.05-3.075,3.075
						c2.836,1.146,5.671,2.037,8.673,2.629c2.975,0.588,6.103,0.096,8.963,1.166c0-1.607,0-3.215,0-4.822
						c-4.215,1.711-9.96-2.814-13.476-4.848c-0.642,1.523-1.284,3.047-1.926,4.57c4.467,1.142,8.769,3.255,13.421,1.861
						c1.582-0.475,2.272-2.233,1.494-3.673c-3.999-7.401-14.291-7.165-21.661-6.169c-2.814,0.381-2.112,5.022,0.665,4.91
						c4.516-0.182,8.917-1.262,13.431-1.444c-0.42-1.553-0.841-3.106-1.262-4.659c-4.158,1.849-8.611,2.744-12.664,4.864
						c-2.478,1.296-0.71,5.663,1.926,4.569c5.465-2.268,10.606-5.428,14.431-10.01c1.307-1.564,0.587-4.35-1.768-4.268
						c-5.276,0.182-10.02,2.365-15.1,3.538C27.142,41.15,28.474,45.971,31.612,45.246L31.612,45.246z"/>
				</g>
			</g>
			<g>
				<g>
					<path fill="#464547" d="M106.56,40.501c-5.057,0.866-9.802,3.697-15.002,3.577c0.589,1.422,1.179,2.846,1.768,4.268
						c3.516-3.785,7.733-7.297,12.659-9.04c-0.642-1.522-1.284-3.046-1.926-4.569c-3.967,1.734-8.318,2.241-12.376,3.715
						c-2.612,0.947-2.255,4.824,0.665,4.91c4.518,0.134,8.981-0.637,13.499-0.502c0-1.666,0-3.334,0-5
						c-5.12,0.33-13.907,0.155-16.282-5.087c-0.498,1.224-0.996,2.448-1.494,3.673c3.563-0.801,7.313,1.61,10.604,2.702
						c2.824,0.937,4.17-3.054,1.926-4.569c-4.61-3.115-10.961-8.367-16.935-6.416c-1.863,0.609-2.709,3.605-0.597,4.569
						c2.059,0.939,4.053,1.276,6.294,1.513c3.904,0.41,7.521,1.792,11.033,3.506c1.543,0.754,3.943-0.119,3.762-2.158
						c-0.562-6.331-5.944-8.588-9.764-12.874c-0.811,1.393-1.622,2.786-2.432,4.179c2.231,0.516,4.621,0.657,6.729,1.613
						c0.31-1.266-0.038-1.604-1.043-1.014c-0.779,0.168-1.565,0.266-2.36,0.292c-1.707,0.121-3.066-0.534-4.638-1.103
						c-3.04-1.1-4.337,3.734-1.329,4.822c4.084,1.477,12.616,2.725,14.358-2.82c1.613-5.134-7.502-5.945-10.386-6.613
						c-2.494-0.576-4.102,2.305-2.432,4.179c2.503,2.81,7.933,5.216,8.299,9.339c1.254-0.721,2.508-1.439,3.762-2.159
						c-2.464-1.202-4.952-2.239-7.566-3.075c-3.127-1-6.802-0.594-9.761-1.943c-0.199,1.523-0.398,3.047-0.597,4.569
						c4.209-1.375,9.81,3.701,13.082,5.912c0.642-1.522,1.284-3.046,1.926-4.569c-4.442-1.474-8.464-3.781-13.262-2.703
						c-1.706,0.384-2.125,2.281-1.494,3.673c3.337,7.365,13.432,8.026,20.599,7.563c3.198-0.206,3.245-4.904,0-5
						c-4.518-0.135-8.981,0.636-13.499,0.502c0.222,1.637,0.443,3.273,0.665,4.91c4.481-1.626,9.183-2.3,13.571-4.218
						c2.596-1.135,0.73-5.509-1.926-4.569c-5.748,2.033-10.744,5.89-14.865,10.326c-1.489,1.602-0.452,4.217,1.768,4.268
						c5.721,0.133,10.794-2.807,16.332-3.756C111.062,44.779,109.713,39.961,106.56,40.501L106.56,40.501z"/>
				</g>
			</g>
			<g>
				<g>
					<path fill="#434345" d="M42.141,71.607c7.635-1.555,11.22-7.479,14.075-14.104c0.946-2.195-2.283-4.107-3.238-1.893
						c-2.468,5.727-5.14,11.017-11.834,12.379C38.775,68.473,39.78,72.088,42.141,71.607L42.141,71.607z"/>
				</g>
			</g>
			<g>
				<g>
					<path fill="#434345" d="M51.366,67.087c1.521-1.812,2.792-3.815,4.564-5.403c-1.044-0.607-2.089-1.215-3.134-1.824
						c-0.229,1.58-0.735,3.078-0.818,4.682c-0.05,0.973,0.892,1.938,1.875,1.875c1.023-0.066,1.857-0.311,2.787-0.732
						c1.011-0.458,1.796-1.334,2.982-1.057c0.166-1.229,0.333-2.456,0.499-3.684c-1.781-0.117-3.817-0.957-5.523-0.043
						c-0.812,0.436-1.348,1.164-1.918,1.865c-0.735,0.901-1.634,1.143-2.65,1.638c-2.173,1.06-0.271,4.294,1.893,3.238
						c1.566-0.765,2.627-1.266,3.752-2.646c0.677-0.83,0.806-0.82,1.896-0.654c0.851,0.131,1.69,0.295,2.551,0.352
						c2.123,0.139,2.543-3.205,0.499-3.684c-1.18-0.275-2.254-0.281-3.4,0.143c-1.13,0.418-2.138,1.434-3.366,1.514
						c0.625,0.625,1.25,1.25,1.875,1.875c0.064-1.254,0.504-2.445,0.684-3.684c0.264-1.82-1.641-3.162-3.134-1.824
						c-1.774,1.59-3.042,3.59-4.564,5.402C47.17,66.273,49.809,68.941,51.366,67.087L51.366,67.087z"/>
				</g>
			</g>
			<g>
				<g>
					<path fill="#434345" d="M92.723,29.219c3.473-0.893,6.888-2.008,10.333-3c-0.769-0.769-1.538-1.537-2.307-2.307
						c-0.153,0.581-2.222,1.732-2.913,2.262c-0.896,0.686-1.929,1.518-2.125,2.701c-0.183,1.108,0.486,2.475,1.808,2.374
						c0.912-0.069,1.75-0.214,2.577-0.632c1.017-0.513,1.988-1.423,3.192-1.157c0.166-1.228,0.333-2.456,0.499-3.683
						c-1.743-0.125-3.865-0.983-5.523-0.043c-0.741,0.42-1.239,1.031-1.771,1.684c-0.788,0.967-1.695,1.3-2.798,1.818
						c-2.187,1.03-0.282,4.263,1.893,3.238c1.707-0.803,2.739-1.401,3.944-2.879c0.894-1.098,2.991-0.158,4.255-0.068
						c2.116,0.15,2.552-3.23,0.499-3.684c-1.141-0.252-2.137-0.271-3.26,0.084c-1.216,0.385-2.21,1.473-3.506,1.571
						c0.603,0.791,1.206,1.583,1.808,2.374c0.119-0.723,2.207-1.778,2.806-2.23c0.96-0.727,1.912-1.522,2.232-2.732
						c0.361-1.365-0.917-2.707-2.307-2.307c-3.445,0.992-6.86,2.107-10.333,3C89.385,26.205,90.379,29.822,92.723,29.219
						L92.723,29.219z"/>
				</g>
			</g>
			<g>
				<g>
					<path fill="#434345" d="M93.056,33.053c3.473-0.893,6.888-2.008,10.333-3c-0.769-0.77-1.538-1.538-2.307-2.307
						c-0.204,0.949-2.171,1.641-2.934,2.139c-1.255,0.818-2.004,1.828-2.17,3.322c-0.107,0.964,0.936,1.947,1.875,1.875
						c0.912-0.07,1.751-0.215,2.577-0.631c1.017-0.514,1.988-1.424,3.192-1.158c0.166-1.228,0.333-2.455,0.499-3.684
						c-1.743-0.123-3.865-0.982-5.523-0.042c-0.741,0.421-1.239,1.031-1.771,1.684c-0.788,0.966-1.695,1.3-2.798,1.819
						c-2.187,1.029-0.282,4.262,1.893,3.238c1.707-0.805,2.739-1.402,3.944-2.881c0.894-1.097,2.991-0.158,4.255-0.068
						c2.116,0.15,2.552-3.23,0.499-3.683c-1.141-0.251-2.137-0.271-3.26,0.084c-1.216,0.386-2.21,1.472-3.506,1.571
						c0.625,0.625,1.25,1.25,1.875,1.875c0.007-0.066,2.287-1.28,2.706-1.553c1.07-0.695,1.989-1.633,2.265-2.912
						c0.292-1.359-0.868-2.721-2.307-2.307c-3.445,0.992-6.86,2.107-10.333,3C89.718,30.037,90.712,33.654,93.056,33.053
						L93.056,33.053z"/>
				</g>
			</g>
			<g>
				<g>
					<path fill="#434345" d="M105.249,32.968c-3.492,0.815-6.931,1.854-10.397,2.771c0.769,0.769,1.538,1.537,2.307,2.307
						c0.158-0.549,2.308-1.68,2.987-2.176c0.917-0.67,1.938-1.494,2.16-2.674c0.212-1.131-0.506-2.444-1.808-2.374
						c-0.917,0.05-1.749,0.196-2.585,0.595c-1.054,0.503-1.999,1.354-3.221,1.055c-0.166,1.228-0.333,2.455-0.499,3.684
						c1.761,0.164,3.814,1.059,5.515,0.144c0.744-0.4,1.26-1.019,1.801-1.652c0.807-0.946,1.731-1.254,2.844-1.747
						c2.207-0.979,0.297-4.21-1.893-3.238c-1.724,0.765-2.763,1.349-4,2.799c-0.873,1.023-3.046,0.059-4.267-0.055
						c-2.131-0.199-2.521,3.189-0.499,3.683c1.133,0.276,2.136,0.296,3.261-0.034c1.236-0.361,2.225-1.41,3.542-1.481
						c-0.603-0.791-1.206-1.583-1.808-2.374c-0.08,0.428-2.17,1.637-2.879,2.148c-0.984,0.711-1.92,1.495-2.268,2.701
						c-0.4,1.391,0.942,2.668,2.307,2.307c3.466-0.916,6.905-1.954,10.397-2.77C108.601,36.034,107.602,32.418,105.249,32.968
						L105.249,32.968z"/>
				</g>
			</g>
			<g>
				<g>
					<path fill="#434345" d="M106.249,36.468c-3.492,0.815-6.931,1.854-10.397,2.771c0.769,0.769,1.538,1.537,2.307,2.307
						c0.158-0.549,2.308-1.68,2.987-2.176c0.917-0.67,1.938-1.494,2.16-2.674c0.212-1.131-0.506-2.444-1.808-2.374
						c-0.917,0.05-1.749,0.196-2.585,0.595c-1.054,0.503-1.999,1.354-3.221,1.055c-0.166,1.228-0.333,2.455-0.499,3.684
						c1.761,0.164,3.814,1.059,5.515,0.144c0.744-0.4,1.26-1.019,1.801-1.652c0.807-0.946,1.731-1.254,2.844-1.747
						c2.207-0.979,0.297-4.21-1.893-3.238c-1.724,0.765-2.763,1.349-4,2.799c-0.873,1.023-3.046,0.059-4.267-0.055
						c-2.131-0.199-2.521,3.189-0.499,3.683c1.133,0.276,2.136,0.296,3.261-0.034c1.236-0.361,2.225-1.41,3.542-1.481
						c-0.603-0.791-1.206-1.583-1.808-2.374c-0.08,0.428-2.17,1.637-2.879,2.148c-0.984,0.711-1.92,1.495-2.268,2.701
						c-0.4,1.391,0.942,2.668,2.307,2.307c3.466-0.916,6.905-1.954,10.397-2.77C109.601,39.534,108.602,35.918,106.249,36.468
						L106.249,36.468z"/>
				</g>
			</g>
			<path fill-rule="evenodd" clip-rule="evenodd" fill="none" stroke="#414042" stroke-width="3" stroke-miterlimit="10" d="
				M108.803,43.732c1.756,6.391,2.404,7.635-3.986,9.393L39.249,71.147c-6.39,1.757-12.995-2.001-14.751-8.391L18.445,40.74
				c-1.756-6.391,2-12.995,8.391-14.752L88.386,9.07c5.874-1.268,10.425,1.455,13.084,7.984L108.803,43.732z"/>
			<g>
				<g>
					<path fill="#4A4A4C" d="M16,38.738c0.049,4.413,1.61,8.428,2.612,12.675c1.523-0.642,3.046-1.284,4.569-1.927
						c-2.662-5.975-4.978-12.309-4.435-18.945c0.132-1.617-1.697-2.85-3.165-2.41c-9.94,2.971-1.402,19.844,0.36,25.831
						c0.768,2.607,5.262,2.219,4.911-0.665c-0.566-4.639-1.626-9.148-2.637-13.705c-0.618-2.787-4.941-2.126-4.911,0.664
						c0.077,6.989,0.564,15.168,4.744,21.053c1.522,2.145,4.333,1.209,4.659-1.262c0.313-2.369,0.312-4.719,0.38-7.105
						c-1.637,0.223-3.274,0.443-4.911,0.665c1.495,3.667,2.794,7.43,3.224,11.389c0.833-0.833,1.667-1.667,2.5-2.5
						c-0.951-0.646-1.615-1.495-1.993-2.547c-1.25-2.552-5.447-0.753-4.569,1.927c1.713,5.23,2.812,14.545,10.045,14.516
						c1.259-0.006,2.637-1.139,2.5-2.5c-0.344-3.428-1.977-6.135-3.317-9.26c-1.439,0.842-2.878,1.682-4.317,2.523
						c1.704,2.227,2.268,4.91,4.241,6.967c2.235,2.331,5.767-1.209,3.535-3.535c-1.613-1.682-2.045-4.107-3.459-5.955
						c-1.967-2.57-5.597-0.459-4.317,2.523c0.929,2.168,2.395,4.34,2.635,6.736c0.833-0.834,1.667-1.667,2.5-2.5
						c-3.437,0.014-4.402-8.34-5.224-10.846c-1.523,0.643-3.046,1.285-4.569,1.927c1.408,2.876,3.081,4.659,6.311,5.023
						c1.255,0.142,2.636-1.249,2.5-2.5c-0.481-4.438-1.72-8.591-3.402-12.718c-1.027-2.52-4.825-2.326-4.911,0.664
						c-0.068,2.387-0.067,4.736-0.38,7.105c1.553-0.42,3.106-0.842,4.659-1.262c-3.689-5.195-3.994-12.368-4.062-18.529
						c-1.637,0.222-3.274,0.443-4.911,0.664c0.912,4.111,1.948,8.19,2.458,12.377c1.637-0.221,3.274-0.442,4.911-0.664
						c-0.779-2.646-7.525-18.583-3.853-19.681c-1.055-0.804-2.11-1.606-3.165-2.411c-0.616,7.527,2.104,14.705,5.118,21.469
						c1.196,2.686,5.193,0.719,4.569-1.926c-0.893-3.783-2.39-7.415-2.434-11.346C20.963,35.516,15.963,35.512,16,38.738L16,38.738z
						"/>
				</g>
			</g>
			<g>
				<g>
					<path fill="#4A4A4C" d="M17.899,33.718c2.428-0.353,4.14-0.968,6.033-2.517c1.164-0.951,0.898-3.314-0.506-3.926
						c-2.55-1.109-4.117-1.062-6.645,0.096c-2.253,1.031-1.153,4.83,1.262,4.658c1.271-0.09,2.543-0.18,3.814-0.271
						c-0.222-1.637-0.443-3.274-0.665-4.911c-1.703,0.479-3.346,0.996-4.996,1.633c0.642,1.523,1.284,3.047,1.926,4.569
						c1.962-1.507,4.689-0.878,6.817,0.025c2.608,1.106,4.923-1.655,3.029-3.927c-0.645-0.773-1.29-1.547-1.935-2.32
						c-0.811,1.393-1.622,2.786-2.432,4.179c4.01,1.208,4.722,11.196,5.61,14.64c1.05,4.071,2.109,8.145,3.246,12.191
						c1.008,3.587,2.754,7.601,1.095,11.285c-0.75,1.666-3.347,3.504-4.562,1.604c-0.854-1.336-0.977-3.139-0.996-4.674
						c-0.006-0.533,0.043-1.057,0.14-1.58c0.345-1.876,0.183,0.818-1.255-0.466c2.066,1.845,2.597,5.431,3.665,7.868
						c1.439-0.842,2.878-1.683,4.317-2.523c-3.442-7.188-3.755-14.953-3.675-22.785c-1.422,0.59-2.845,1.18-4.268,1.768
						c1.374,1.732,2.25,4.178,3.076,6.197c0.511,1.249,0.938,2.527,1.273,3.834c0.114,1.336,0.985,0.994,2.612-1.027
						c-1.077-0.594-1.833-1.892-2.453-2.904c-4.275-6.98-0.731-16.471-5.107-23.701c-1.03-1.701-3.251-1.518-4.317,0
						c-5.466,7.783,0.27,16.275,3.409,23.736c1.393-0.811,2.786-1.621,4.178-2.432c-5.608-4.654-8.427-13.15-7.665-20.296
						c-1.637,0.222-3.274,0.442-4.911,0.665c1.355,6.107,1.273,13.687,2.151,20.205c0.656,4.879,1.135,16.486,7.103,18.344
						c8.067,2.511,5.716-13.379,5.064-16.621c-1.434-7.141-4.636-19.152-12.268-22.129c-3.008-1.174-4.298,3.663-1.329,4.821
						c2.238,0.873,3.641,4.231,4.633,6.194c1.812,3.586,2.979,7.518,3.914,11.411c0.776,3.231,1.453,6.866,0.895,10.188
						c-0.336,2.004-0.661,0.46,0.682,1.503c-0.7-0.544-1.011-1.692-1.294-2.481c-3.788-10.55-2.343-22.016-4.729-32.766
						c-0.656-2.957-4.631-1.955-4.911,0.665c-0.885,8.301,2.627,18.435,9.13,23.831c1.679,1.393,5.256,0.129,4.178-2.433
						c-2.484-5.904-8.254-13.702-3.913-19.884c-1.439,0-2.878,0-4.317,0c3.254,5.377,2.181,12.562,3.277,18.574
						c0.641,3.512,3.632,10.482,8.095,10.482c7.328,0-1.098-15.215-2.922-17.514c-1.426-1.797-4.247-0.223-4.268,1.768
						c-0.091,8.798,0.505,17.266,4.357,25.309c1.408,2.939,5.586,0.372,4.317-2.523c-1.441-3.29-2.413-8.57-6.249-10.063
						c-2.302-0.896-4.337,0.832-5.036,2.944c-1.534,4.634-0.393,13.064,5.34,14.24c3.929,0.807,7.874-2.429,9.383-5.779
						c2.304-5.117-0.11-10.942-1.508-15.918c-1.696-6.035-3.008-12.162-4.625-18.215c-1.085-4.062-2.807-9.041-7.237-10.375
						c-2.577-0.776-3.938,2.373-2.432,4.178c0.645,0.773,1.29,1.547,1.935,2.32c1.01-1.309,2.02-2.617,3.029-3.926
						c-3.665-1.555-8.425-2.666-11.864-0.025c-2.035,1.562-0.961,5.684,1.926,4.569c1.65-0.638,3.293-1.155,4.996-1.632
						c2.654-0.745,2.212-5.115-0.665-4.911c-1.271,0.091-2.543,0.181-3.814,0.271c0.42,1.553,0.841,3.106,1.262,4.659
						c0.533-0.032,1.065-0.063,1.598-0.097c-0.169-1.309-0.337-2.617-0.506-3.926c-1.186,0.735-2.461,1.146-3.827,1.23
						C13.389,29.358,14.747,34.176,17.899,33.718L17.899,33.718z"/>
				</g>
			</g>
			<g>
				<g>
					<path fill="#464547" d="M21.354,33.633c-2.15,1.316-5.11,2.914-7.644,2.033c0.199,1.523,0.398,3.047,0.597,4.569
						c1.554-0.761,4.086-0.548,5.847-0.828c-1.025-0.582-2.05-1.164-3.075-1.746c0.617,2.001,0.434,4.192,1.156,6.369
						c1.529,4.607,2.998,9.231,4.226,13.929c1.062,4.062,1.887,8.455,1.981,12.65c0.061,2.721,0.999,4.707,3.391,6.006
						c2.833,1.541,5.357-2.777,2.523-4.316c-1.751-0.953-1.465-7.035-1.74-8.922c-0.509-3.498-1.346-6.916-2.302-10.314
						c-0.98-3.484-2.124-6.924-3.258-10.361c-0.733-2.221-0.482-4.184-1.156-6.369c-0.435-1.411-1.696-1.966-3.075-1.746
						c-2.553,0.406-4.681,0.176-7.041,1.332c-2.093,1.025-1.278,3.918,0.597,4.569c3.835,1.333,8.206-0.522,11.496-2.536
						C26.622,36.271,24.112,31.945,21.354,33.633L21.354,33.633z"/>
				</g>
			</g>
			<g>
				<g>
					<path fill="#464547" d="M11.848,38.754c4.627,12.028,4.831,25.292,10.9,36.819c1.502,2.854,5.818,0.327,4.317-2.523
						c-5.839-11.091-5.936-24.03-10.396-35.626C15.524,34.447,10.688,35.739,11.848,38.754L11.848,38.754z"/>
				</g>
			</g>
			<g>
				<g>
					<path fill="#464547" d="M14.214,37.93c4.276,12.186,7.026,24.795,10.409,37.239c0.845,3.108,5.668,1.787,4.821-1.329
						c-3.383-12.445-6.133-25.054-10.409-37.239C17.976,33.579,13.144,34.879,14.214,37.93L14.214,37.93z"/>
				</g>
			</g>
			<g>
				<g>
					<path fill="#4A4A4C" d="M31.12,62.642c0.468,0.898,0.164,2.06,0.146,3.032c-0.028,1.47,0.455,2.898,1.294,4.092
						c0.783,1.111,2.17,1.629,3.42,0.896c1.101-0.645,1.683-2.305,0.897-3.42c-0.727-1.034-0.608-1.883-0.536-3.109
						c0.084-1.432-0.246-2.751-0.903-4.015C33.948,57.258,29.634,59.785,31.12,62.642L31.12,62.642z"/>
				</g>
			</g>
			<g>
				<g>
					<path fill="#464547" d="M19.723,36.589C24.507,48.805,26.42,61.65,29.818,74.26c0.838,3.11,5.662,1.789,4.821-1.329
						c-3.397-12.608-5.311-25.456-10.095-37.671C23.382,32.293,18.546,33.582,19.723,36.589L19.723,36.589z"/>
				</g>
			</g>
			<g>
				<g>
					<path fill="#464547" d="M25.02,38.242c3.353-0.496,6.496-1.785,9.93-1.612c3.224,0.161,3.208-4.839,0-5
						c-3.895-0.195-7.463,1.229-11.259,1.792C20.511,33.893,21.867,38.709,25.02,38.242L25.02,38.242z"/>
				</g>
			</g>
			<g>
				<g>
					<path fill="#464547" d="M35.999,61.845c1.074,3.446-0.283,6.491-2.813,8.889c-2.346,2.221,1.196,5.751,3.535,3.535
						c3.777-3.576,5.686-8.663,4.1-13.753C39.864,57.447,35.037,58.758,35.999,61.845L35.999,61.845z"/>
				</g>
			</g>
			<g>
				<g>
					<path fill="#464547" d="M35.046,56.793c-1.37,3.156-2.05,6.929-4.471,9.473c-0.849,0.891-1.098,2.686,0,3.535
						c0.22,0.17,0.439,0.341,0.659,0.511c1.248,0.968,3.04,1.019,3.926-0.506c2.957-5.087,4.226-10.821,2.459-16.534
						c-0.6-1.939-3.557-2.629-4.569-0.597c-2.003,4.021-2.693,8.348-3.853,12.649c-0.851,3.154,3.741,4.32,4.821,1.328
						c0.759-2.1,1.737-3.52,3.765-4.523c-1.224-0.498-2.448-0.996-3.672-1.494c0.269,1.116-1.634,1.293-2.315,1.342
						c-1.674,0.116-1.29-2.604-1.256-3.383c0.102-2.348,1.083-5.838,3.703-6.293c-1.025-0.582-2.05-1.164-3.075-1.746
						c0.306,1.754-0.266,3.207-1.716,4.359c1.14,0.299,2.28,0.599,3.42,0.897c-1.355-2.417,1.674-5.761,3.511-6.952
						c-1.14-0.299-2.28-0.598-3.42-0.896c0.387,0.66-1.982,3.037-2.593,2.514c-0.767-0.659-0.97-2.115-1.206-3.031
						c-0.462-1.792-0.525-3.709-0.469-5.551c0.143-4.713,1.563,1.148,1.231,2.473c-0.562,2.238,0.626,2.205,0.019,0.383
						c-0.058-1.6-1.134-2.018-3.229-1.252c-0.013,0.762-0.22,1.461-0.623,2.101c0.72-0.413,1.439-0.825,2.159-1.238
						c-0.078,0.007-0.155,0.014-0.232,0.021c0.719,0.413,1.439,0.826,2.158,1.238c-0.059-0.084-0.119-0.169-0.178-0.254
						c-1.837-2.617-6.174-0.122-4.317,2.523c0.06,0.085,0.119,0.17,0.178,0.254c0.482,0.688,1.25,1.319,2.159,1.238
						c3.533-0.314,4.601-6.018,3.218-8.738c-2.104-4.143-6.542-0.531-6.571,2.879c-0.03,3.553,2.197,8.397,6.305,7.465
						c4.4-1,4.694-8.684,3.224-11.808c-1.356-2.882-4.906-6.249-8.104-3.573c-3.521,2.947-2.54,9.218-1.75,13.169
						c0.654,3.266,3.501,8.294,7.67,6.732c3.709-1.389,7.605-6.079,5.268-10.067c-0.665-1.134-2.276-1.64-3.42-0.896
						c-4.313,2.797-8.117,8.779-5.305,13.792c0.626,1.116,2.317,1.67,3.42,0.897c3.338-2.34,4.815-5.995,4.014-10.007
						c-0.285-1.428-1.812-1.966-3.075-1.746c-6.729,1.171-9.065,11.487-6.316,16.843c3.122,6.082,13.893,1.451,12.335-5.016
						c-0.399-1.659-2.277-2.185-3.672-1.494c-3.167,1.566-4.89,4.265-6.063,7.512c1.607,0.442,3.214,0.886,4.821,1.328
						c1.037-3.844,1.557-7.857,3.349-11.454c-1.523-0.198-3.046-0.397-4.569-0.597c1.391,4.496,0.355,8.707-1.955,12.681
						c1.309-0.169,2.618-0.337,3.926-0.506c-0.22-0.171-0.439-0.341-0.659-0.511c0,1.178,0,2.357,0,3.535
						c2.865-3.01,3.641-6.77,5.253-10.484C40.633,56.391,36.327,53.842,35.046,56.793L35.046,56.793z"/>
				</g>
			</g>
			<g>
				<g>
					<path fill="#434345" d="M20.25,36.617c0.938,2.832,0.923,5.905,1.33,8.848c0.432,3.121,1.268,6.19,2.083,9.227
						c1.799,6.709,2.787,13.43,4.834,20.105c0.942,3.072,5.77,1.762,4.821-1.33c-1.87-6.098-3.153-11.98-4.379-18.238
						c-0.608-3.105-1.583-6.139-2.217-9.244c-0.729-3.57-0.502-7.23-1.651-10.697C24.062,32.242,19.232,33.547,20.25,36.617
						L20.25,36.617z"/>
				</g>
			</g>
			<g>
				<g>
					<path fill="#434345" d="M18.195,36.361c-1.383,2.453-1.084,4.48-0.341,7.156c1.286,4.627,1.665,9.869,2.014,14.64
						c0.521,7.097,1.706,12.948,6.379,18.537c1.789,2.14,4.523-0.246,4.178-2.433c-0.83-5.268-3.527-9.953-4.357-15.222
						c-0.5-3.178-5.318-1.824-4.821,1.329c0.83,5.268,3.527,9.955,4.357,15.223c1.393-0.811,2.786-1.622,4.178-2.433
						c-4.206-5.031-4.585-10.511-5.044-16.78c-0.188-2.568-0.611-5.133-0.988-7.678c-0.318-2.146-2.341-7.857-1.237-9.816
						C24.098,36.073,19.778,33.554,18.195,36.361L18.195,36.361z"/>
				</g>
			</g>
			<g>
				<g>
					<path fill="#434345" d="M27.002,73.129c-1.833-6.575-3.89-13.08-5.986-19.574c-1.682-5.214-2.111-10.746-4.495-15.72
						c-1.393-2.907-5.703-0.369-4.317,2.523c2.401,5.013,2.856,11.009,4.564,16.302c1.905,5.903,3.747,11.822,5.412,17.798
						C23.046,77.56,27.87,76.24,27.002,73.129L27.002,73.129z"/>
				</g>
			</g>
			<g>
				<g>
					<path fill="#434345" d="M17.534,40.553c3.224,0,3.224-5,0-5S14.31,40.553,17.534,40.553L17.534,40.553z"/>
				</g>
			</g>
			<g>
				<g>
					<path fill="#434345" d="M25.642,34.852c5.166,11.358,7.74,23.662,10.521,35.764c0.722,3.143,5.542,1.81,4.821-1.329
						c-2.885-12.56-5.665-25.174-11.024-36.958C28.625,29.396,24.317,31.939,25.642,34.852L25.642,34.852z"/>
				</g>
			</g>
			<g>
				<g>
					<path fill="#434345" d="M22.729,38.096c3.158,11.49,6.317,22.98,9.475,34.471c0.854,3.105,5.677,1.785,4.821-1.328
						c-3.158-11.491-6.317-22.981-9.475-34.473C26.697,33.661,21.874,34.98,22.729,38.096L22.729,38.096z"/>
				</g>
			</g>
			<path fill-rule="evenodd" clip-rule="evenodd" fill="none" stroke="#414042" stroke-width="3" stroke-miterlimit="10" d="
				M42.285,69.622c-1.308,2.298-7.454,5.505-10.205,6.261l0,0c-5.503,1.513-10.052,2.418-12.702-7.225L10.72,37.159
				c-1.513-5.503,1.932-9.173,7.434-10.685l0,0c3.235-0.889,7.639-1.831,10.056-0.518"/>
			<path fill-rule="evenodd" clip-rule="evenodd" fill="none" stroke="#414042" stroke-width="3" stroke-miterlimit="10" d="
				M28.751,26.673"/>
			<path fill-rule="evenodd" clip-rule="evenodd" fill="none" stroke="#414042" stroke-width="3" stroke-miterlimit="10" d="
				M10.061,36.65"/>
			<path fill-rule="evenodd" clip-rule="evenodd" fill="none" stroke="#414042" stroke-width="3" stroke-miterlimit="10" d="
				M10.061,36.65c0,0,21.75-0.102,18.69-9.978"/>
			<polyline fill-rule="evenodd" clip-rule="evenodd" fill="#414042" points="44.381,20.647 51.337,5.08 69.818,0 84.967,9.838 			
				"/>
			<polyline fill-rule="evenodd" clip-rule="evenodd" fill="#434345" points="52.915,12.079 55.447,6.197 66.535,3.15 71.396,7 			
				"/>
			<polyline fill-rule="evenodd" clip-rule="evenodd" fill="#4A4A4C" points="71.705,8.124 69.173,14.006 58.085,17.053 
				53.224,13.204 			"/>
			
				<circle fill-rule="evenodd" clip-rule="evenodd" fill="#808285" stroke="#3D3D3E" stroke-width="4" stroke-miterlimit="10" cx="71.079" cy="38.545" r="24.75"/>
			<circle opacity="0.4" fill-rule="evenodd" clip-rule="evenodd" fill="#BCBEC0" cx="71.219" cy="38.755" r="16.74"/>
			<path fill-rule="evenodd" clip-rule="evenodd" fill="#BCBEC0" d="M65.582,23.248c0,0,12.235-4.441,19.698,7.295"/>
			<path fill-rule="evenodd" clip-rule="evenodd" fill="#414042" d="M97.658,7.322c-0.127,1.328-1.647,2.27-3.395,2.101l-7.85,0.017
				c-1.747-0.168-1.754-2.028-1.626-3.356l0,0c0.128-1.329,1.649-2.27,3.395-2.103l6.545,0.631
				C96.474,4.781,97.787,5.994,97.658,7.322L97.658,7.322z"/>
			
				<ellipse transform="matrix(0.9643 -0.2649 0.2649 0.9643 -5.122 9.2449)" fill-rule="evenodd" clip-rule="evenodd" fill="#414042" cx="31.713" cy="23.611" rx="1.917" ry="1.334"/>
			
				<ellipse transform="matrix(0.9642 -0.2652 0.2652 0.9642 -4.5758 10.5479)" fill-rule="evenodd" clip-rule="evenodd" fill="#414042" cx="36.775" cy="22.22" rx="1.917" ry="1.333"/>
			
				<ellipse transform="matrix(0.9643 -0.2649 0.2649 0.9643 -4.0229 11.8277)" fill-rule="evenodd" clip-rule="evenodd" fill="#414042" cx="41.838" cy="20.828" rx="1.917" ry="1.334"/>
		</g>
	</g>
</g>
</svg>
