<?xml version="1.0" encoding="utf-8"?>
<!-- Generator: Adobe Illustrator 16.0.4, SVG Export Plug-In . SVG Version: 6.00 Build 0)  -->
<!DOCTYPE svg PUBLIC "-//W3C//DTD SVG 1.1//EN" "http://www.w3.org/Graphics/SVG/1.1/DTD/svg11.dtd">
<svg version="1.1" xmlns="http://www.w3.org/2000/svg" xmlns:xlink="http://www.w3.org/1999/xlink" x="0px" y="0px" width="184px"
	 height="165px" viewBox="0 0 184 165" enable-background="new 0 0 184 165" xml:space="preserve">
<g id="Layer_1" display="none">
</g>
<g id="Layer_7" display="none">
</g>
<g id="Layer_3">
	<g>
		<g>
			<path fill="#58595B" stroke="#414042" stroke-width="7" stroke-miterlimit="10" d="M145.488,106.8
				c3.324,5.733,1.371,13.075-4.362,16.4l-62.285,36.117c-5.732,3.324-13.076,1.372-16.4-4.362L6.258,58.066
				c-3.324-5.733-1.372-13.076,4.361-16.4L72.905,5.549C78.637,2.225,85.98,4.178,89.305,9.91L145.488,106.8z"/>
			<path stroke="#000000" stroke-width="3" stroke-miterlimit="10" d="M87.001,22.035c3.324,5.733,8.326,9.043-4.362,16.4
				L34.194,66.527c-11.533,6.688-13.075,1.371-16.4-4.361l-0.334-0.577c-3.325-5.732-1.372-13.075,4.361-16.4l48.444-28.091
				c5.732-3.324,13.076-1.372,16.4,4.361L87.001,22.035z"/>
			
				<rect x="56.729" y="46.16" transform="matrix(0.8655 -0.5009 0.5009 0.8655 -17.3659 35.3029)" fill="#27AAE1" width="0.667" height="7.665"/>
		</g>
		<g>
			<path fill="#414042" d="M166.28,94.252c-0.188,1.28,0.477,5.721,2.117,5.962l0.185-0.104c1.639,0.239,3.448-3.709,3.634-4.988
				l11.179-76.43c0.187-1.279-0.989-2.51-2.631-2.75l0,0c-1.639-0.239-3.12,0.604-3.305,1.882L166.28,94.252z"/>
			<path d="M166.337,93.866c-0.188,1.279,0.478,5.723,2.117,5.962l0.185-0.104c1.639,0.239,3.446-3.709,3.634-4.988"/>
			<path fill="#83C441" d="M177.531,17.9c0.182-1.244,1.621-2.063,3.217-1.83c1.592,0.232,2.737,1.43,2.556,2.675"/>
		</g>
	</g>
</g>
<g id="Layer_6">
</g>
<g id="Layer_5">
</g>
<g id="Layer_10">
</g>
</svg>
