<?xml version="1.0" encoding="utf-8"?>
<!-- Generator: Adobe Illustrator 16.0.4, SVG Export Plug-In . SVG Version: 6.00 Build 0)  -->
<!DOCTYPE svg PUBLIC "-//W3C//DTD SVG 1.1//EN" "http://www.w3.org/Graphics/SVG/1.1/DTD/svg11.dtd">
<svg version="1.1" xmlns="http://www.w3.org/2000/svg" xmlns:xlink="http://www.w3.org/1999/xlink" x="0px" y="0px" width="125px"
	 height="80px" viewBox="0 0 125 80" enable-background="new 0 0 125 80" xml:space="preserve">
<g id="Layer_1" display="none">
</g>
<g id="Layer_7" display="none">
</g>
<g id="Layer_3">
</g>
<g id="Layer_6">
</g>
<g id="Layer_5">
	<g>
		<g>
			<g>
				<g>
					<path fill="#E6E7E8" d="M35.367,30.499c-1.917,4.27-3.482,8.688-5.42,12.947c1.523,0.199,3.047,0.398,4.57,0.598
						c-1.661-4.713-0.36-9.951-0.492-14.832c-0.047-1.742-2.146-3.318-3.762-2.16c-3.864,2.773-5.358,7.26-7.336,11.391
						c-1.384,2.895,2.927,5.432,4.318,2.523c1.473-3.08,2.647-7.52,5.541-9.596c-1.254-0.721-2.508-1.439-3.762-2.158
						c0.145,5.361-1.16,10.967,0.67,16.16c0.644,1.824,3.594,2.744,4.57,0.598c1.937-4.262,3.502-8.678,5.418-12.947
						C40.992,30.106,36.685,27.562,35.367,30.499L35.367,30.499z"/>
				</g>
			</g>
			<g>
				<g>
					<path fill="#E6E7E8" d="M22.408,24.177c-2.623,6.447-4.394,13.121-5.915,19.902c-0.704,3.141,4.116,4.475,4.822,1.33
						c1.521-6.781,3.291-13.457,5.915-19.904C28.446,22.519,23.607,21.231,22.408,24.177L22.408,24.177z"/>
				</g>
			</g>
			<g>
				<g>
					<path fill="#E6E7E8" d="M27.75,21.985c-5.936,2.586-7.081,10.316-8.864,15.777c-1.003,3.074,3.826,4.381,4.822,1.33
						c1.354-4.152,2.06-10.828,6.565-12.791C33.223,25.017,30.675,20.71,27.75,21.985L27.75,21.985z"/>
				</g>
			</g>
			<g>
				<g>
					<path fill="#E6E7E8" d="M31.546,21.681c-3.964,3.027-6.125,7.297-8.679,11.465c-1.69,2.758,2.636,5.268,4.316,2.523
						c2.023-3.301,3.732-7.262,6.886-9.672C36.595,24.069,34.109,19.722,31.546,21.681L31.546,21.681z"/>
				</g>
			</g>
			<g>
				<g>
					<path fill="#E6E7E8" d="M28.494,21.601c1.293-1.717,3.977-1.245,5.801-0.957c1.346,0.213,2.685-0.323,3.076-1.746
						c0.33-1.201-0.398-2.862-1.746-3.075c-4.434-0.7-8.535-0.617-11.447,3.255c-0.822,1.092-0.177,2.793,0.896,3.422
						C26.353,23.247,27.677,22.688,28.494,21.601L28.494,21.601z"/>
				</g>
			</g>
			<g>
				<g>
					<path fill="#E6E7E8" d="M38.246,38.425c10.818-3.914,17.243-2.342,19.275,4.713c-0.42-1.605-0.385-1.127,0.105,1.438
						c0.392,8.258-6.773,10.965-13.36,9.4c-2.206-1.285-4.412-2.572-6.619-3.857c0.064,0.074,0.128,0.148,0.192,0.223
						c-1.465-3.535-2.929-7.07-4.394-10.605C33.245,30.343,43.571,24.876,51.193,28.7c-1.239-0.783-0.795-0.402,1.334,1.145
						c-0.598-0.479-1.119-1.051-1.64-1.611c-0.993-1.18-0.698-0.789,0.885,1.172c-0.445-0.619-0.809-1.289-1.166-1.959
						c0.976,2.523,1.229,3.088,0.758,1.688c-0.784-2.43,0.081,4.08,0.373,1.834c-5,5-10,10-15,15
						c1.249-0.072,2.481,0.027,3.723,0.164c-5.478-0.607,0.538,0.273,1.886,0.621c0.876,0.225,1.735,0.508,2.593,0.793
						c3.057,1.016-3.19-1.521-0.408-0.193c0.697,0.334,1.343,0.748,1.983,1.178c-2.517-1.684-3.5-3.375-4.579-6.158
						c2.952,7.617,9.964,12.811,18.451,10.477c7.282-2.004,13.436-10.818,10.477-18.453c-3.333-8.598-9.591-12.75-17.949-15.778
						c-4.96-1.797-10.917-2.956-16.176-2.649c-8.99,0.523-13.896,6.502-15,15c-1.211,9.324,6.782,18.367,13.748,23.293
						c5.498,3.887,13.023,3.844,18.832,0.877c7.999-4.084,11.674-15.133,7.081-22.975c-5.095-8.697-14.535-8.752-22.715-5.203
						c-6.596,2.861-10.319,10.098-10.98,16.834c-0.593,6.039,2.332,12.523,6.52,16.732c7.02,7.053,18.681,6.348,25.236-0.889
						c5.485-6.053,5.992-15.221,0-21.213C53.894,32.86,43.737,32.364,38.246,38.425L38.246,38.425z"/>
				</g>
			</g>
			<g>
				<g>
					<path fill="#E6E7E8" d="M18.07,44.116c-1.177,5.043-1.133,10.143-1.575,15.27c4.268-1.768,8.535-3.535,12.804-5.303
						c0.91,0.945,0.083,0.623,0.453-0.852c1.993-7.951-10.226-13.814-13.708-5.777C7.98,66.06,30.128,70.657,42.844,75.226
						c0.665-4.912,1.33-9.822,1.994-14.732c-4.449,0.418-8.821-2.646-12.402-4.959c-8.153-5.264-15.665,7.727-7.57,12.953
						c5.728,3.697,12.921,7.67,19.973,7.006c8.472-0.797,10.159-11.799,1.994-14.732c-4.268-1.533-8.688-2.582-12.939-4.168
						c-0.856-0.32-1.425-0.617-2.372-1.102c-0.323-0.164-2.528-1.635-1.878-1.098c-1.002-0.826-1.019-1.525-0.463-0.082
						c-0.49-1.275,0.095,0.068-0.185,0.713c-4.569-1.928-9.139-3.854-13.708-5.779c-1.356,5.414-0.573,11.318,3.404,15.445
						c4.873,5.053,12.27,0.881,12.804-5.305c0.325-3.77,0.177-7.584,1.04-11.283C34.731,38.692,20.27,34.698,18.07,44.116
						L18.07,44.116z"/>
				</g>
			</g>
			<g>
				<g>
					<path fill="#E6E7E8" d="M29.995,71.271c9.53,4.162,23.375,10.623,32.306,1.777c3.747-3.711,3.679-9.281,5.063-14
						c2.064-7.043,4.789-13.625,5.997-20.932c1.562-9.459-12.891-13.514-14.465-3.986c-1.45,8.775-5.462,16.781-6.997,25.455
						c-0.197,1.113-0.31,2.523-0.81,3.551c1.597-0.988,1.801-1.244,0.613-0.768c-0.771,0.039-1.541,0.045-2.312,0.018
						c-4.125-0.559-8.049-2.418-11.826-4.068c-3.746-1.635-8.018-1.139-10.261,2.691C25.422,64.222,26.246,69.634,29.995,71.271
						L29.995,71.271z"/>
				</g>
			</g>
			<g>
				<g>
					<path fill="#E6E7E8" d="M58.881,38.003c0.852,0.504,1.692,1.018,2.498,1.592c-1.776-1.268-0.856-0.66-0.445-0.246
						c-0.827-1.154-1.044-1.43-0.651-0.83c-0.525-1.408-0.679-1.762-0.458-1.064c-0.564-1.855-0.149-1.816-0.188-0.898
						c0.097-2.33,0.209-1.416,0.021-0.668c-0.27,1.072-0.699,2.111-1.094,3.143c-1.46,3.824,1.583,8.221,5.238,9.225
						c4.229,1.164,7.769-1.422,9.227-5.238c1.194-3.127,2.201-6.453,1.184-9.799c-1.181-3.881-4.436-6.199-7.762-8.168
						c-3.52-2.082-8.205-0.818-10.262,2.691C54.115,31.282,55.368,35.925,58.881,38.003L58.881,38.003z"/>
				</g>
			</g>
			<g>
				<g>
					<path fill="#D1D3D4" d="M1.717,28.896c-0.149,3.564-0.45,7.012,0.206,10.545c0.78,4.195,3.757,8.611,6.136,12.049
						c1.82,2.633,6.156,0.137,4.316-2.523c-2.056-2.973-4.021-6.293-5.305-9.684c-1.213-3.203-0.492-7.062-0.354-10.387
						C6.852,25.669,1.852,25.683,1.717,28.896L1.717,28.896z"/>
				</g>
			</g>
			<g>
				<g>
					<path fill="#D1D3D4" d="M5.817,29.829c0.376-0.441,0.777-0.852,1.227-1.219c-0.503,0.412,0.146-0.062,0.263-0.131
						c0.106-0.061,0.215-0.117,0.325-0.168c-0.572,0.283-0.059,0.037,0.083-0.006c1.301-0.402,2.115-1.73,1.746-3.076
						c-0.354-1.281-1.773-2.148-3.076-1.746c-1.628,0.504-3.006,1.52-4.103,2.811c-0.882,1.037-1.021,2.514,0,3.535
						C3.187,30.733,4.935,30.868,5.817,29.829L5.817,29.829z"/>
				</g>
			</g>
			<g>
				<g>
					<path fill="#D1D3D4" d="M7.312,31.054c1.289-0.957,2.641-1.816,4-2.668c1.153-0.721,1.602-2.217,0.897-3.42
						c-0.673-1.148-2.265-1.619-3.421-0.896c-1.36,0.85-2.711,1.711-4,2.666c-1.092,0.811-1.643,2.148-0.897,3.422
						C4.523,31.235,6.215,31.868,7.312,31.054L7.312,31.054z"/>
				</g>
			</g>
			<g>
				<g>
					<path fill="#D1D3D4" d="M7.884,26.396c3.333-0.219,6.569,0.773,9.571,2.158c2.907,1.34,5.449-2.969,2.523-4.318
						c-3.785-1.744-7.871-3.117-12.095-2.84C4.684,21.604,4.663,26.604,7.884,26.396L7.884,26.396z"/>
				</g>
			</g>
			<g>
				<g>
					<path fill="#D1D3D4" d="M11.55,29.062c2.228,0.17,4.44,0.484,6.667,0.666c1.36,0.111,2.5-1.221,2.5-2.5
						c0-1.447-1.143-2.389-2.5-2.5c-2.227-0.182-4.439-0.496-6.667-0.666c-1.36-0.104-2.5,1.215-2.5,2.5
						C9.05,28.003,10.191,28.958,11.55,29.062L11.55,29.062z"/>
				</g>
			</g>
			<g opacity="0.4">
				<g>
					<path d="M13.709,50.3c-2.311-3.443-3.971-7.1-5.26-11.039c-0.42-1.283-3.32-14.357,1.673-11.541c0-1.439,0-2.879,0-4.316
						c-2.423,1.129-4.762,1.76-6.673,3.725c1.179,1.178,2.356,2.355,3.535,3.535c3.379-4.186,8.196-1.281,12.732-1.436
						c2.368-0.08,3.566-3.463,1.262-4.658c-4.468-2.32-10.548-3.568-15.023-0.666c-2.694,1.746-0.191,6.076,2.523,4.316
						c2.932-1.9,7.073-0.84,9.977,0.666c0.421-1.553,0.841-3.105,1.262-4.658c-6.286,0.213-11.55-2.945-16.268,2.9
						c-1.979,2.451,1.237,5.896,3.535,3.535c1.516-1.559,3.738-2.047,5.661-2.943c1.729-0.807,1.529-3.455,0-4.316
						c-4.294-2.424-10.735,1.098-10.823,6.16c-0.141,8.094,3.107,16.611,7.568,23.26C11.178,55.485,15.511,52.985,13.709,50.3
						L13.709,50.3z"/>
				</g>
			</g>
			<g opacity="0.4">
				<g>
					<path d="M3.391,24.134c-4.839,8.693,0.917,20.01,5.668,27.523c1.718,2.717,6.046,0.209,4.316-2.523
						c-3.641-5.76-9.451-15.678-5.666-22.477C9.278,23.837,4.959,21.315,3.391,24.134L3.391,24.134z"/>
				</g>
			</g>
			<g>
				<g>
					<path fill="#D1D3D4" d="M40.954,36.493c-3.722,3.775-4.894,8.928-5.855,13.982c-1.386,7.285-3.235,14.445-3.211,21.91
						c0.011,3.223,5.011,3.225,5,0c-0.021-6.182,1.448-11.971,2.565-17.996c0.902-4.859,1.401-10.674,5.036-14.361
						C46.754,37.729,43.22,34.192,40.954,36.493L40.954,36.493z"/>
				</g>
			</g>
			<g>
				<g>
					<path fill="#D1D3D4" d="M22.336,26.108c-5.706,9.559-2.722,20.832-6.755,30.854c1.025-0.582,2.051-1.164,3.076-1.746
						c-2.088-0.299,0.098-3.295,0.792-4.645c0.733-1.426,1.504-2.803,2.101-4.293c-1.607-0.441-3.215-0.885-4.822-1.328
						c-1.677,5.023-3.526,10.324-1.409,15.492c2.351,5.736,9.082,9.529,14.097,12.588c2.761,1.684,5.271-2.643,2.523-4.318
						c-4.284-2.611-10.203-5.707-12.207-10.598c-1.494-3.646,0.665-8.383,1.818-11.836c1.04-3.115-3.653-4.246-4.822-1.328
						c-1.745,4.359-8.158,13.834,0.6,15.088c1.477,0.211,2.516-0.354,3.076-1.746c3.846-9.559,0.875-20.656,6.251-29.66
						C28.311,25.856,23.987,23.343,22.336,26.108L22.336,26.108z"/>
				</g>
			</g>
			<g>
				<g>
					<path fill="#D1D3D4" d="M31.971,68.944c-6.811-7.15-9.385-19.018-8.812-28.621c0.192-3.223-4.81-3.205-5,0
						c-0.651,10.939,2.565,24.061,10.277,32.156C30.663,74.817,34.193,71.276,31.971,68.944L31.971,68.944z"/>
				</g>
			</g>
			<g>
				<g>
					<path fill="#D1D3D4" d="M24.12,60.169c0.077-1.738,0.099-3.479,0.176-5.217c0.061-1.363-1.183-2.5-2.5-2.5
						c-1.408,0-2.439,1.139-2.5,2.5c-0.077,1.738-0.099,3.479-0.176,5.217c-0.061,1.363,1.183,2.5,2.5,2.5
						C23.028,62.669,24.06,61.53,24.12,60.169L24.12,60.169z"/>
				</g>
			</g>
			<g>
				<g>
					<path fill="#D1D3D4" d="M28.375,64.769c0.93-11.734-3.899-23.408,0.027-34.91c-1.607-0.443-3.215-0.887-4.822-1.33
						c-1.231,4.746-0.413,9.375,0.454,14.111c1.071,5.844,0.829,11.854,1.659,17.74c0.415,2.939,4.741,1.98,4.911-0.664
						c0.336-5.223,0.152-10.434,0.068-15.662c-0.072-4.533,1.172-9.223-0.792-13.43c-1.202-2.572-5.471-0.742-4.57,1.928
						c1.85,5.48,7.158,6.807,12.159,8.42c2.83,0.914,4.175-3.047,1.927-4.568c-1.95-1.322-3.677-2.84-5.838-3.814
						c-1.54-0.695-3.09-0.135-3.673,1.494c-3.354,9.379-0.623,19.523-1.525,29.199c-0.227,2.432,3.635,3.486,4.659,1.262
						c1.808-3.926,3.49-7.891,4.821-12.006c1.506-4.656,0.668-8.041-0.621-12.596c-0.545-1.924-3.634-2.656-4.569-0.598
						c-3.97,8.73-8.579,19.434-6.271,29.182c0.359,1.518,2.349,2.369,3.673,1.494c4.062-2.684,5.185-7.451,6.006-11.994
						c0.569-3.152-3.784-4.414-4.822-1.328c-0.159,0.473-0.318,0.947-0.479,1.422c1.638,0.221,3.274,0.441,4.911,0.664
						c-0.021-6.184,1.07-11.963,2.975-17.824c1-3.076-3.829-4.383-4.821-1.33c-2.039,6.277-3.177,12.547-3.153,19.154
						c0.01,2.906,4.026,3.293,4.911,0.664c0.159-0.475,0.318-0.947,0.479-1.422c-1.607-0.443-3.215-0.887-4.822-1.328
						c-0.53,2.939-0.989,7.209-3.707,9.004c1.224,0.498,2.448,0.996,3.673,1.494c-1.947-8.225,2.42-17.969,5.766-25.328
						c-1.522-0.199-3.046-0.398-4.569-0.598c1.038,3.664,1.728,6.105,0.622,9.938c-1.075,3.725-2.7,7.301-4.318,10.812
						c1.554,0.42,3.106,0.842,4.659,1.262c0.857-9.201-1.835-18.973,1.348-27.869c-1.225,0.498-2.449,0.996-3.673,1.494
						c2.161,0.975,3.888,2.492,5.838,3.812c0.642-1.523,1.284-3.047,1.926-4.568c-2.92-0.943-7.544-1.604-8.666-4.93
						c-1.523,0.643-3.047,1.285-4.57,1.926c0.775,1.66,0.393,3.256,0.191,4.986c-0.299,2.574-0.091,5.297-0.049,7.883
						c0.072,4.578,0.193,9.127-0.101,13.699c1.637-0.221,3.273-0.443,4.911-0.664c-0.684-4.848-0.382-9.805-1.138-14.629
						c-0.756-4.822-2.235-9.713-0.976-14.564c0.816-3.148-3.789-4.357-4.822-1.33c-4.102,12.018,0.764,24.014-0.205,36.24
						C23.12,67.985,28.122,67.96,28.375,64.769L28.375,64.769z"/>
				</g>
			</g>
			<g>
				<g>
					<path fill="#F1F2F2" d="M68.359,42.827c-1.473,5.572-3.778,10.871-5.035,16.506c-0.727,3.26-0.957,9.729-3.875,11.85
						c-2.581,1.877-0.09,6.217,2.523,4.318c3.543-2.576,4.487-6.945,5.36-11.025c1.486-6.947,4.037-13.471,5.847-20.32
						C74.005,41.034,69.182,39.712,68.359,42.827L68.359,42.827z"/>
				</g>
			</g>
			<g>
				<g>
					<path fill="#F1F2F2" d="M66.777,42.821c-1.221,5.195-2.662,10.318-4.303,15.396c-1.698,5.254-3.015,11.395-8.562,13.738
						c-2.961,1.25-0.41,5.555,2.523,4.316c4.496-1.898,6.89-5.65,8.529-10.088c2.666-7.209,4.875-14.553,6.635-22.035
						C72.337,41.015,67.516,39.683,66.777,42.821L66.777,42.821z"/>
				</g>
			</g>
			<g>
				<g>
					<path fill="#F1F2F2" d="M59.18,26.655c4.101,1.424,11.78,4.41,12.447,9.367c0.43,3.184,5.246,1.822,4.822-1.328
						c-0.927-6.875-10.243-10.881-15.941-12.861C57.454,20.772,56.153,25.603,59.18,26.655L59.18,26.655z"/>
				</g>
			</g>
			<path opacity="0.4" d="M34.6,31.829c0,0,20.908-11.156,37.084-2.012c16.178,9.145-37.999-25.389-45.659-10.902
				C20.934,28.544,34.6,31.829,34.6,31.829z"/>
			<path fill="#A76C3A" d="M69.947,41.235c1.642-3.438,0.352-8.881-3.806-8.242c-11.05,1.697-38.281-7.391-38.281-7.391
				s9.409,11.611,18.734,12.908C55.919,39.806,63.771,43.903,69.947,41.235"/>
			<path opacity="0.2" d="M27.86,25.603c-0.033-0.76,12.492,3.77,12.492,3.77s2.661,4.105,9.721,8.99
				C50.073,38.362,28.155,32.165,27.86,25.603z"/>
			<g id="XMLID_2_">
				<g>
					<path fill="none" stroke="#414042" stroke-width="3" stroke-miterlimit="10" d="M76.011,35.982
						c-2.135,6.335-15.324,7.615-29.453,2.854c-14.13-4.761-23.854-13.764-21.719-20.099c2.138-6.346,13.065-4.265,27.195,0.496
						C66.163,23.996,78.149,29.637,76.011,35.982z"/>
					<path fill="none" stroke="#414042" stroke-width="3" stroke-miterlimit="10" d="M63.979,71.688
						c-2.135,6.335-15.324,7.616-29.454,2.854c-14.129-4.761-23.854-13.763-21.719-20.099"/>
					<path fill="none" stroke="#414042" stroke-width="3" stroke-miterlimit="10" d="M24.839,18.738l-2.163,6.417l-9.869,29.288
						l-0.224,0.663c0,0-14.364-15.712-10.363-27.711c4.001-12,20.163-2.34,20.163-2.34"/>
					<polyline fill="none" stroke="#414042" stroke-width="3" stroke-miterlimit="10" points="76.011,35.982 63.979,71.688 
						63.756,72.351 					"/>
				</g>
			</g>
			<path fill="none" stroke="#414042" stroke-width="3" stroke-miterlimit="10" d="M20.717,30.562c0,0-25.833-10-7.167,21.166"/>
		</g>
		<path fill="#A76C3A" d="M81.563,22.985c0,0,19.715-32.243,38.652-20.354c18.938,11.889-25.346-7.992-12.255,12.371
			C121.051,35.366,99.474,4.13,81.563,22.985z"/>
		<path opacity="0.2" d="M108.127,15.003c11.802,21.137-7.41-10.775-26.397,7.982C81.729,22.985,97.55-3.938,108.127,15.003z"/>
		<path opacity="0.1" fill="#FFFFFF" d="M121.05,3.228c6.112,4.042-19.833-0.166-19.833-0.166S110.717-3.605,121.05,3.228z"/>
	</g>
</g>
<g id="Layer_10">
</g>
</svg>
