<?xml version="1.0" encoding="utf-8"?>
<!-- Generator: Adobe Illustrator 16.0.4, SVG Export Plug-In . SVG Version: 6.00 Build 0)  -->
<!DOCTYPE svg PUBLIC "-//W3C//DTD SVG 1.1//EN" "http://www.w3.org/Graphics/SVG/1.1/DTD/svg11.dtd">
<svg version="1.1" id="Layer_1" xmlns="http://www.w3.org/2000/svg" xmlns:xlink="http://www.w3.org/1999/xlink" x="0px" y="0px"
	 width="502.475px" height="71.997px" viewBox="0 0 502.475 71.997" enable-background="new 0 0 502.475 71.997"
	 xml:space="preserve">
<g>
	<path fill="#58595B" d="M114.279,44.329c0,6.879-3.794,10.825-10.117,10.825c-3.945,0-7.334-1.872-9.813-5.058l2.023-3.237
		c2.226,2.681,5.008,4.097,7.739,4.097c3.895,0,6.07-2.327,6.07-6.728v-20.79H97.536v-3.895h16.743V44.329z"/>
	<path fill="#58595B" d="M128.192,23.438v11.634h17.856v3.895h-17.856v12.14h20.638v3.844h-24.685V19.543h24.027v3.895H128.192z"/>
	<path fill="#58595B" d="M161.126,23.438v12.443h16.541v3.895h-16.541v15.175h-4.046V19.543h22.509v3.895H161.126z"/>
	<path fill="#58595B" d="M189.608,23.438v12.443h16.541v3.895h-16.541v15.175h-4.046V19.543h22.509v3.895H189.608z"/>
	<path fill="#58595B" d="M229.876,43.671c-0.759,0.05-1.568,0.101-2.378,0.101h-9.408v11.179h-4.046V19.543h13.455
		c8.853,0,13.961,4.35,13.961,11.887c0,5.868-2.832,9.813-7.941,11.482l8.296,12.039h-4.604L229.876,43.671z M227.498,39.877
		c6.424,0,10.066-2.833,10.066-8.346c0-5.362-3.643-8.093-10.066-8.093h-9.408v16.439H227.498z"/>
	<path fill="#58595B" d="M254.666,23.438v11.634h17.856v3.895h-17.856v12.14h20.638v3.844h-24.685V19.543h24.027v3.895H254.666z"/>
	<path fill="#58595B" d="M296.098,54.951h-3.996V42.963l-13.708-23.42h4.198l11.482,18.463l11.331-18.463h4.147l-13.455,23.268
		V54.951z"/>
	<path fill="#58595B" d="M355.843,54.951h-4.856L340.213,40.13l-10.674,14.821h-4.754l12.999-18.21l-12.089-17.198h4.755
		l9.763,13.658l9.863-13.658h4.755l-12.039,16.996L355.843,54.951z"/>
	<path fill="#58595B" d="M362.676,54.951V19.543h4.047v35.408H362.676z"/>
	<path fill="#58595B" d="M411.187,37.247c0,9.965-8.194,17.906-18.514,17.906c-10.369,0-18.563-7.941-18.563-17.906
		c0-10.015,8.194-17.805,18.563-17.805C402.992,19.442,411.187,27.282,411.187,37.247z M378.206,37.247
		c0,7.79,6.576,14.012,14.467,14.012c7.892,0,14.366-6.222,14.366-14.012c0-7.79-6.475-13.961-14.366-13.961
		C384.782,23.286,378.206,29.458,378.206,37.247z"/>
	<path fill="#58595B" d="M443.869,54.951l-21.245-28.428v28.428h-4.047V19.543h4.199l21.244,28.479V19.543h3.996v35.408H443.869z"/>
	<path fill="#58595B" d="M487.072,37.652V50.5c-3.49,2.782-8.396,4.653-13.151,4.653c-10.269,0-18.463-7.941-18.463-17.906
		s8.245-17.805,18.665-17.805c4.906,0,9.661,1.872,13.051,4.856l-2.327,3.035c-2.884-2.58-6.778-4.097-10.724-4.097
		c-8.094,0-14.568,6.222-14.568,14.011c0,7.84,6.525,14.062,14.619,14.062c3.187,0,6.575-1.113,9.307-2.984V37.652H487.072z"/>
</g>
<g>
	<rect x="35.097" y="4.931" fill="#27536E" width="4.684" height="61.653"/>
	<polyline fill="#1C75BC" points="39.809,66.583 8.674,47.092 6.339,50.174 37.471,69.666 	"/>
	<polygon fill="#5694BA" points="37.51,69.543 39.809,66.583 39.754,4.929 38.751,5.204 	"/>
	
		<rect x="35.097" y="4.932" transform="matrix(-0.4359 -0.9 0.9 -0.4359 21.5759 85.0412)" fill="#27536E" width="4.683" height="61.655"/>
	<polyline fill="#5694BA" points="39.809,66.583 8.674,47.092 6.339,50.174 37.471,69.666 	"/>
</g>
</svg>
