<?xml version="1.0" encoding="UTF-8" standalone="no"?>
<svg width="295px" height="367px" viewBox="0 0 295 367" version="1.1" xmlns="http://www.w3.org/2000/svg" xmlns:xlink="http://www.w3.org/1999/xlink">
    <!-- Generator: Sketch 3.7.2 (28276) - http://www.bohemiancoding.com/sketch -->
    <title>love</title>
    <desc>Created with Sketch.</desc>
    <defs>
        <polygon id="path-1" points="0.7411 1 3.3871 1 3.3871 0.808373349 0.7411 0.808373349 0.7411 1"></polygon>
        <polygon id="path-3" points="149.844 142.032912 149.844 0.847547419 0.696288736 0.847547419 0.696288736 142.032912 149.844 142.032912"></polygon>
    </defs>
    <g id="Page-1" stroke="none" stroke-width="1" fill="none" fill-rule="evenodd">
        <g id="love" transform="translate(3.000000, 0.000000)">
            <g id="computer" transform="translate(15.000000, 64.000000)">
                <path d="M170.275,78.7174 C169.927,78.3064 169.681,78.0004 169.419,77.7084 C147.68,53.4554 125.939,29.2054 104.208,4.9454 C103.719,4.4004 103.227,4.1714 102.462,4.1684 C72.732,4.0364 43.001,3.8754 13.271,3.7194 C10.689,3.7054 8.107,3.7054 5.317,3.6994 C5.791,4.2504 6.116,4.6394 6.452,5.0184 C30.176,31.8284 53.901,58.6384 77.626,85.4474 C84.027,92.6804 90.439,99.9044 96.814,107.1604 C97.388,107.8134 97.868,107.9714 98.635,107.5954 C99.458,107.1924 100.324,106.8764 101.176,106.5334 C111.514,102.3804 121.854,98.2334 132.191,94.0754 C142.601,89.8884 153.008,85.6924 163.415,81.4984 C165.668,80.5904 167.918,79.6734 170.275,78.7174 M100.842,112.7474 C100.51,112.6244 100.189,112.4424 99.847,112.3874 C96.505,111.8544 94.678,109.3124 92.649,107.0174 C81.437,94.3374 70.214,81.6674 58.997,68.9904 C53.098,62.3234 47.21,55.6474 41.309,48.9814 C32.417,38.9394 23.517,28.9044 14.625,18.8634 C10.258,13.9314 5.902,8.9904 1.533,4.0604 C1.248,3.7394 1.048,3.3224 0.611,3.1524 C0.448,2.4514 -0.048,1.3184 0.19,1.1344 C0.765,0.6894 1.683,0.6874 2.462,0.5074 C4.91,0.8554 7.375,0.6654 9.83,0.6964 C17.403,0.7924 24.977,0.7754 32.551,0.8144 C49.332,0.9004 66.113,0.9964 82.894,1.0834 C89.829,1.1184 96.765,1.1544 103.7,1.1514 C104.546,1.1514 105.125,1.4414 105.669,2.0494 C114.75,12.2014 123.843,22.3424 132.934,32.4844 C143.679,44.4694 154.425,56.4534 165.17,68.4384 C167.623,71.1744 170.082,73.9054 172.519,76.6554 C173.008,77.2074 173.385,77.4754 174.214,77.1204 C177.435,75.7424 180.705,74.4774 183.96,73.1794 C184.367,73.0174 184.795,72.9074 185.212,72.7734 C184.774,73.9604 185.302,74.7614 186.168,75.5434 C186.907,76.2104 187.689,76.8104 188.468,77.4204 C183.375,79.4864 178.285,81.5604 173.188,83.6144 C167.72,85.8164 162.242,87.9914 156.774,90.1914 C151.196,92.4354 145.628,94.7074 140.048,96.9464 C133.505,99.5714 126.95,102.1644 120.408,104.7914 C114.753,107.0604 109.11,109.3584 103.461,111.6414 C103.173,111.7574 102.792,111.7834 102.946,112.2604 C102.79,112.2964 102.634,112.3324 102.478,112.3684 C101.994,112.0494 101.634,112.2664 101.309,112.6394 C101.153,112.6754 100.997,112.7114 100.842,112.7474" id="Fill-1" fill="#BCBDC0"></path>
                <path d="M101.3092,112.6389 C101.6332,112.2669 101.9942,112.0499 102.4782,112.3689 C102.0882,112.4589 101.6992,112.5489 101.3092,112.6389" id="Fill-3" fill="#FEFEFE"></path>
                <path d="M188.4678,77.4208 C187.6888,76.8108 186.9068,76.2098 186.1678,75.5438 C185.3018,74.7618 184.7738,73.9598 185.2128,72.7728 C187.8138,71.6878 190.4088,70.5858 193.0188,69.5198 C196.2188,68.2138 199.4298,66.9328 202.6398,65.6508 C206.7728,63.9998 210.9118,62.3628 215.0448,60.7098 C218.4768,59.3378 221.9038,57.9518 225.3318,56.5688 C229.5318,54.8748 233.7338,53.1828 237.9308,51.4808 C242.9398,49.4498 247.9418,47.4048 252.9508,45.3748 C256.3758,43.9868 259.8048,42.6088 263.2378,41.2408 C263.8818,40.9838 264.4938,41.0658 264.9848,41.6148 C265.5478,42.2438 265.5188,42.9358 265.1178,43.6088 C263.6378,46.0908 261.9448,48.1158 258.9488,49.1608 C253.2528,51.1488 247.7278,53.6248 242.1228,55.8748 C236.5908,58.0968 231.0408,60.2748 225.5088,62.4978 C221.0108,64.3058 216.5318,66.1618 212.0358,67.9758 C207.5028,69.8048 202.9598,71.6088 198.4218,73.4258 C195.1028,74.7548 191.7858,76.0888 188.4678,77.4208" id="Fill-5" fill="#D1D3D4"></path>
                <path d="M95.5932,101.0744 C96.5042,102.1274 97.4552,103.1494 98.3082,104.2474 C98.7452,104.8094 99.1412,104.8274 99.7302,104.5804 C101.0932,104.0104 102.4722,103.4794 103.8512,102.9474 C113.1262,99.3734 122.4052,95.8074 131.6802,92.2304 C143.2282,87.7774 154.7702,83.3064 166.3262,78.8734 C167.3202,78.4934 167.4242,78.2764 166.6682,77.4234 C145.6172,53.6874 124.5942,29.9264 103.5882,6.1514 C103.0022,5.4874 102.4242,5.4184 101.6842,5.6254 C101.5732,5.5904 101.4632,5.5244 101.3522,5.5244 C94.6512,5.5734 87.9512,5.6334 81.2502,5.6804 C61.2272,5.8204 41.2052,5.9544 21.1822,6.0944 C17.8462,6.1174 14.5102,6.1554 11.1562,6.1874 C11.1892,6.7374 11.5592,6.9564 11.8082,7.2364 C14.7992,10.6044 17.8042,13.9614 20.8022,17.3224 C42.3222,41.4494 63.8392,65.5784 85.3632,89.7014 C88.7572,93.5064 92.1822,97.2844 95.5932,101.0744 M170.2752,78.7174 C167.9182,79.6734 165.6682,80.5904 163.4152,81.4984 C153.0072,85.6924 142.6012,89.8884 132.1902,94.0754 C121.8542,98.2334 111.5142,102.3804 101.1762,106.5334 C100.3242,106.8764 99.4582,107.1924 98.6352,107.5954 C97.8672,107.9714 97.3882,107.8134 96.8132,107.1604 C90.4382,99.9044 84.0262,92.6804 77.6252,85.4474 C53.9002,58.6384 30.1762,31.8284 6.4522,5.0184 C6.1162,4.6394 5.7912,4.2504 5.3172,3.6994 C8.1072,3.7064 10.6892,3.7054 13.2712,3.7194 C43.0012,3.8754 72.7312,4.0374 102.4622,4.1684 C103.2272,4.1724 103.7192,4.4004 104.2082,4.9454 C125.9392,29.2054 147.6802,53.4554 169.4192,77.7084 C169.6812,78.0004 169.9272,78.3064 170.2752,78.7174" id="Fill-7" fill="#2D2A2B"></path>
                <path d="M97.7271,35.3793 C97.6691,36.9363 98.1511,38.4393 98.2081,40.0463 C97.7931,40.0343 97.3991,40.0033 97.0061,40.0143 C94.8951,40.0723 94.0131,41.0483 93.9991,43.1773 C93.9951,43.8583 94.2321,44.1063 94.8081,43.8843 C96.8361,43.1033 97.9981,43.9473 98.6681,45.8283 C98.7161,45.9633 98.8571,46.0653 98.9541,46.1823 C98.9981,46.2333 99.0411,46.2833 99.0841,46.3343 C99.1351,46.2613 99.1861,46.1883 99.2371,46.1153 C99.4391,45.7883 99.6941,45.4823 99.8351,45.1303 C100.2431,44.1113 100.6851,44.2483 101.1891,45.0433 C101.1021,45.1303 101.0151,45.2163 100.9281,45.3023 C100.2511,45.6943 100.3291,46.4293 100.1771,47.0393 C99.9781,47.8393 99.6641,47.8353 99.1571,47.3003 C98.5771,46.6873 98.1191,45.9873 97.7281,45.2483 C97.2551,44.3563 96.5081,44.6753 95.8421,44.8243 C95.1211,44.9863 94.9281,45.5513 95.0741,46.2193 C95.1761,46.6853 95.3161,47.1473 95.4931,47.5903 C97.1561,51.7493 99.9691,55.0083 103.5121,57.6633 C105.3151,59.0143 107.2681,60.0733 109.5941,60.2723 C110.7661,60.3733 111.4121,59.8303 111.7151,58.7853 C111.8471,58.3303 111.9241,57.8493 111.9491,57.3753 C112.2251,52.1363 110.3251,47.6223 107.2721,43.5063 C106.9411,43.0593 106.5051,42.6703 105.9691,42.4763 C105.1991,42.1973 104.5201,42.1643 104.6261,43.5183 C104.1671,42.8193 103.7101,42.3873 103.5871,41.7423 C104.1501,41.5783 104.6311,41.4393 105.2691,41.2543 C104.0741,40.1503 103.0511,39.1163 101.3811,39.2053 C100.7061,39.2413 99.9461,40.0293 99.4371,39.4093 C99.0351,38.9183 99.0991,38.0433 98.9671,37.3363 C98.8861,36.9043 98.7721,36.4693 98.7691,36.0353 C98.7661,35.4973 98.4341,35.3723 98.0251,35.2803 C97.9341,35.2453 97.8441,35.2093 97.7531,35.1733 C97.7441,35.2423 97.7361,35.3103 97.7271,35.3793 M124.4201,66.9363 C127.2091,66.2983 129.8561,65.2143 132.5761,64.3573 C132.8681,64.2653 133.2721,64.1403 133.1191,63.7293 C132.9661,63.3193 132.5651,63.5073 132.2871,63.6003 C129.6141,64.4863 126.8911,65.2253 124.2881,66.3163 C124.0171,66.3703 123.7361,66.3953 123.4751,66.4803 C117.7871,68.3413 112.1011,70.2073 106.4161,72.0763 C104.8621,72.5873 103.3121,73.1113 101.7611,73.6323 C101.3991,73.7543 100.8201,73.8053 101.0211,74.3373 C101.2141,74.8493 101.7011,74.4983 102.0651,74.4073 C102.1041,74.3973 102.1381,74.3743 102.1761,74.3623 C106.8401,72.8303 111.5131,71.3263 116.1641,69.7573 C118.9201,68.8273 121.7311,68.0603 124.4201,66.9363 M101.6841,5.6253 C102.4241,5.4183 103.0021,5.4873 103.5881,6.1513 C124.5941,29.9263 145.6171,53.6873 166.6681,77.4233 C167.4241,78.2763 167.3201,78.4933 166.3261,78.8743 C154.7701,83.3063 143.2281,87.7773 131.6801,92.2303 C122.4051,95.8073 113.1261,99.3733 103.8511,102.9473 C102.4721,103.4793 101.0931,104.0103 99.7301,104.5803 C99.1411,104.8273 98.7451,104.8093 98.3081,104.2473 C97.4551,103.1493 96.5041,102.1273 95.5931,101.0743 C95.5671,100.8363 95.5651,100.5933 95.5101,100.3623 C94.0091,94.0443 92.6911,87.6963 91.7931,81.2543 C91.1741,76.8063 90.7831,72.3443 90.5361,67.8753 C90.1461,60.8063 90.3121,53.7293 90.9951,46.6793 C91.4671,41.8023 92.1731,36.9583 93.1741,32.1523 C94.7871,24.4033 96.9991,16.8543 100.1071,9.5663 C100.6601,8.2683 101.6531,7.1343 101.6841,5.6253" id="Fill-9" fill="#FDFEFE"></path>
                <path d="M101.6842,5.6251 C101.6532,7.1341 100.6602,8.2681 100.1072,9.5661 C96.9992,16.8541 94.7872,24.4031 93.1742,32.1521 C92.1732,36.9581 91.4672,41.8021 90.9952,46.6791 C90.3122,53.7291 90.1462,60.8061 90.5362,67.8751 C90.7822,72.3441 91.1742,76.8071 91.7932,81.2541 C92.6912,87.6961 94.0092,94.0441 95.5102,100.3621 C95.5642,100.5931 95.5662,100.8371 95.5932,101.0741 C92.1822,97.2841 88.7572,93.5061 85.3632,89.7011 C63.8392,65.5781 42.3222,41.4491 20.8022,17.3231 C17.8042,13.9611 14.7992,10.6041 11.8082,7.2361 C11.5592,6.9561 11.1892,6.7381 11.1562,6.1871 C14.5102,6.1561 17.8462,6.1171 21.1822,6.0941 C41.2052,5.9541 61.2272,5.8201 81.2502,5.6801 C87.9512,5.6331 94.6512,5.5731 101.3522,5.5251 C101.4632,5.5241 101.5732,5.5901 101.6842,5.6251" id="Fill-11" fill="#E5E6E7"></path>
                <path d="M103.4479,46.6657 C102.8739,46.8697 102.7099,45.8507 102.0079,46.1807 C102.3899,46.7717 102.8409,47.1677 103.4439,47.3897 C104.0219,47.6257 103.9119,47.2047 103.8539,46.9247 C103.6819,46.0897 103.4769,45.2627 103.2629,44.3367 C104.1689,44.5167 104.8129,45.0517 105.6879,45.1047 C105.4739,44.4437 105.5159,43.7907 104.4449,44.0137 C103.8629,44.1347 103.1959,43.5327 102.4009,43.5217 C102.7739,44.6407 103.1109,45.6527 103.4479,46.6657 M98.0249,35.2807 C98.4339,35.3727 98.7659,35.4967 98.7699,36.0357 C98.7719,36.4697 98.8859,36.9047 98.9669,37.3357 C99.0989,38.0427 99.0359,38.9187 99.4379,39.4097 C99.9459,40.0297 100.7059,39.2407 101.3809,39.2047 C103.0509,39.1167 104.0739,40.1497 105.2699,41.2537 C104.6309,41.4397 104.1509,41.5787 103.5869,41.7417 C103.7099,42.3877 104.1679,42.8187 104.6259,43.5187 C104.5199,42.1637 105.1989,42.1977 105.9689,42.4757 C106.5049,42.6697 106.9409,43.0597 107.2719,43.5057 C110.3249,47.6227 112.2249,52.1357 111.9489,57.3757 C111.9249,57.8487 111.8469,58.3307 111.7149,58.7857 C111.4119,59.8307 110.7659,60.3737 109.5939,60.2727 C107.2679,60.0727 105.3149,59.0147 103.5119,57.6627 C99.9699,55.0087 97.1569,51.7487 95.4929,47.5897 C95.3159,47.1477 95.1759,46.6847 95.0739,46.2197 C94.9279,45.5507 95.1209,44.9867 95.8419,44.8247 C96.5089,44.6757 97.2559,44.3567 97.7279,45.2477 C98.1189,45.9877 98.5769,46.6867 99.1569,47.2997 C99.6639,47.8357 99.9779,47.8397 100.1769,47.0387 C100.3289,46.4287 100.2509,45.6947 100.9279,45.3027 C101.1819,45.5227 101.3089,46.1567 101.8099,45.5727 C101.7979,45.3927 101.6839,45.3257 101.5209,45.3137 C101.4099,45.2237 101.2999,45.1337 101.1889,45.0437 C100.6849,44.2487 100.2429,44.1107 99.8349,45.1307 C99.6939,45.4827 99.4389,45.7887 99.2369,46.1157 C99.1429,46.1377 99.0489,46.1597 98.9549,46.1827 C98.8569,46.0647 98.7169,45.9627 98.6679,45.8277 C97.9989,43.9477 96.8369,43.1027 94.8079,43.8847 C94.2319,44.1067 93.9949,43.8577 93.9989,43.1777 C94.0129,41.0477 94.8949,40.0727 97.0059,40.0147 C97.3989,40.0037 97.7929,40.0347 98.2089,40.0467 C98.1509,38.4397 97.6689,36.9367 97.7269,35.3797 C97.8269,35.3467 97.9259,35.3137 98.0249,35.2807" id="Fill-13" fill="#282526"></path>
                <path d="M124.4203,66.9363 C121.7313,68.0603 118.9193,68.8273 116.1643,69.7573 C111.5133,71.3263 106.8403,72.8303 102.1763,74.3623 C102.1383,74.3743 102.1033,74.3973 102.0653,74.4073 C101.7013,74.4983 101.2133,74.8493 101.0203,74.3373 C100.8193,73.8053 101.3993,73.7543 101.7613,73.6323 C103.3113,73.1113 104.8613,72.5873 106.4153,72.0763 C112.1003,70.2073 117.7873,68.3413 123.4743,66.4803 C123.7353,66.3953 124.0163,66.3703 124.2883,66.3163 C124.3323,66.5233 124.3763,66.7293 124.4203,66.9363" id="Fill-15" fill="#68696B"></path>
                <path d="M124.4203,66.9363 C124.3763,66.7293 124.3323,66.5233 124.2883,66.3163 C126.8913,65.2253 129.6143,64.4863 132.2873,63.6003 C132.5653,63.5073 132.9663,63.3193 133.1193,63.7293 C133.2723,64.1403 132.8683,64.2653 132.5753,64.3573 C129.8563,65.2143 127.2083,66.2983 124.4203,66.9363" id="Fill-17" fill="#9C9EA1"></path>
                <path d="M98.9546,46.1823 C99.0486,46.1603 99.1426,46.1373 99.2366,46.1153 C99.1856,46.1883 99.1346,46.2613 99.0836,46.3343 C99.0406,46.2843 98.9976,46.2333 98.9546,46.1823" id="Fill-19" fill="#2E2B2C"></path>
                <path d="M98.0253,35.2808 C97.9263,35.3138 97.8263,35.3468 97.7273,35.3798 C97.7363,35.3108 97.7443,35.2418 97.7533,35.1728 C97.8443,35.2088 97.9343,35.2448 98.0253,35.2808" id="Fill-21" fill="#2E2B2C"></path>
                <path d="M103.4479,46.6657 C103.1109,45.6527 102.7739,44.6407 102.4009,43.5217 C103.1959,43.5327 103.8629,44.1347 104.4449,44.0137 C105.5159,43.7907 105.4739,44.4437 105.6879,45.1047 C104.8129,45.0517 104.1689,44.5167 103.2629,44.3367 C103.4769,45.2627 103.6819,46.0897 103.8539,46.9247 C103.9119,47.2047 104.0219,47.6257 103.4439,47.3897 C103.4029,47.1477 103.7329,46.9087 103.4479,46.6657" id="Fill-23" fill="#E5E6E7"></path>
                <path d="M103.4479,46.6657 C103.7329,46.9087 103.4029,47.1477 103.4439,47.3897 C102.8409,47.1677 102.3899,46.7717 102.0079,46.1807 C102.7099,45.8507 102.8739,46.8697 103.4479,46.6657" id="Fill-25" fill="#C8CACC"></path>
                <path d="M101.8097,45.5731 C101.3087,46.1571 101.1817,45.5231 100.9277,45.3021 C101.0147,45.2161 101.1017,45.1301 101.1887,45.0441 C101.2997,45.1341 101.4097,45.2241 101.5207,45.3141 C101.6167,45.4001 101.7137,45.4871 101.8097,45.5731" id="Fill-27" fill="#FDFEFE"></path>
                <path d="M101.8097,45.5731 C101.7137,45.4871 101.6167,45.4001 101.5207,45.3141 C101.6837,45.3261 101.7977,45.3931 101.8097,45.5731" id="Fill-29" fill="#C8CACC"></path>
            </g>
            <g id="tablet" transform="translate(0.000000, 183.000000)">
                <path d="M119.2837,87.1565 C122.0867,91.9915 120.4397,98.1835 115.6047,100.9875 L63.0777,131.4455 C58.2437,134.2495 52.0507,132.6035 49.2477,127.7675 L1.8667,46.0585 C-0.9363,41.2235 0.7097,35.0315 5.5447,32.2275 L58.0727,1.7685 C62.9057,-1.0345 69.0997,0.6125 71.9027,5.4475 L119.2837,87.1565 Z" id="Fill-31" fill="#57585A"></path>
                <path d="M119.2837,87.1565 C122.0867,91.9915 120.4397,98.1835 115.6047,100.9875 L63.0777,131.4455 C58.2437,134.2495 52.0507,132.6035 49.2477,127.7675 L1.8667,46.0585 C-0.9363,41.2235 0.7097,35.0315 5.5447,32.2275 L58.0727,1.7685 C62.9057,-1.0345 69.0997,0.6125 71.9027,5.4475 L119.2837,87.1565 L119.2837,87.1565 Z" id="Stroke-33" stroke="#404041" stroke-width="7"></path>
                <path d="M69.9599,15.6722 C72.7629,20.5072 76.9819,23.2992 66.2809,29.5032 L25.4269,53.1932 C15.6999,58.8342 14.3999,54.3502 11.5959,49.5152 L11.3139,49.0292 C8.5099,44.1942 10.1569,38.0022 14.9919,35.1982 L55.8469,11.5082 C60.6809,8.7042 66.8739,10.3512 69.6769,15.1862 L69.9599,15.6722 Z" id="Fill-35" fill="#221F20"></path>
                <path d="M69.9599,15.6722 C72.7629,20.5072 76.9819,23.2992 66.2809,29.5032 L25.4269,53.1932 C15.6999,58.8342 14.3999,54.3502 11.5959,49.5152 L11.3139,49.0292 C8.5099,44.1942 10.1569,38.0022 14.9919,35.1982 L55.8469,11.5082 C60.6809,8.7042 66.8739,10.3512 69.6769,15.1862 L69.9599,15.6722 L69.9599,15.6722 Z" id="Stroke-37" stroke="#221F20" stroke-width="3"></path>
                <polygon id="Fill-39" fill="#27A9E1" points="46.5764 41.9043 46.0894 42.1863 42.8464 36.5933 43.3334 36.3113"></polygon>
            </g>
            <g id="pen" transform="translate(186.000000, 39.000000)">
                <path d="M0.4959,75.9418 C0.1369,77.1838 0.1899,81.6728 1.7829,82.1358 L1.9799,82.0568 C3.5709,82.5168 5.8999,78.8518 6.2589,77.6088 L27.7229,3.4088 C28.0819,2.1668 27.0839,0.7878 25.4899,0.3268 C23.8989,-0.1332 22.3169,0.4998 21.9609,1.7418 L0.4959,75.9418 Z" id="Fill-41" fill="#404041"></path>
                <path d="M0.6043,75.5668 C0.2443,76.8088 0.2993,81.3008 1.8913,81.7608 L2.0883,81.6828 C3.6793,82.1428 6.0073,78.4768 6.3673,77.2348" id="Fill-43" fill="#221F20"></path>
                <path d="M22.0213,1.8271 C22.3713,0.6201 23.9083,0.0041 25.4573,0.4521 C27.0023,0.8991 27.9743,2.2411 27.6253,3.4491" id="Fill-45" fill="#83C340"></path>
            </g>
            <g id="pencil" transform="translate(134.000000, 0.000000)">
                <path d="M27.9328,75.8815 C28.3818,77.0935 31.0968,80.6695 32.6528,80.0935 L32.7638,79.9135 C34.3168,79.3355 34.0068,75.0045 33.5558,73.7925 L6.6528,1.3865 C6.2038,0.1745 4.5808,-0.3405 3.0248,0.2375 C1.4718,0.8155 0.5788,2.2645 1.0308,3.4755 L27.9328,75.8815 Z" id="Fill-47" fill="#E3C930"></path>
                <path d="M27.9318,75.881 C28.3808,77.093 31.0998,80.671 32.6518,80.093 L32.7638,79.913 C34.3168,79.336 34.0058,75.004 33.5558,73.793" id="Fill-49" fill="#C3996B"></path>
                <path d="M6.5988,1.4767 C6.1608,0.2977 4.5818,-0.2023 3.0728,0.3577 C1.5618,0.9197 0.6928,2.3297 1.1298,3.5077" id="Fill-51" fill="#EE4279"></path>
            </g>
            <g id="coffee" transform="translate(92.000000, 314.381000)">
                <path d="M8.9094,32.1049 C9.3214,30.8839 9.6694,29.8569 10.0164,28.8289 C10.8014,26.5019 11.5904,24.1759 12.3654,21.8459 C12.4464,21.5999 12.7294,21.2929 12.1784,21.1439 C10.9224,20.8039 9.6554,20.5189 8.3524,20.6039 C6.3314,20.7369 5.4884,21.6969 5.6914,23.7029 C5.9984,26.7279 7.4424,29.3289 8.9094,32.1049 L8.9094,32.1049 Z M43.3874,28.7129 C40.5104,28.9779 37.6654,28.7359 34.8404,28.1759 C32.8884,27.7899 31.0034,27.1699 29.1084,26.5829 C28.9714,26.5139 28.8404,26.4339 28.6984,26.3779 C23.7344,24.3969 19.1384,21.9039 16.0414,17.2539 C15.9754,17.3739 15.9134,17.4559 15.8824,17.5479 C13.7674,23.8209 11.6534,30.0939 9.5424,36.3679 C9.3674,36.8909 9.3304,37.4189 9.4634,37.9719 C9.8624,39.6339 10.8904,40.8969 12.0874,42.0169 C15.5264,45.2349 19.6654,47.1869 24.1204,48.5439 C27.6184,49.6279 31.1794,50.2279 34.8554,49.9299 C36.1834,49.8559 37.4654,49.5859 38.6854,49.0459 C39.8564,48.5279 40.6384,47.6999 41.0524,46.4459 C42.8584,40.9769 44.7124,35.5239 46.5474,30.0649 C46.8044,29.3009 47.0574,28.5359 47.3504,27.6579 C45.9844,28.2639 44.6904,28.5079 43.3874,28.7129 L43.3874,28.7129 Z M4.9434,16.2019 C4.0834,16.4509 3.5704,17.1019 3.1544,17.8219 C2.2004,19.4739 2.1344,21.2999 2.3954,23.1049 C2.7924,25.8569 3.9774,28.3369 5.4114,30.6919 C5.6944,31.1579 5.8934,31.7269 6.4464,32.1089 C6.5124,31.6739 6.2954,31.4559 6.1774,31.2119 C5.4114,29.6269 4.6494,28.0369 4.1914,26.3319 C3.6264,24.2279 3.2714,22.1189 4.6544,20.1509 C5.7814,19.0739 7.1344,18.6609 8.6784,18.6639 C9.9834,18.6669 11.2474,18.8669 12.4984,19.1919 C12.9054,19.2979 13.2834,19.4349 13.3664,18.8479 C13.4394,18.3219 14.1514,17.7369 13.1924,17.2879 C11.3324,16.4179 9.4144,15.7139 7.3534,15.6389 C6.5484,15.6089 5.6394,15.5689 4.9434,16.2019 L4.9434,16.2019 Z M44.8084,19.0459 C44.8224,18.8039 44.6094,18.7679 44.4634,18.6879 C42.2814,17.4949 40.0304,16.4539 37.6744,15.6479 C33.2024,13.9239 28.6674,12.3979 23.9314,11.5789 C22.3524,11.3059 20.7394,11.1509 19.1564,11.6349 C17.8634,12.0309 17.2334,12.8559 17.2234,14.1229 C17.2134,15.4509 17.8664,16.4909 18.6724,17.4639 C18.7234,17.5129 18.7744,17.5619 18.8254,17.6109 L18.8194,17.6069 C18.9374,17.9639 19.2054,18.2119 19.4584,18.4679 C21.4574,20.4919 23.8214,21.9989 26.3614,23.2319 C28.1894,24.1199 30.0514,24.9419 32.0504,25.3899 L32.0514,25.3899 C32.1214,25.5159 32.2354,25.5349 32.3634,25.5149 C35.8664,26.6349 39.4584,27.0359 43.1154,26.7549 C44.1224,26.6779 45.1584,26.5309 46.0734,26.0019 C46.6214,25.8899 47.0924,25.6309 47.5004,25.2519 C48.9354,24.2289 49.1564,22.9309 48.1054,21.5419 C47.2434,20.4039 46.0854,19.6429 44.8084,19.0459 L44.8084,19.0459 Z M6.8284,32.7139 C6.8484,32.8679 6.8784,33.0169 7.0504,33.0759 C7.0624,33.0809 7.1044,33.0479 7.1064,33.0309 C7.1194,32.8479 6.9884,32.7679 6.8544,32.6909 C6.8324,32.5469 6.8894,32.3689 6.6964,32.2989 C6.6694,32.2889 6.5924,32.3349 6.5874,32.3639 C6.5534,32.5539 6.6984,32.6309 6.8284,32.7139 L6.8284,32.7139 Z M0.3044,19.7849 C0.5974,19.4899 0.5484,19.0819 0.6474,18.7239 C1.6774,15.0059 4.6304,13.1589 8.5454,13.7709 C10.3234,14.0479 12.0374,14.5389 13.6304,15.3629 C14.3484,15.7339 14.5814,15.5549 14.7484,14.8519 C14.8984,14.2249 15.1674,13.6269 15.3454,13.0059 C15.9674,10.8389 17.5224,9.8229 19.6414,9.5159 C22.2894,9.1329 24.8654,9.6379 27.4004,10.2939 C33.4174,11.8529 39.3014,13.7949 44.8444,16.6569 C46.4154,17.4669 47.8924,18.4279 49.1244,19.7159 C50.5644,21.2209 51.0694,22.8829 50.3514,24.9679 C47.7764,32.4489 45.2844,39.9589 42.7664,47.4599 C42.2364,49.0419 41.1134,50.0559 39.6604,50.7549 C38.3384,51.3909 36.9254,51.6949 35.4744,51.8509 C35.3144,51.8679 35.1004,51.7529 35.0094,51.9999 L34.3864,51.9999 C33.5044,51.7429 32.6234,51.7459 31.7414,51.9999 L30.8074,51.9999 C30.7564,51.8389 30.6194,51.8579 30.4944,51.8449 C26.6024,51.4499 22.8704,50.4369 19.2914,48.8759 C15.6074,47.2679 12.1814,45.2629 9.5334,42.1509 C8.3174,40.7219 7.4264,39.1309 7.4474,37.1799 C7.4524,36.8099 7.2234,36.6239 7.0344,36.3889 C4.3614,33.0549 2.0534,29.5159 0.8714,25.3509 C0.6564,24.5929 0.4924,23.8199 0.3044,23.0529 L0.3044,19.7849 Z" id="Fill-54" fill="#454446"></path>
                <path d="M58.2958,9.0344 C60.4638,6.5694 62.8628,4.3794 65.7688,2.7984 C66.6068,2.9104 67.4448,3.0234 68.2838,3.1324 C70.2128,3.3844 72.1368,3.7324 74.0738,3.8534 C75.6268,3.9504 77.1848,4.3014 78.7608,3.9354 C79.2138,3.8294 79.3868,3.6574 79.3788,3.2324 C80.1258,3.6104 80.7208,4.1984 81.3858,4.6894 L81.3858,5.1564 C79.3518,5.2524 77.4008,4.6444 75.4008,4.4514 C74.0138,4.3174 72.6358,4.1194 71.2328,4.3414 C69.0178,4.6914 68.3148,5.7984 69.0088,7.9384 C69.0558,8.0854 69.0868,8.2374 69.1258,8.3864 C68.6788,8.2474 68.4678,7.8284 68.1408,7.5474 C66.9578,6.5334 65.6058,5.9274 64.0378,6.1214 C62.2528,6.3434 60.7538,7.2414 59.3998,8.3904 C59.0688,8.6714 58.7678,8.9984 58.2958,9.0344" id="Fill-56" fill="#A86E3D"></path>
                <path d="M79.3784,3.2327 C79.3874,3.6567 79.2144,3.8297 78.7604,3.9347 C77.1844,4.3017 75.6264,3.9497 74.0744,3.8527 C72.1364,3.7317 70.2134,3.3847 68.2834,3.1327 C67.4454,3.0237 66.6074,2.9097 65.7694,2.7987 C67.1934,1.8717 68.7664,1.3217 70.4154,0.9657 C70.5554,0.9357 70.7374,1.0007 70.8034,0.7987 L74.2274,0.7987 C74.2604,0.9167 74.3534,0.9347 74.4594,0.9537 C76.2944,1.2897 77.8984,2.1287 79.3784,3.2327" id="Fill-58" fill="#AF784A"></path>
                <g id="Group-62" transform="translate(31.000000, 51.000000)">
                    <mask id="mask-2" fill="white">
                        <use xlink:href="#path-1"></use>
                    </mask>
                    <g id="Clip-61"></g>
                    <path d="M0.7411,1 C1.6231,0.746 2.5051,0.743 3.3871,1 L0.7411,1 Z" id="Fill-60" fill="#6A6B6D" mask="url(#mask-2)"></path>
                </g>
                <path d="M58.2958,9.0344 C58.7678,8.9984 59.0688,8.6714 59.3998,8.3904 C60.7538,7.2414 62.2528,6.3434 64.0378,6.1214 C65.6058,5.9274 66.9578,6.5334 68.1408,7.5474 C68.4678,7.8284 68.6788,8.2474 69.1258,8.3864 L69.1158,8.3874 C69.1518,8.4514 69.1888,8.5144 69.2248,8.5774 C70.0698,9.9734 70.9158,11.3674 71.7578,12.7644 C72.0648,13.2744 72.3768,13.7814 72.6548,14.3074 C72.7918,14.5644 73.0728,14.8774 72.8398,15.1474 C72.5688,15.4604 72.2658,15.1234 72.0148,14.9954 C70.4478,14.1954 68.9268,13.3064 67.2728,12.6824 C62.3848,10.8344 57.9208,11.3964 53.9848,15.0004 C53.8398,15.1334 53.7198,15.3394 53.4198,15.2274 C54.6308,13.5264 55.7778,11.7964 57.2068,10.2794 C57.2698,10.2164 57.3318,10.1534 57.3938,10.0894 C57.3938,10.0894 57.3698,10.1084 57.3708,10.1084 C57.4798,10.0924 57.5338,10.0334 57.5228,9.9214 C57.5228,9.9214 57.5078,9.9324 57.5078,9.9334 C57.6988,9.9394 57.7218,9.8064 57.7328,9.6644 C57.9208,9.4544 58.1078,9.2444 58.2958,9.0344" id="Fill-63" fill="#936A47"></path>
                <path d="M57.7329,9.6641 C57.7219,9.8071 57.6979,9.9391 57.5079,9.9331 C57.5829,9.8431 57.6579,9.7541 57.7329,9.6641" id="Fill-65" fill="#A86E3D"></path>
                <path d="M57.3935,10.0899 C57.3315,10.1529 57.2695,10.2159 57.2075,10.2799 C57.2695,10.2159 57.3315,10.1529 57.3935,10.0899" id="Fill-67" fill="#A86E3D"></path>
                <path d="M57.5228,9.9209 C57.5338,10.0329 57.4798,10.0929 57.3708,10.1079 C57.4208,10.0459 57.4718,9.9829 57.5228,9.9209" id="Fill-69" fill="#A86E3D"></path>
                <path d="M69.2251,8.5778 C69.1891,8.5148 69.1521,8.4508 69.1151,8.3878 C69.1521,8.4508 69.1891,8.5138 69.2251,8.5778" id="Fill-71" fill="#A86E3D"></path>
                <path d="M24.1204,48.5437 C19.6654,47.1877 15.5264,45.2347 12.0874,42.0177 C10.8904,40.8967 9.8624,39.6337 9.4634,37.9717 C9.3304,37.4187 9.3674,36.8917 9.5424,36.3687 C11.6534,30.0937 13.7674,23.8207 15.8824,17.5477 C15.9134,17.4557 15.9754,17.3737 16.0414,17.2537 C19.1384,21.9037 23.7344,24.3967 28.6984,26.3777 C28.8404,26.4337 28.9714,26.5137 29.1084,26.5827 C29.0544,26.7247 29.0344,26.8947 28.9414,27.0027 C27.8944,28.2277 27.2954,29.6617 26.8674,31.1997 C26.2724,33.3367 26.0284,35.5407 25.5664,37.7027 C25.0724,40.0107 24.6394,42.3357 24.3814,44.6947 C24.2414,45.9797 24.4644,47.2807 24.1204,48.5437" id="Fill-73" fill="#D0D2D3"></path>
                <path d="M24.1204,48.5437 C24.4644,47.2807 24.2414,45.9797 24.3814,44.6947 C24.6394,42.3357 25.0724,40.0107 25.5664,37.7027 C26.0284,35.5407 26.2724,33.3367 26.8674,31.1997 C27.2954,29.6617 27.8944,28.2277 28.9414,27.0027 C29.0344,26.8947 29.0544,26.7247 29.1084,26.5827 C31.0034,27.1697 32.8884,27.7897 34.8404,28.1757 C37.6654,28.7357 40.5104,28.9787 43.3874,28.7127 C43.4504,29.7457 43.0314,30.6827 42.7964,31.6547 C42.0564,34.7197 41.0534,37.7077 40.0884,40.7047 C39.1824,43.5167 38.1074,46.2227 35.0994,47.5497 C34.2564,47.9217 34.1614,48.7147 34.6464,49.5237 C34.7244,49.6537 34.7864,49.7937 34.8554,49.9297 C31.1794,50.2277 27.6184,49.6277 24.1204,48.5437" id="Fill-75" fill="#E6E7E8"></path>
                <path d="M18.6725,17.4641 C17.8665,16.4911 17.2135,15.4501 17.2235,14.1231 C17.2335,12.8561 17.8635,12.0311 19.1565,11.6351 C20.7395,11.1511 22.3525,11.3061 23.9315,11.5791 C28.6675,12.3981 33.2025,13.9241 37.6745,15.6481 C37.3255,16.3861 37.7195,17.0751 37.8145,17.7831 C34.2575,17.7691 30.8125,18.4171 27.4465,19.5301 C27.2495,19.5951 26.9555,19.5771 26.9235,19.8981 C26.8195,19.9071 26.7165,19.9171 26.6125,19.9261 L26.6145,19.9361 C26.5615,19.8901 26.5085,19.8431 26.4555,19.7971 C25.0235,19.3711 23.5995,18.9181 22.1585,18.5301 C21.0435,18.2291 19.9865,17.7151 18.8195,17.6071 L18.8255,17.6111 C18.7745,17.5621 18.7235,17.5131 18.6725,17.4641" id="Fill-77" fill="#9B9D9F"></path>
                <path d="M26.6127,19.9259 C26.7167,19.9169 26.8197,19.9079 26.9237,19.8989 C29.1107,20.4329 31.2927,20.9839 33.5087,21.3919 C36.7707,21.9939 40.0317,22.5699 43.3767,22.1519 C44.4507,22.0169 45.2237,22.5579 45.6997,23.5019 C46.0967,24.2879 46.1607,25.1369 46.0727,26.0019 C45.1587,26.5309 44.1227,26.6779 43.1147,26.7549 C39.4587,27.0359 35.8657,26.6349 32.3637,25.5149 C32.2867,25.4059 32.1757,25.3809 32.0507,25.3899 L32.0507,25.3899 C31.6517,24.5989 30.8187,24.2759 30.2117,23.7089 C28.9357,22.5159 27.5907,21.3989 26.6127,19.9259" id="Fill-79" fill="#A76C3B"></path>
                <path d="M34.8555,49.9296 C34.7865,49.7936 34.7245,49.6536 34.6465,49.5236 C34.1605,48.7146 34.2565,47.9216 35.0995,47.5496 C38.1075,46.2226 39.1825,43.5166 40.0875,40.7046 C41.0535,37.7076 42.0555,34.7196 42.7965,31.6546 C43.0315,30.6826 43.4505,29.7456 43.3875,28.7126 C44.6905,28.5076 45.9845,28.2636 47.3495,27.6576 C47.0575,28.5356 46.8045,29.3016 46.5475,30.0656 C44.7125,35.5246 42.8585,40.9766 41.0525,46.4456 C40.6385,47.6996 39.8565,48.5276 38.6855,49.0456 C37.4655,49.5856 36.1835,49.8566 34.8555,49.9296" id="Fill-81" fill="#EFEFF0"></path>
                <path d="M46.073,26.0023 C46.161,25.1373 46.097,24.2873 45.7,23.5013 C45.223,22.5573 44.451,22.0173 43.376,22.1513 C40.031,22.5693 36.771,21.9933 33.508,21.3923 C31.293,20.9843 29.11,20.4323 26.923,19.8983 C26.955,19.5773 27.249,19.5953 27.446,19.5303 C30.812,18.4163 34.258,17.7693 37.814,17.7833 C38.019,17.8203 38.223,17.8583 38.428,17.8953 C38.563,18.1133 38.793,18.1633 39.014,18.2403 C40.627,18.8093 42.201,19.4633 43.656,20.3773 C45.04,21.2463 46.287,22.2543 46.655,23.9483 C46.781,24.5303 46.994,24.9613 47.501,25.2513 C47.093,25.6313 46.621,25.8903 46.073,26.0023" id="Fill-83" fill="#E5E5E5"></path>
                <path d="M26.6127,19.9259 C27.5907,21.3989 28.9357,22.5159 30.2117,23.7089 C30.8187,24.2759 31.6517,24.5989 32.0507,25.3899 C30.0507,24.9419 28.1887,24.1199 26.3607,23.2319 C23.8217,21.9989 21.4577,20.4919 19.4587,18.4679 C19.2057,18.2119 18.9377,17.9639 18.8197,17.6069 C19.9867,17.7149 21.0427,18.2289 22.1577,18.5299 C23.5997,18.9179 25.0237,19.3719 26.4547,19.7969 C26.5087,19.8429 26.5617,19.8899 26.6147,19.9369 L26.6127,19.9259 Z" id="Fill-85" fill="#906846"></path>
                <path d="M4.9432,16.2023 C5.6392,15.5683 6.5482,15.6093 7.3532,15.6383 C9.4152,15.7143 11.3322,16.4173 13.1922,17.2883 C14.1512,17.7363 13.4402,18.3213 13.3662,18.8483 C13.2832,19.4353 12.9052,19.2983 12.4982,19.1923 C11.2472,18.8663 9.9832,18.6673 8.6782,18.6643 C7.1342,18.6613 5.7812,19.0733 4.6552,20.1513 C4.6622,19.4133 4.9702,18.7673 5.2702,18.1173 C5.6322,17.3323 5.5262,16.7283 4.9432,16.2023" id="Fill-87" fill="#8D9092"></path>
                <path d="M4.9432,16.2023 C5.5262,16.7283 5.6322,17.3323 5.2702,18.1173 C4.9702,18.7673 4.6622,19.4133 4.6552,20.1513 C3.2712,22.1183 3.6262,24.2283 4.1912,26.3323 C4.6492,28.0363 5.4122,29.6263 6.1772,31.2123 C6.2952,31.4563 6.5122,31.6743 6.4472,32.1083 C5.8932,31.7263 5.6942,31.1573 5.4112,30.6923 C3.9772,28.3373 2.7922,25.8573 2.3952,23.1043 C2.1342,21.3003 2.2002,19.4743 3.1542,17.8223 C3.5702,17.1013 4.0832,16.4503 4.9432,16.2023" id="Fill-89" fill="#6A6B6D"></path>
                <path d="M47.5006,25.2516 C46.9946,24.9616 46.7806,24.5296 46.6546,23.9476 C46.2866,22.2546 45.0396,21.2466 43.6556,20.3766 C42.2006,19.4636 40.6266,18.8096 39.0136,18.2406 C38.7936,18.1626 38.5626,18.1136 38.4286,17.8956 C40.3636,17.8806 42.2176,18.3056 44.0416,18.9116 C44.2826,18.9916 44.5116,19.2486 44.8086,19.0456 C46.0856,19.6436 47.2436,20.4036 48.1056,21.5416 C49.1566,22.9306 48.9356,24.2286 47.5006,25.2516" id="Fill-91" fill="#EFEFF0"></path>
                <path d="M44.8086,19.0457 C44.5116,19.2487 44.2826,18.9917 44.0416,18.9117 C42.2176,18.3047 40.3636,17.8807 38.4286,17.8957 C38.2236,17.8577 38.0186,17.8207 37.8136,17.7837 C37.7196,17.0747 37.3256,16.3857 37.6746,15.6477 C40.0306,16.4537 42.2806,17.4947 44.4636,18.6877 C44.6096,18.7677 44.8216,18.8037 44.8086,19.0457" id="Fill-93" fill="#A1A3A6"></path>
                <path d="M6.8285,32.7142 C6.6985,32.6302 6.5535,32.5532 6.5875,32.3632 C6.5925,32.3352 6.6695,32.2892 6.6965,32.2992 C6.8895,32.3682 6.8325,32.5472 6.8545,32.6912 L6.8285,32.7142 Z" id="Fill-95" fill="#6A6B6D"></path>
                <path d="M6.8545,32.6911 C6.9885,32.7681 7.1185,32.8481 7.1065,33.0311 C7.1045,33.0481 7.0625,33.0811 7.0505,33.0761 C6.8785,33.0171 6.8485,32.8681 6.8285,32.7141 L6.8545,32.6911" id="Fill-97" fill="#6A6B6D"></path>
                <path d="M32.0511,25.3896 C32.1761,25.3806 32.2861,25.4066 32.3641,25.5156 C32.2351,25.5346 32.1211,25.5156 32.0511,25.3896" id="Fill-99" fill="#906846"></path>
                <path d="M18.6725,17.4641 L18.8255,17.6111 L18.6725,17.4641" id="Fill-101" fill="#906846"></path>
                <path d="M26.6146,19.9364 C26.5616,19.8894 26.5086,19.8434 26.4556,19.7974 C26.5086,19.8434 26.5616,19.8904 26.6146,19.9364" id="Fill-103" fill="#A76C3B"></path>
            </g>
            <g id="camera" transform="translate(142.000000, 167.381000)">
                <g id="Group-108">
                    <mask id="mask-4" fill="white">
                        <use xlink:href="#path-3"></use>
                    </mask>
                    <g id="Clip-107"></g>
                    <path d="M127.0437,18.0735 C127.3947,18.2835 127.7387,18.2005 128.0787,18.0425 C129.9957,17.1545 130.5477,15.5125 130.0017,13.6935 C129.6817,12.6265 129.2757,11.5845 128.9477,10.5185 C128.7527,9.8825 128.3967,9.4045 127.7767,9.1935 C124.8437,8.1945 121.9017,7.2235 118.9677,6.2265 C118.3997,6.0335 117.9587,6.1355 117.4627,6.4865 C116.4337,7.2145 115.3537,7.8715 114.2807,8.5365 C111.8517,10.0435 112.2737,12.5955 114.1107,14.3245 C114.1697,14.3645 114.2297,14.4065 114.2887,14.4475 C112.0167,14.8895 109.7237,15.1595 107.4147,15.3105 C107.2917,14.8075 106.9597,14.5595 106.4717,14.3995 C104.8597,13.8735 103.2627,13.2985 101.6557,12.7575 C97.7207,11.4345 93.7797,10.1295 89.8487,8.7955 C89.0697,8.5315 88.6587,8.7305 88.3557,9.5115 C88.1307,10.0905 87.7787,10.6935 87.3157,11.0915 C85.7727,12.4205 83.9747,13.0105 81.9017,12.7665 C77.8697,12.2895 74.3197,10.5355 70.8017,8.6815 C69.9017,8.2065 69.5077,8.3555 69.1857,9.3055 C66.4987,17.2375 63.7987,25.1645 61.1257,33.1005 C60.4117,35.2205 59.6407,37.3305 59.4517,39.5915 C59.2867,41.5685 59.7747,43.2335 61.5357,44.3755 C65.4527,46.9155 69.8247,47.3625 74.3277,47.1365 C74.9937,47.1035 75.6197,47.0995 76.2427,47.3095 C81.4407,49.0655 86.6387,50.8205 91.8337,52.5855 C93.2447,53.0655 93.3687,52.9825 93.1657,51.5655 C94.2697,52.9565 95.2477,54.4485 96.5237,55.7005 C96.7607,55.9335 96.6007,56.1595 96.4717,56.3765 C90.9787,54.5345 85.4987,52.6525 79.9867,50.8715 C77.9657,50.2185 76.0607,49.1515 73.8007,49.2785 C69.8597,49.5005 66.0157,48.9735 62.3757,47.3445 C61.7907,47.0835 61.3317,47.0645 60.7347,47.4945 C54.7477,51.8015 48.4407,55.5855 41.8747,58.9465 C38.8867,60.4755 35.7517,61.7155 32.9237,63.5555 C26.6057,67.6675 21.1127,72.7025 16.3267,78.5045 C12.3877,83.2805 9.1367,88.4735 7.3287,94.4565 C4.8777,102.5645 6.1657,109.9575 11.6887,116.4895 C15.0267,120.4375 19.1637,123.3965 23.6367,125.8985 C29.5907,129.2285 35.9287,131.6605 42.4327,133.6605 C47.9697,135.3635 53.5847,136.6665 59.4387,136.5175 C66.6597,136.3335 71.6327,132.8845 74.5487,126.2945 C76.4837,121.9195 77.7097,117.3115 79.2217,112.7975 C80.4177,109.2225 81.8047,105.7305 83.9577,102.6125 C86.9267,98.3105 91.0427,95.7655 96.1297,94.5615 C102.0817,93.1525 107.6657,90.7895 112.7207,87.2985 C119.7227,82.4625 124.6707,76.0505 127.4377,67.9755 C127.6967,67.2195 127.6687,66.8095 126.7797,66.6335 C126.0767,66.4945 125.3987,66.2135 124.7207,65.9655 C121.9457,64.9505 119.0767,64.2045 116.3577,63.0335 C116.7147,62.5775 117.2677,62.5665 117.7457,62.5445 C118.9667,62.4865 120.0367,61.6275 121.3087,61.9115 C121.3687,61.9525 121.4287,61.9925 121.4887,62.0335 C121.2807,62.7505 121.8627,62.7835 122.2837,62.9265 C124.3677,63.6355 126.4547,64.3355 128.5437,65.0315 C130.4937,65.6805 132.3997,66.4665 134.4287,66.8645 C135.5017,67.0755 136.3987,66.8175 136.9527,65.8595 C137.3647,65.1475 137.7007,64.3765 137.9647,63.5965 C138.9817,60.5875 139.9357,57.5565 140.9527,54.5475 C142.3157,50.5145 143.6867,46.4835 145.1077,42.4715 C146.3447,38.9815 147.5697,35.5415 146.5517,31.7145 C145.9977,29.6295 144.7797,28.1175 143.0527,27.1055 C140.2377,25.4555 137.0237,24.7445 133.9647,23.6745 C133.4347,23.4885 133.1437,23.7055 132.9147,24.1345 C131.5267,22.9365 130.4027,21.4755 129.0057,20.2735 C128.2237,19.6015 127.1357,19.2965 126.6217,18.3115 C126.7617,18.2325 126.9027,18.1525 127.0437,18.0735 M71.4287,6.4875 C71.6087,6.6085 71.7887,6.7305 71.9687,6.8515 C71.7717,7.4945 72.1117,7.7715 72.6727,7.9405 C73.0837,8.0635 73.5047,8.1965 73.8717,8.4095 C76.0387,9.6625 78.3537,10.5245 80.7967,11.0335 C82.2997,11.3465 83.8087,11.3305 85.2377,10.7105 C85.7057,10.5075 86.4237,10.2755 85.9367,9.4625 C86.0177,9.3425 86.0987,9.2225 86.1787,9.1025 C87.0757,8.9325 87.3547,8.1215 86.6997,7.4075 C86.1677,6.8265 85.6127,6.2445 84.8897,5.8775 C82.7027,4.7665 80.4967,3.6895 78.0807,3.1705 C75.3757,2.5895 72.9287,3.0525 70.9087,5.0995 C70.5227,5.4905 70.4137,5.9085 70.6367,6.3645 C70.7977,6.6945 71.1077,6.8145 71.4287,6.4875 M139.2407,66.4135 C138.8757,66.9535 138.5117,67.4935 138.1467,68.0345 C136.8387,68.9235 135.4197,69.3235 133.8657,68.8735 C133.1157,68.6565 132.8497,68.8545 132.5947,69.6115 C129.6397,78.3645 124.4197,85.4715 116.9697,90.9455 C110.8757,95.4225 104.0517,98.2815 96.7517,100.0595 C92.9267,100.9905 90.0407,103.1135 87.9687,106.4315 C86.1317,109.3725 85.0037,112.6105 83.9447,115.8765 C82.2857,120.9905 80.9147,126.2085 78.2647,130.9505 C75.7387,135.4695 72.1947,138.8145 67.2707,140.5785 C62.2927,142.3625 57.1717,142.3045 52.0617,141.4765 C41.3437,139.7395 31.2837,136.0385 21.6757,131.0325 C20.7777,130.5645 20.0077,129.8275 18.9577,129.6595 C18.7177,129.4975 18.4777,129.3355 18.2377,129.1735 C17.3007,127.9765 15.8987,127.4145 14.6957,126.5815 C12.8717,125.3275 11.2057,123.8815 9.6517,122.3145 C5.5237,118.1505 2.4767,113.3635 1.2697,107.5405 C-0.1923,100.4795 1.2707,93.8465 4.1927,87.4155 C4.7347,86.2215 5.5587,85.1575 5.8427,83.8465 C7.6257,81.2045 9.4087,78.5635 11.1917,75.9225 C11.4847,76.0135 11.5507,75.7525 11.6747,75.5985 C14.0397,72.6715 16.5857,69.9095 19.3477,67.3545 C23.9467,63.1005 28.7867,59.1595 34.5007,56.4735 C42.0287,52.9335 49.2287,48.8415 56.1027,44.1535 C57.2417,43.3775 57.8437,42.6655 57.2907,41.3045 C57.2017,41.0855 57.2557,40.8095 57.2427,40.5595 C57.0737,37.5155 58.2887,34.7775 59.2157,31.9945 C62.0227,23.5735 64.9327,15.1865 67.7497,6.7685 C68.9107,3.2985 71.7917,0.7915 75.3517,0.8485 C80.1217,0.9245 84.3527,2.6375 87.9937,5.7775 C88.6507,6.3445 89.5717,6.8325 90.4097,6.5325 C91.6817,6.0785 92.4147,6.6035 93.1767,7.4595 C93.6367,7.9775 94.2437,8.3105 94.9897,8.0465 C96.0147,7.6845 96.7907,7.9225 97.5177,8.7825 C98.0497,9.4115 98.7217,9.9345 99.7587,9.5235 C100.7347,9.1365 101.5847,9.5735 102.2137,10.4075 C102.7977,11.1815 103.4537,11.3525 104.3327,10.7965 C107.8697,8.5625 111.4367,6.3755 114.9747,4.1405 C115.5477,3.7785 116.0317,3.7255 116.6747,3.9605 C118.5387,4.6415 120.4237,5.2695 122.3137,5.8735 C125.5037,6.8915 128.6207,8.1265 131.8567,9.0025 C132.0367,9.1245 132.2167,9.2455 132.3967,9.3675 C133.0177,10.8995 133.6227,12.4375 134.2627,13.9615 C135.4227,16.7245 136.6327,19.4665 137.7537,22.2445 C138.0087,22.8755 138.4777,23.0055 138.9777,23.1375 C139.5477,23.2875 139.4447,22.6945 139.5907,22.4305 C140.4087,20.9515 141.5417,20.2195 142.7197,20.8595 C145.2957,22.2595 147.4967,24.1865 149.4667,26.3625 C149.5597,26.4645 149.6007,26.6165 149.6517,26.7505 C150.0817,27.8665 149.7927,28.9525 148.7787,29.3095 C148.0367,29.5705 148.1947,29.8495 148.3787,30.3735 C149.3947,33.2715 149.3677,36.2185 148.4227,39.0985 C146.3427,45.4375 144.1567,51.7425 142.0227,58.0635 C141.0847,60.8435 140.1677,63.6305 139.2407,66.4135" id="Fill-106" fill="#404042" mask="url(#mask-4)"></path>
                </g>
                <path d="M14.6359,126.7423 C14.6219,126.6763 14.6419,126.6223 14.6959,126.5813 C15.8989,127.4153 17.3009,127.9763 18.2379,129.1733 C17.0369,128.3633 15.8369,127.5523 14.6359,126.7423" id="Fill-109" fill="#97999C"></path>
                <path d="M93.1658,51.5657 C93.3688,52.9827 93.2448,53.0647 91.8338,52.5857 C86.6388,50.8207 81.4408,49.0657 76.2428,47.3097 C75.6198,47.0987 74.9938,47.1037 74.3268,47.1367 C69.8248,47.3617 65.4528,46.9157 61.5358,44.3757 C59.7748,43.2337 59.2868,41.5677 59.4518,39.5917 C59.6408,37.3307 60.4118,35.2207 61.1258,33.1007 C63.7988,25.1637 66.4988,17.2367 69.1858,9.3057 C69.5078,8.3557 69.9018,8.2067 70.8018,8.6817 C74.3198,10.5357 77.8698,12.2897 81.9018,12.7657 C83.9748,13.0107 85.7718,12.4207 87.3158,11.0917 C87.7788,10.6937 88.1308,10.0897 88.3558,9.5117 C88.6588,8.7307 89.0698,8.5307 89.8488,8.7957 C93.7798,10.1297 97.7208,11.4347 101.6558,12.7577 C103.2628,13.2977 104.8598,13.8737 106.4718,14.3997 C106.9598,14.5587 107.2918,14.8077 107.4148,15.3097 C107.3138,15.3297 107.2138,15.3487 107.1128,15.3677 C107.0198,15.3127 106.9328,15.2387 106.8318,15.2047 C101.2158,13.2727 95.5978,11.3467 89.9838,9.4107 C89.4538,9.2277 89.0878,9.3327 88.8228,9.8397 C88.1548,11.1177 87.1208,12.0607 85.9768,12.8967 C85.3148,13.6977 85.3028,14.6987 85.1028,15.6487 C83.6468,22.5867 81.5208,29.3267 79.0498,35.9617 C77.9928,38.7987 76.9278,41.6317 75.8558,44.4627 C75.4968,45.4127 75.6718,45.9547 76.7428,46.3377 C79.5968,47.3597 82.4028,47.3607 85.1948,46.2297 C86.8468,45.5617 88.6698,45.1417 89.7178,43.4707 C89.8108,43.8147 89.9168,44.1547 89.9938,44.5027 C90.5648,47.0757 91.5808,49.4477 93.1658,51.5657" id="Fill-111" fill="#434244"></path>
                <path d="M96.5801,27.3927 C90.0211,36.5807 92.6811,49.7347 102.0461,55.9147 C111.4821,62.1407 124.1771,60.0727 130.8421,50.0757 C136.9601,40.8987 134.7231,27.8987 124.6051,21.3827 C115.5141,15.5267 102.6271,17.8407 96.5801,27.3927 M93.1661,51.5657 C91.5811,49.4477 90.5651,47.0757 89.9931,44.5027 C89.9161,44.1547 89.8101,43.8147 89.7181,43.4707 C89.5251,40.6387 89.2541,37.8217 89.7281,34.9727 C90.4931,30.3687 92.4331,26.3757 95.4531,22.8417 C96.3451,21.7977 97.4571,20.9857 98.2891,19.8967 C101.0251,17.9887 103.9241,16.3967 107.1121,15.3677 C107.2131,15.3487 107.3141,15.3297 107.4151,15.3097 C109.7231,15.1597 112.0171,14.8897 114.2891,14.4477 C114.5671,14.5117 114.8441,14.6207 115.1251,14.6327 C119.2931,14.8157 123.0711,16.2057 126.6211,18.3117 C127.1361,19.2967 128.2241,19.6017 129.0051,20.2737 C130.4031,21.4757 131.5261,22.9357 132.9151,24.1337 C133.0331,24.2147 133.1521,24.2957 133.2711,24.3767 C133.3501,24.5737 133.3981,24.7927 133.5141,24.9657 C134.8141,26.9127 135.9671,28.9387 136.6491,31.1897 C137.0851,32.6267 137.4131,34.0967 137.7901,35.5517 C137.8311,37.0867 137.9611,38.6097 137.8491,40.1577 C137.5401,44.4187 136.2041,48.3237 134.0411,51.9707 C133.1921,53.4027 131.9691,54.5417 130.9251,55.8207 C130.8441,55.9407 130.7621,56.0597 130.6811,56.1797 C130.3971,56.1857 130.2731,56.4017 130.1371,56.5997 C129.9571,56.7387 129.7761,56.8777 129.5951,57.0167 C129.1501,57.4167 128.7051,57.8157 128.2601,58.2157 C127.1751,58.8647 126.0671,59.4797 125.0111,60.1717 C123.8541,60.9287 122.4831,61.2067 121.3091,61.9117 C120.0371,61.6277 118.9661,62.4867 117.7461,62.5447 C117.2681,62.5667 116.7151,62.5767 116.3571,63.0337 C114.3341,62.7337 112.2921,63.0287 110.2541,62.7557 C105.7371,62.1517 101.7801,60.3157 98.2171,57.5637 C97.6531,57.1277 97.1771,56.5957 96.4721,56.3767 C96.6001,56.1597 96.7601,55.9327 96.5241,55.7007 C95.2481,54.4487 94.2701,52.9557 93.1661,51.5657" id="Fill-113" fill="#3F3E40"></path>
                <path d="M133.2712,24.3766 C133.1522,24.2956 133.0332,24.2146 132.9142,24.1336 C133.1442,23.7056 133.4352,23.4886 133.9642,23.6746 C137.0242,24.7446 140.2382,25.4556 143.0532,27.1056 C144.7792,28.1176 145.9972,29.6296 146.5522,31.7146 C147.5692,35.5416 146.3442,38.9816 145.1082,42.4716 C143.6862,46.4836 142.3162,50.5146 140.9522,54.5476 C139.9362,57.5566 138.9822,60.5866 137.9642,63.5956 C137.7002,64.3766 137.3642,65.1476 136.9532,65.8596 C136.3992,66.8176 135.5022,67.0756 134.4292,66.8646 C132.4002,66.4656 130.4932,65.6806 128.5442,65.0316 C126.4552,64.3356 124.3682,63.6356 122.2832,62.9266 C121.8632,62.7836 121.2802,62.7506 121.4882,62.0336 C123.0252,62.5396 124.5552,63.0686 126.1002,63.5476 C128.8832,64.4086 131.5662,65.6036 134.4392,66.1626 C135.9252,66.4516 136.1772,66.1846 136.8182,64.7996 C137.7032,62.8846 137.5122,60.7056 138.3872,58.7966 C138.5912,58.3516 138.3012,58.1466 137.9082,58.0136 C135.5972,57.2296 133.3352,56.2896 130.9252,55.8206 C131.9692,54.5416 133.1922,53.4026 134.0412,51.9706 C136.2042,48.3236 137.5402,44.4196 137.8492,40.1586 C137.9612,38.6096 137.8312,37.0866 137.7902,35.5516 C138.4542,35.8526 138.5652,36.4606 138.6212,37.0856 C138.8712,39.8836 138.8682,39.8836 141.5782,40.6426 C141.6822,40.6716 141.7892,40.6906 141.8942,40.7206 C143.9342,41.2996 143.9982,41.3196 144.6332,39.3296 C144.9252,38.4116 145.8342,37.9146 146.0532,37.0906 C146.4902,35.4426 146.5392,33.7246 146.0622,32.0546 C145.2632,29.2596 143.3722,27.5246 140.6572,26.6116 C138.8442,26.0026 137.0542,25.3236 135.2262,24.7686 C134.6022,24.5796 134.0042,24.0786 133.2712,24.3766" id="Fill-115" fill="#434244"></path>
                <path d="M130.9253,55.8208 C133.3353,56.2888 135.5973,57.2298 137.9083,58.0138 C138.3013,58.1468 138.5913,58.3518 138.3873,58.7968 C137.5123,60.7058 137.7033,62.8848 136.8173,64.7998 C136.1773,66.1848 135.9253,66.4518 134.4393,66.1628 C131.5663,65.6038 128.8833,64.4088 126.1003,63.5478 C124.5543,63.0688 123.0253,62.5398 121.4883,62.0328 C121.4283,61.9928 121.3683,61.9518 121.3093,61.9118 C122.4833,61.2068 123.8543,60.9288 125.0113,60.1718 C126.0673,59.4798 127.1753,58.8648 128.2603,58.2158 C128.9913,58.1358 129.6903,58.0188 129.5953,57.0168 C129.7763,56.8778 129.9563,56.7388 130.1373,56.5998 C130.5553,56.7668 130.7613,56.6588 130.6813,56.1798 C130.7623,56.0598 130.8443,55.9408 130.9253,55.8208" id="Fill-117" fill="#48484A"></path>
                <path d="M114.1105,14.3241 C112.2735,12.5951 111.8515,10.0441 114.2805,8.5371 C115.3535,7.8721 116.4335,7.2141 117.4625,6.4861 C117.9585,6.1351 118.4005,6.0341 118.9675,6.2271 C121.9015,7.2231 124.8435,8.1941 127.7765,9.1931 C128.3965,9.4051 128.7525,9.8831 128.9475,10.5181 C129.2755,11.5841 129.6815,12.6261 130.0015,13.6941 C130.5475,15.5121 129.9955,17.1551 128.0785,18.0431 C127.7395,18.2001 127.3955,18.2831 127.0435,18.0731 C127.3995,17.4751 128.1165,17.3631 128.5885,16.9261 C128.7905,16.7391 129.1745,16.6571 129.1405,16.3201 C129.1045,15.9581 128.6955,15.9881 128.4535,15.9061 C123.7235,14.2961 118.9885,12.7041 114.2495,11.1231 C113.4245,10.8481 113.1965,11.0901 113.4255,11.9581 C113.6345,12.7521 113.8805,13.5361 114.1105,14.3241" id="Fill-119" fill="#434244"></path>
                <path d="M86.1792,9.1026 C86.0982,9.2226 86.0172,9.3426 85.9362,9.4626 C84.4242,10.9706 82.5662,10.7606 80.7512,10.3866 C77.6202,9.7416 74.7692,8.3486 71.9692,6.8516 C71.7892,6.7296 71.6092,6.6086 71.4292,6.4876 C71.1342,6.2856 70.8942,6.0376 71.2102,5.6996 C72.2152,4.6296 73.3612,3.7236 74.8772,3.6226 C78.9692,3.3486 82.4632,4.9656 85.7132,7.2366 C86.3452,7.6786 86.6972,8.3136 86.1792,9.1026" id="Fill-121" fill="#4A4A4C"></path>
                <path d="M114.1105,14.3241 C113.8805,13.5361 113.6345,12.7521 113.4255,11.9581 C113.1965,11.0901 113.4245,10.8481 114.2495,11.1231 C118.9885,12.7041 123.7235,14.2961 128.4535,15.9061 C128.6955,15.9881 129.1045,15.9581 129.1405,16.3201 C129.1745,16.6571 128.7905,16.7391 128.5885,16.9261 C128.1165,17.3631 127.3995,17.4751 127.0435,18.0731 C126.9025,18.1531 126.7625,18.2321 126.6215,18.3121 C123.0715,16.2051 119.2925,14.8151 115.1255,14.6331 C114.8445,14.6201 114.5675,14.5121 114.2885,14.4481 C114.2295,14.4061 114.1705,14.3651 114.1105,14.3241" id="Fill-123" fill="#4A4A4C"></path>
                <path d="M86.1792,9.1026 C86.6972,8.3136 86.3452,7.6786 85.7132,7.2366 C82.4632,4.9656 78.9692,3.3486 74.8772,3.6226 C73.3612,3.7236 72.2152,4.6296 71.2102,5.6996 C70.8942,6.0376 71.1342,6.2856 71.4292,6.4876 C71.1082,6.8146 70.7982,6.6946 70.6372,6.3646 C70.4142,5.9086 70.5232,5.4906 70.9092,5.0996 C72.9292,3.0526 75.3752,2.5896 78.0802,3.1706 C80.4972,3.6886 82.7032,4.7666 84.8902,5.8776 C85.6132,6.2436 86.1672,6.8266 86.7002,7.4076 C87.3542,8.1216 87.0762,8.9326 86.1792,9.1026" id="Fill-125" fill="#434244"></path>
                <path d="M71.969,6.8515 C74.769,8.3485 77.62,9.7415 80.752,10.3875 C82.566,10.7605 84.424,10.9705 85.936,9.4625 C86.424,10.2755 85.705,10.5075 85.238,10.7105 C83.809,11.3305 82.3,11.3465 80.797,11.0335 C78.353,10.5245 76.039,9.6625 73.872,8.4095 C73.504,8.1965 73.083,8.0635 72.673,7.9405 C72.112,7.7715 71.772,7.4945 71.969,6.8515" id="Fill-127" fill="#434244"></path>
                <path d="M98.2889,19.8966 C97.4569,20.9856 96.3449,21.7976 95.4529,22.8416 C92.4329,26.3756 90.4939,30.3686 89.7279,34.9726 C89.2539,37.8216 89.5249,40.6386 89.7179,43.4706 C88.6699,45.1416 86.8469,45.5616 85.1949,46.2296 C82.4029,47.3616 79.5969,47.3596 76.7429,46.3376 C75.6719,45.9546 75.4969,45.4126 75.8559,44.4636 C76.9279,41.6326 77.9929,38.7986 79.0499,35.9616 C81.5209,29.3266 83.6469,22.5866 85.1029,15.6496 C85.3029,14.6986 85.3149,13.6976 85.9769,12.8966 C86.6989,14.0616 88.0329,14.3596 89.1179,14.8906 C92.2539,16.4246 95.4379,17.8476 98.2889,19.8966" id="Fill-129" fill="#444446"></path>
                <path d="M98.2889,19.8966 C95.4379,17.8476 92.2539,16.4246 89.1179,14.8906 C88.0329,14.3596 86.6989,14.0616 85.9769,12.8966 C87.1209,12.0606 88.1549,11.1186 88.8229,9.8396 C89.0879,9.3326 89.4539,9.2276 89.9839,9.4106 C95.5979,11.3466 101.2159,13.2726 106.8319,15.2046 C106.9329,15.2386 107.0189,15.3126 107.1129,15.3686 C103.9239,16.3966 101.0259,17.9886 98.2889,19.8966" id="Fill-131" fill="#4A4A4C"></path>
                <path d="M127.266,32.8984 L127.266,32.8984 C127.386,32.6894 127.345,32.4944 127.246,32.2864 C126.433,30.5794 125.25,29.1444 123.94,27.8084 C123.722,27.5864 123.46,27.3584 123.089,27.4334 C122.247,26.8664 121.404,26.2994 120.562,25.7314 C120.467,25.3114 120.234,25.2654 119.902,25.4884 C119.157,25.0164 118.32,24.7664 117.494,24.4874 C117.302,24.3934 117.118,24.2514 116.914,24.2134 C111.219,23.1454 106.356,24.6134 102.389,28.9254 C99.306,32.2774 98.069,36.2814 98.538,40.6994 C99.465,49.4394 107.742,55.6174 116.357,53.9874 C121.044,53.1014 124.651,50.5364 126.97,46.2164 C128.784,42.8374 129.221,39.3304 128.47,35.6364 C128.325,34.9244 128.263,34.1124 127.563,33.6234 L127.563,33.6224 C127.772,33.2554 127.539,33.0684 127.266,32.8984 M96.58,27.3924 C102.627,17.8404 115.514,15.5274 124.605,21.3824 C134.723,27.8984 136.96,40.8984 130.842,50.0754 C124.177,60.0724 111.483,62.1404 102.047,55.9144 C92.681,49.7354 90.021,36.5814 96.58,27.3924" id="Fill-133" fill="#808284"></path>
                <path d="M133.2712,24.3766 C134.0042,24.0786 134.6022,24.5796 135.2262,24.7686 C137.0542,25.3236 138.8442,26.0026 140.6572,26.6116 C143.3722,27.5246 145.2632,29.2596 146.0622,32.0546 C146.5392,33.7246 146.4902,35.4426 146.0532,37.0906 C145.8342,37.9146 144.9252,38.4116 144.6332,39.3296 C143.9982,41.3196 143.9342,41.2996 141.8942,40.7206 C141.7892,40.6906 141.6822,40.6716 141.5782,40.6426 C138.8682,39.8836 138.8712,39.8836 138.6212,37.0856 C138.5652,36.4606 138.4542,35.8526 137.7902,35.5516 C137.4132,34.0966 137.0852,32.6266 136.6492,31.1896 C135.9672,28.9386 134.8142,26.9126 133.5132,24.9656 C133.3982,24.7926 133.3502,24.5736 133.2712,24.3766" id="Fill-135" fill="#49494B"></path>
                <path d="M129.5951,57.0172 C129.6901,58.0192 128.9911,58.1352 128.2601,58.2162 C128.7051,57.8162 129.1501,57.4162 129.5951,57.0172" id="Fill-137" fill="#434244"></path>
                <path d="M130.6811,56.1797 C130.7621,56.6587 130.5561,56.7667 130.1371,56.5997 C130.2741,56.4017 130.3971,56.1857 130.6811,56.1797" id="Fill-139" fill="#434244"></path>
                <path d="M127.5627,33.6234 C128.2627,34.1124 128.3257,34.9244 128.4697,35.6364 C129.2207,39.3304 128.7837,42.8374 126.9707,46.2164 C124.6517,50.5364 121.0437,53.1014 116.3577,53.9874 C107.7417,55.6174 99.4647,49.4394 98.5377,40.6994 C98.0687,36.2814 99.3057,32.2774 102.3887,28.9254 C106.3557,24.6134 111.2187,23.1454 116.9147,24.2134 C117.1177,24.2514 117.3017,24.3934 117.4947,24.4874 C117.4037,24.9384 117.7027,25.2334 117.9317,25.5504 C121.0337,29.8554 124.1397,34.1574 127.2447,38.4614 C127.5637,38.9044 127.7677,39.4494 128.3957,39.8024 C128.3967,39.5024 128.3917,39.3294 128.3987,39.1574 C128.4787,37.2584 127.9427,35.4524 127.5627,33.6234" id="Fill-141" fill="#97999C"></path>
                <path d="M127.5627,33.6234 C127.9427,35.4524 128.4787,37.2584 128.3987,39.1574 C128.3917,39.3294 128.3967,39.5024 128.3957,39.8024 C127.7677,39.4494 127.5637,38.9044 127.2447,38.4614 C124.1397,34.1574 121.0337,29.8554 117.9317,25.5504 C117.7027,25.2334 117.4037,24.9384 117.4947,24.4874 C118.3197,24.7654 119.1567,25.0164 119.9017,25.4884 C120.0797,25.6854 120.2647,25.8614 120.5617,25.7314 C121.4047,26.2984 122.2467,26.8664 123.0897,27.4334 C124.7337,29.0624 126.0957,30.9064 127.2667,32.8974 L127.2657,32.8984 C127.2007,33.2074 127.3007,33.4484 127.5637,33.6224 L127.5627,33.6234 Z" id="Fill-143" fill="#BBBDBF"></path>
                <path d="M127.2664,32.8979 C126.0954,30.9069 124.7334,29.0629 123.0894,27.4339 C123.4604,27.3589 123.7214,27.5859 123.9394,27.8079 C125.2504,29.1449 126.4334,30.5789 127.2454,32.2859 C127.3444,32.4939 127.3854,32.6899 127.2664,32.8979" id="Fill-145" fill="#97999C"></path>
                <path d="M120.5619,25.7316 C120.2649,25.8616 120.0799,25.6856 119.9019,25.4886 C120.2339,25.2656 120.4669,25.3116 120.5619,25.7316" id="Fill-147" fill="#97999C"></path>
                <path d="M127.5633,33.6228 C127.3003,33.4488 127.2003,33.2078 127.2663,32.8978 C127.5393,33.0678 127.7723,33.2548 127.5633,33.6228" id="Fill-149" fill="#97999C"></path>
            </g>
        </g>
    </g>
</svg>